G04*
G04 #@! TF.GenerationSoftware,Altium Limited,Altium Designer,21.6.4 (81)*
G04*
G04 Layer_Color=128*
%FSLAX24Y24*%
%MOIN*%
G70*
G04*
G04 #@! TF.SameCoordinates,91C8DFC6-6E0A-4D14-B263-8AF1C318984C*
G04*
G04*
G04 #@! TF.FilePolarity,Positive*
G04*
G01*
G75*
%ADD128C,0.0020*%
G54D128*
X11876Y-15920D02*
X13450D01*
X12663Y-16708D02*
Y-15133D01*
X-13450Y-15920D02*
X-11876D01*
X-12663Y-16708D02*
Y-15133D01*
X-1844Y-4850D02*
X-1056D01*
X-1450Y-5244D02*
Y-4456D01*
X-250Y700D02*
X150D01*
X-50Y500D02*
Y900D01*
X-250Y-1300D02*
X150D01*
X-50Y-1500D02*
Y-1100D01*
X2550Y-5400D02*
X2950D01*
X2750Y-5600D02*
Y-5200D01*
X2550Y-7400D02*
X2950D01*
X2750Y-7600D02*
Y-7200D01*
X7400Y-9050D02*
X7700D01*
X7550Y-9200D02*
Y-8900D01*
X7400Y-10050D02*
X7700D01*
X7550Y-10200D02*
Y-9900D01*
X10150Y-6250D02*
X10450D01*
X10300Y-6400D02*
Y-6100D01*
X10150Y-7250D02*
X10450D01*
X10300Y-7400D02*
Y-7100D01*
X7364Y5350D02*
X7836D01*
X7600Y5114D02*
Y5586D01*
X9814Y5350D02*
X10286D01*
X10050Y5114D02*
Y5586D01*
X4914Y5350D02*
X5386D01*
X5150Y5114D02*
Y5586D01*
X12306Y250D02*
X13094D01*
X12700Y-144D02*
Y644D01*
X10705Y-1700D02*
X11295D01*
X11000Y-1995D02*
Y-1405D01*
X5705Y-3669D02*
X6295D01*
X6000Y-3964D02*
Y-3373D01*
X9720Y-3668D02*
X10311D01*
X10016Y-3964D02*
Y-3373D01*
X5705Y269D02*
X6295D01*
X6000Y-27D02*
Y564D01*
X9720Y269D02*
X10311D01*
X10016Y-27D02*
Y564D01*
X-9850Y-2700D02*
X-9450D01*
X-9650Y-2900D02*
Y-2500D01*
X-10350Y-3566D02*
X-9950D01*
X-10150Y-3766D02*
Y-3366D01*
X-10850Y-4432D02*
X-10450D01*
X-10650Y-4632D02*
Y-4232D01*
X-11350Y-5298D02*
X-10950D01*
X-11150Y-5498D02*
Y-5098D01*
X-5811Y-2211D02*
X-5411D01*
X-5611Y-2411D02*
Y-2011D01*
X-5104Y-1504D02*
X-4704D01*
X-4904Y-1704D02*
Y-1304D01*
X-3689Y-89D02*
X-3289D01*
X-3489Y-289D02*
Y111D01*
X-4396Y-796D02*
X-3996D01*
X-4196Y-996D02*
Y-596D01*
X1240Y9673D02*
X1752D01*
X1496Y9417D02*
Y9929D01*
X-551Y-3425D02*
X551D01*
X0Y-3976D02*
Y-2874D01*
X-10507Y-957D02*
X-10207D01*
X-10357Y-1107D02*
Y-807D01*
X-9800Y-250D02*
X-9500D01*
X-9650Y-400D02*
Y-100D01*
X-3209Y2146D02*
X-2106D01*
X-2657Y1594D02*
Y2697D01*
X2657Y1161D02*
X3760D01*
X3209Y610D02*
Y1713D01*
X-1370Y7748D02*
X-858D01*
X-1114Y7492D02*
Y8004D01*
X9460Y7300D02*
X9740D01*
X9600Y7160D02*
Y7440D01*
X4460Y6950D02*
X4740D01*
X4600Y6810D02*
Y7090D01*
X6660Y2450D02*
X6940D01*
X6800Y2310D02*
Y2590D01*
X3910Y-10700D02*
X4190D01*
X4050Y-10840D02*
Y-10560D01*
X-6390Y6200D02*
X-6110D01*
X-6250Y6060D02*
Y6340D01*
X-7040Y4850D02*
X-6760D01*
X-6900Y4710D02*
Y4990D01*
X-940Y-6650D02*
X-660D01*
X-800Y-6790D02*
Y-6510D01*
X-1290Y-9950D02*
X-1010D01*
X-1150Y-10090D02*
Y-9810D01*
X-2190Y-9950D02*
X-1910D01*
X-2050Y-10090D02*
Y-9810D01*
X-5340Y-8450D02*
X-5060D01*
X-5200Y-8590D02*
Y-8310D01*
X4810Y-11650D02*
X5090D01*
X4950Y-11790D02*
Y-11510D01*
X-6840Y-9500D02*
X-6560D01*
X-6700Y-9640D02*
Y-9360D01*
X-1640Y-7400D02*
X-1360D01*
X-1500Y-7540D02*
Y-7260D01*
X-440Y-9950D02*
X-160D01*
X-300Y-10090D02*
Y-9810D01*
X-5690Y3400D02*
X-5410D01*
X-5550Y3260D02*
Y3540D01*
X5710Y9950D02*
X5990D01*
X5850Y9810D02*
Y10090D01*
X3410Y9950D02*
X3690D01*
X3550Y9810D02*
Y10090D01*
X-40Y5050D02*
X240D01*
X100Y4910D02*
Y5190D01*
X-640Y6300D02*
X-360D01*
X-500Y6160D02*
Y6440D01*
X-4690Y6600D02*
X-4410D01*
X-4550Y6460D02*
Y6740D01*
X-3590Y5450D02*
X-3310D01*
X-3450Y5310D02*
Y5590D01*
X-8540Y4350D02*
X-8260D01*
X-8400Y4210D02*
Y4490D01*
X-6390Y2700D02*
X-6110D01*
X-6250Y2560D02*
Y2840D01*
X4160Y9950D02*
X4440D01*
X4300Y9810D02*
Y10090D01*
X-1390Y4200D02*
X-1110D01*
X-1250Y4060D02*
Y4340D01*
X-12190Y-650D02*
X-11910D01*
X-12050Y-790D02*
Y-510D01*
X-540Y12900D02*
X-260D01*
X-400Y12760D02*
Y13040D01*
X-6540Y-1300D02*
X-6260D01*
X-6400Y-1440D02*
Y-1160D01*
X9760Y8500D02*
X10040D01*
X9900Y8360D02*
Y8640D01*
X-7740Y3650D02*
X-7460D01*
X-7600Y3510D02*
Y3790D01*
M02*
