G04*
G04 #@! TF.GenerationSoftware,Altium Limited,Altium Designer,21.6.4 (81)*
G04*
G04 Layer_Color=2752767*
%FSLAX24Y24*%
%MOIN*%
G70*
G04*
G04 #@! TF.SameCoordinates,91C8DFC6-6E0A-4D14-B263-8AF1C318984C*
G04*
G04*
G04 #@! TF.FilePolarity,Positive*
G04*
G01*
G75*
%ADD128C,0.0020*%
%ADD129C,0.0027*%
G54D128*
X12583Y-16000D02*
Y-15840D01*
X12743D01*
Y-16000D01*
X12583D01*
X-12743D02*
Y-15840D01*
X-12583D01*
Y-16000D01*
X-12743D01*
X-50Y620D02*
X-130Y780D01*
X30D01*
X-50Y620D01*
Y-1380D02*
X-130Y-1220D01*
X30D01*
X-50Y-1380D01*
X2750Y-5480D02*
X2670Y-5320D01*
X2830D01*
X2750Y-5480D01*
Y-7480D02*
X2670Y-7320D01*
X2830D01*
X2750Y-7480D01*
X7550Y-9130D02*
X7590Y-9090D01*
X7630D01*
X7590Y-9050D01*
X7630Y-9010D01*
X7590D01*
X7550Y-8970D01*
X7510Y-9010D01*
X7470D01*
X7510Y-9050D01*
X7470Y-9090D01*
X7510D01*
X7550Y-9130D01*
Y-10130D02*
X7590Y-10090D01*
X7630D01*
X7590Y-10050D01*
X7630Y-10010D01*
X7590D01*
X7550Y-9970D01*
X7510Y-10010D01*
X7470D01*
X7510Y-10050D01*
X7470Y-10090D01*
X7510D01*
X7550Y-10130D01*
X10300Y-6330D02*
X10340Y-6290D01*
X10380D01*
X10340Y-6250D01*
X10380Y-6210D01*
X10340D01*
X10300Y-6170D01*
X10260Y-6210D01*
X10220D01*
X10260Y-6250D01*
X10220Y-6290D01*
X10260D01*
X10300Y-6330D01*
Y-7330D02*
X10340Y-7290D01*
X10380D01*
X10340Y-7250D01*
X10380Y-7210D01*
X10340D01*
X10300Y-7170D01*
X10260Y-7210D01*
X10220D01*
X10260Y-7250D01*
X10220Y-7290D01*
X10260D01*
X10300Y-7330D01*
X7520Y5270D02*
X7560Y5350D01*
X7520Y5430D01*
X7600Y5390D01*
X7680Y5430D01*
X7640Y5350D01*
X7680Y5270D01*
X7600Y5310D01*
X7520Y5270D01*
X9970D02*
X10010Y5350D01*
X9970Y5430D01*
X10050Y5390D01*
X10130Y5430D01*
X10090Y5350D01*
X10130Y5270D01*
X10050Y5310D01*
X9970Y5270D01*
X5070D02*
X5110Y5350D01*
X5070Y5430D01*
X5150Y5390D01*
X5230Y5430D01*
X5190Y5350D01*
X5230Y5270D01*
X5150Y5310D01*
X5070Y5270D01*
X10960Y-1740D02*
Y-1780D01*
X11040D01*
Y-1740D01*
X11080D01*
Y-1660D01*
X11040D01*
Y-1620D01*
X10960D01*
Y-1660D01*
X10920D01*
Y-1740D01*
X10960D01*
X5960Y-3709D02*
Y-3749D01*
X6040D01*
Y-3709D01*
X6080D01*
Y-3629D01*
X6040D01*
Y-3589D01*
X5960D01*
Y-3629D01*
X5920D01*
Y-3709D01*
X5960D01*
X9976Y-3708D02*
Y-3749D01*
X10056D01*
Y-3708D01*
X10096D01*
Y-3629D01*
X10056D01*
Y-3589D01*
X9976D01*
Y-3629D01*
X9936D01*
Y-3708D01*
X9976D01*
X5960Y228D02*
Y189D01*
X6040D01*
Y228D01*
X6080D01*
Y309D01*
X6040D01*
Y349D01*
X5960D01*
Y309D01*
X5920D01*
Y228D01*
X5960D01*
X9976Y228D02*
Y189D01*
X10056D01*
Y228D01*
X10096D01*
Y309D01*
X10056D01*
Y349D01*
X9976D01*
Y309D01*
X9936D01*
Y228D01*
X9976D01*
X-9650Y-2780D02*
X-9730Y-2620D01*
X-9570D01*
X-9650Y-2780D01*
X-10150Y-3646D02*
X-10230Y-3486D01*
X-10070D01*
X-10150Y-3646D01*
X-10650Y-4512D02*
X-10730Y-4352D01*
X-10570D01*
X-10650Y-4512D01*
X-11150Y-5378D02*
X-11230Y-5218D01*
X-11070D01*
X-11150Y-5378D01*
X-5611Y-2291D02*
X-5691Y-2131D01*
X-5531D01*
X-5611Y-2291D01*
X-4904Y-1584D02*
X-4984Y-1424D01*
X-4824D01*
X-4904Y-1584D01*
X-3489Y-169D02*
X-3569Y-9D01*
X-3409D01*
X-3489Y-169D01*
X-4196Y-876D02*
X-4276Y-716D01*
X-4116D01*
X-4196Y-876D01*
X1416Y9593D02*
X1456D01*
X1496Y9633D01*
X1536Y9593D01*
X1576D01*
Y9633D01*
X1536Y9673D01*
X1576Y9713D01*
Y9753D01*
X1536D01*
X1496Y9713D01*
X1456Y9753D01*
X1416D01*
Y9713D01*
X1456Y9673D01*
X1416Y9633D01*
Y9593D01*
X-80Y-3425D02*
X0Y-3345D01*
X80Y-3425D01*
X0Y-3505D01*
X-80Y-3425D01*
X-10357Y-1037D02*
X-10317Y-997D01*
X-10277D01*
X-10317Y-957D01*
X-10277Y-917D01*
X-10317D01*
X-10357Y-877D01*
X-10397Y-917D01*
X-10437D01*
X-10397Y-957D01*
X-10437Y-997D01*
X-10397D01*
X-10357Y-1037D01*
X-9650Y-330D02*
X-9610Y-290D01*
X-9570D01*
X-9610Y-250D01*
X-9570Y-210D01*
X-9610D01*
X-9650Y-170D01*
X-9690Y-210D01*
X-9730D01*
X-9690Y-250D01*
X-9730Y-290D01*
X-9690D01*
X-9650Y-330D01*
X-2737Y2146D02*
X-2657Y2226D01*
X-2577Y2146D01*
X-2657Y2066D01*
X-2737Y2146D01*
X3129Y1161D02*
X3209Y1241D01*
X3289Y1161D01*
X3209Y1081D01*
X3129Y1161D01*
X-1194Y7668D02*
X-1154D01*
X-1114Y7708D01*
X-1074Y7668D01*
X-1034D01*
Y7708D01*
X-1074Y7748D01*
X-1034Y7788D01*
Y7828D01*
X-1074D01*
X-1114Y7788D01*
X-1154Y7828D01*
X-1194D01*
Y7788D01*
X-1154Y7748D01*
X-1194Y7708D01*
Y7668D01*
X9520Y7220D02*
Y7380D01*
X9680D01*
Y7220D01*
X9520D01*
X9560Y7260D02*
Y7340D01*
X9640D01*
Y7260D01*
X9560D01*
X4520Y6870D02*
Y7030D01*
X4680D01*
Y6870D01*
X4520D01*
X4560Y6910D02*
Y6990D01*
X4640D01*
Y6910D01*
X4560D01*
X6720Y2370D02*
Y2530D01*
X6880D01*
Y2370D01*
X6720D01*
X6760Y2410D02*
Y2490D01*
X6840D01*
Y2410D01*
X6760D01*
X3970Y-10780D02*
Y-10620D01*
X4130D01*
Y-10780D01*
X3970D01*
X4010Y-10740D02*
Y-10660D01*
X4090D01*
Y-10740D01*
X4010D01*
X-6330Y6120D02*
Y6280D01*
X-6170D01*
Y6120D01*
X-6330D01*
X-6290Y6160D02*
Y6240D01*
X-6210D01*
Y6160D01*
X-6290D01*
X-6980Y4770D02*
Y4930D01*
X-6820D01*
Y4770D01*
X-6980D01*
X-6940Y4810D02*
Y4890D01*
X-6860D01*
Y4810D01*
X-6940D01*
X-880Y-6730D02*
Y-6570D01*
X-720D01*
Y-6730D01*
X-880D01*
X-840Y-6690D02*
Y-6610D01*
X-760D01*
Y-6690D01*
X-840D01*
X-1230Y-10030D02*
Y-9870D01*
X-1070D01*
Y-10030D01*
X-1230D01*
X-1190Y-9990D02*
Y-9910D01*
X-1110D01*
Y-9990D01*
X-1190D01*
X-2130Y-10030D02*
Y-9870D01*
X-1970D01*
Y-10030D01*
X-2130D01*
X-2090Y-9990D02*
Y-9910D01*
X-2010D01*
Y-9990D01*
X-2090D01*
X-5280Y-8530D02*
Y-8370D01*
X-5120D01*
Y-8530D01*
X-5280D01*
X-5240Y-8490D02*
Y-8410D01*
X-5160D01*
Y-8490D01*
X-5240D01*
X4870Y-11730D02*
Y-11570D01*
X5030D01*
Y-11730D01*
X4870D01*
X4910Y-11690D02*
Y-11610D01*
X4990D01*
Y-11690D01*
X4910D01*
X-6780Y-9580D02*
Y-9420D01*
X-6620D01*
Y-9580D01*
X-6780D01*
X-6740Y-9540D02*
Y-9460D01*
X-6660D01*
Y-9540D01*
X-6740D01*
X-1580Y-7480D02*
Y-7320D01*
X-1420D01*
Y-7480D01*
X-1580D01*
X-1540Y-7440D02*
Y-7360D01*
X-1460D01*
Y-7440D01*
X-1540D01*
X-380Y-10030D02*
Y-9870D01*
X-220D01*
Y-10030D01*
X-380D01*
X-340Y-9990D02*
Y-9910D01*
X-260D01*
Y-9990D01*
X-340D01*
X-5630Y3320D02*
Y3480D01*
X-5470D01*
Y3320D01*
X-5630D01*
X-5590Y3360D02*
Y3440D01*
X-5510D01*
Y3360D01*
X-5590D01*
X5770Y9870D02*
Y10030D01*
X5930D01*
Y9870D01*
X5770D01*
X5810Y9910D02*
Y9990D01*
X5890D01*
Y9910D01*
X5810D01*
X3470Y9870D02*
Y10030D01*
X3630D01*
Y9870D01*
X3470D01*
X3510Y9910D02*
Y9990D01*
X3590D01*
Y9910D01*
X3510D01*
X20Y4970D02*
Y5130D01*
X180D01*
Y4970D01*
X20D01*
X60Y5010D02*
Y5090D01*
X140D01*
Y5010D01*
X60D01*
X-580Y6220D02*
Y6380D01*
X-420D01*
Y6220D01*
X-580D01*
X-540Y6260D02*
Y6340D01*
X-460D01*
Y6260D01*
X-540D01*
X-4630Y6520D02*
Y6680D01*
X-4470D01*
Y6520D01*
X-4630D01*
X-4590Y6560D02*
Y6640D01*
X-4510D01*
Y6560D01*
X-4590D01*
X-3530Y5370D02*
Y5530D01*
X-3370D01*
Y5370D01*
X-3530D01*
X-3490Y5410D02*
Y5490D01*
X-3410D01*
Y5410D01*
X-3490D01*
X-8480Y4270D02*
Y4430D01*
X-8320D01*
Y4270D01*
X-8480D01*
X-8440Y4310D02*
Y4390D01*
X-8360D01*
Y4310D01*
X-8440D01*
X-6330Y2620D02*
Y2780D01*
X-6170D01*
Y2620D01*
X-6330D01*
X-6290Y2660D02*
Y2740D01*
X-6210D01*
Y2660D01*
X-6290D01*
X4220Y9870D02*
Y10030D01*
X4380D01*
Y9870D01*
X4220D01*
X4260Y9910D02*
Y9990D01*
X4340D01*
Y9910D01*
X4260D01*
X-1330Y4120D02*
Y4280D01*
X-1170D01*
Y4120D01*
X-1330D01*
X-1290Y4160D02*
Y4240D01*
X-1210D01*
Y4160D01*
X-1290D01*
X-12130Y-730D02*
Y-570D01*
X-11970D01*
Y-730D01*
X-12130D01*
X-12090Y-690D02*
Y-610D01*
X-12010D01*
Y-690D01*
X-12090D01*
X-480Y12820D02*
Y12980D01*
X-320D01*
Y12820D01*
X-480D01*
X-440Y12860D02*
Y12940D01*
X-360D01*
Y12860D01*
X-440D01*
X-6480Y-1380D02*
Y-1220D01*
X-6320D01*
Y-1380D01*
X-6480D01*
X-6440Y-1340D02*
Y-1260D01*
X-6360D01*
Y-1340D01*
X-6440D01*
X9820Y8420D02*
Y8580D01*
X9980D01*
Y8420D01*
X9820D01*
X9860Y8460D02*
Y8540D01*
X9940D01*
Y8460D01*
X9860D01*
X-7680Y3570D02*
Y3730D01*
X-7520D01*
Y3570D01*
X-7680D01*
X-7640Y3610D02*
Y3690D01*
X-7560D01*
Y3610D01*
X-7640D01*
G54D129*
X-1370Y-4850D02*
X-1425Y-4774D01*
X-1515Y-4803D01*
Y-4897D01*
X-1425Y-4926D01*
X-1370Y-4850D01*
X12780Y250D02*
X12725Y326D01*
X12635Y297D01*
Y203D01*
X12725Y174D01*
X12780Y250D01*
M02*
