G04*
G04 #@! TF.GenerationSoftware,Altium Limited,Altium Designer,21.6.4 (81)*
G04*
G04 Layer_Color=8388736*
%FSLAX24Y24*%
%MOIN*%
G70*
G04*
G04 #@! TF.SameCoordinates,91C8DFC6-6E0A-4D14-B263-8AF1C318984C*
G04*
G04*
G04 #@! TF.FilePolarity,Negative*
G04*
G01*
G75*
%ADD81C,0.0474*%
%ADD82R,0.0611X0.0671*%
%ADD83R,0.0671X0.0277*%
%ADD84R,0.0671X0.0611*%
%ADD85R,0.0789X0.0710*%
%ADD86R,0.1261X0.0690*%
%ADD87R,0.0592X0.0671*%
%ADD88R,0.0671X0.0592*%
%ADD89R,0.0474X0.0710*%
%ADD90R,0.0178X0.0222*%
G04:AMPARAMS|DCode=91|XSize=67.1mil|YSize=43.4mil|CornerRadius=0mil|HoleSize=0mil|Usage=FLASHONLY|Rotation=45.000|XOffset=0mil|YOffset=0mil|HoleType=Round|Shape=Rectangle|*
%AMROTATEDRECTD91*
4,1,4,-0.0084,-0.0391,-0.0391,-0.0084,0.0084,0.0391,0.0391,0.0084,-0.0084,-0.0391,0.0*
%
%ADD91ROTATEDRECTD91*%

%ADD92P,0.2340X4X90.0*%
G04:AMPARAMS|DCode=93|XSize=59.2mil|YSize=67.1mil|CornerRadius=0mil|HoleSize=0mil|Usage=FLASHONLY|Rotation=135.000|XOffset=0mil|YOffset=0mil|HoleType=Round|Shape=Rectangle|*
%AMROTATEDRECTD93*
4,1,4,0.0446,0.0028,-0.0028,-0.0446,-0.0446,-0.0028,0.0028,0.0446,0.0446,0.0028,0.0*
%
%ADD93ROTATEDRECTD93*%

G04:AMPARAMS|DCode=94|XSize=71mil|YSize=78.9mil|CornerRadius=0mil|HoleSize=0mil|Usage=FLASHONLY|Rotation=315.000|XOffset=0mil|YOffset=0mil|HoleType=Round|Shape=Rectangle|*
%AMROTATEDRECTD94*
4,1,4,-0.0530,-0.0028,0.0028,0.0530,0.0530,0.0028,-0.0028,-0.0530,-0.0530,-0.0028,0.0*
%
%ADD94ROTATEDRECTD94*%

G04:AMPARAMS|DCode=95|XSize=67.1mil|YSize=61.1mil|CornerRadius=0mil|HoleSize=0mil|Usage=FLASHONLY|Rotation=225.000|XOffset=0mil|YOffset=0mil|HoleType=Round|Shape=Rectangle|*
%AMROTATEDRECTD95*
4,1,4,0.0021,0.0453,0.0453,0.0021,-0.0021,-0.0453,-0.0453,-0.0021,0.0021,0.0453,0.0*
%
%ADD95ROTATEDRECTD95*%

%ADD96R,0.0277X0.0730*%
%ADD97C,0.1655*%
%ADD98C,0.1261*%
%ADD99C,0.0671*%
%ADD100C,0.0680*%
%ADD101R,0.0680X0.0680*%
%ADD102C,0.0880*%
%ADD103R,0.1064X0.1064*%
%ADD104C,0.1064*%
%ADD105P,0.1032X4X285.0*%
%ADD106C,0.0730*%
%ADD107P,0.0948X4X270.0*%
%ADD108C,0.0867*%
%ADD109C,0.0580*%
G54D81*
X-4250Y12100D02*
D03*
G54D82*
X-3676Y-9400D02*
D03*
X-4424D02*
D03*
X-3224Y-7400D02*
D03*
X-2476D02*
D03*
G54D83*
X-2196Y-8316D02*
D03*
Y-8572D02*
D03*
Y-8828D02*
D03*
Y-9084D02*
D03*
X-504Y-8316D02*
D03*
Y-8572D02*
D03*
Y-8828D02*
D03*
Y-9084D02*
D03*
G54D84*
X-4250Y-6676D02*
D03*
Y-7424D02*
D03*
G54D85*
X0Y-10749D02*
D03*
Y-11851D02*
D03*
X-1100Y-10749D02*
D03*
Y-11851D02*
D03*
X-2400Y-10749D02*
D03*
Y-11851D02*
D03*
X-3550Y-10749D02*
D03*
Y-11851D02*
D03*
X950Y5949D02*
D03*
Y7051D02*
D03*
G54D86*
X1550Y-11861D02*
D03*
Y-10739D02*
D03*
G54D87*
X-4424Y-8450D02*
D03*
X-3676D02*
D03*
G54D88*
X1000Y-9374D02*
D03*
Y-8626D02*
D03*
X7200Y9726D02*
D03*
Y10474D02*
D03*
X3300Y6924D02*
D03*
Y6176D02*
D03*
X8100Y8924D02*
D03*
Y8176D02*
D03*
X7200Y8924D02*
D03*
Y8176D02*
D03*
X2200Y6176D02*
D03*
Y6924D02*
D03*
G54D89*
X-5509Y-10600D02*
D03*
X-6691D02*
D03*
G54D90*
X-4450Y-11227D02*
D03*
Y-10873D02*
D03*
G54D91*
X-9743Y4171D02*
D03*
X-9326Y3754D02*
D03*
X-8908Y3336D02*
D03*
X-8490Y2919D02*
D03*
X-8073Y2501D02*
D03*
X-7655Y2084D02*
D03*
X-7238Y1666D02*
D03*
X-6820Y1248D02*
D03*
X-6403Y831D02*
D03*
X-1531Y5703D02*
D03*
X-1948Y6120D02*
D03*
X-2366Y6538D02*
D03*
X-2784Y6955D02*
D03*
X-3201Y7373D02*
D03*
X-3619Y7790D02*
D03*
X-4036Y8208D02*
D03*
X-4454Y8626D02*
D03*
X-4871Y9043D02*
D03*
G54D92*
X-5161Y5073D02*
D03*
G54D93*
X-11536Y336D02*
D03*
X-12064Y864D02*
D03*
X-8686Y836D02*
D03*
X-9214Y1364D02*
D03*
G54D94*
X-11440Y1940D02*
D03*
X-10660Y1160D02*
D03*
G54D95*
X-9936Y2086D02*
D03*
X-10464Y2614D02*
D03*
X-7936Y-1564D02*
D03*
X-8464Y-1036D02*
D03*
X-7036Y-664D02*
D03*
X-7564Y-136D02*
D03*
X8636Y9814D02*
D03*
X9164Y9286D02*
D03*
G54D96*
X2787Y8362D02*
D03*
X3043D02*
D03*
X3298D02*
D03*
X3554D02*
D03*
X3810D02*
D03*
X4066Y8362D02*
D03*
X4322Y8362D02*
D03*
X4578D02*
D03*
X4834D02*
D03*
X5090D02*
D03*
X5346D02*
D03*
X5602D02*
D03*
X5857D02*
D03*
X6113D02*
D03*
X2787Y11138D02*
D03*
X3043Y11138D02*
D03*
X3298Y11138D02*
D03*
X3554Y11138D02*
D03*
X3810Y11138D02*
D03*
X4066Y11138D02*
D03*
X4322D02*
D03*
X4578D02*
D03*
X4834D02*
D03*
X5090Y11138D02*
D03*
X5346Y11138D02*
D03*
X5602Y11138D02*
D03*
X5857Y11138D02*
D03*
X6113Y11138D02*
D03*
G54D97*
X12663Y-15920D02*
D03*
X-12663D02*
D03*
X0Y-3425D02*
D03*
X-2657Y2146D02*
D03*
X3209Y1161D02*
D03*
G54D98*
X-1450Y-4850D02*
D03*
X12700Y250D02*
D03*
G54D99*
X-50Y700D02*
D03*
Y-1300D02*
D03*
X2750Y-5400D02*
D03*
Y-7400D02*
D03*
X-5611Y-2211D02*
D03*
X-4904Y-1504D02*
D03*
X-4196Y-796D02*
D03*
G54D100*
X7550Y-9050D02*
D03*
X10300Y-6250D02*
D03*
X-10357Y-957D02*
D03*
X-9650Y-250D02*
D03*
G54D101*
X7550Y-10050D02*
D03*
X10300Y-7250D02*
D03*
G54D102*
X7600Y5350D02*
D03*
X10050D02*
D03*
X5150D02*
D03*
G54D103*
X11000Y-1700D02*
D03*
G54D104*
X6000Y-3669D02*
D03*
X10016Y-3668D02*
D03*
X6000Y269D02*
D03*
X10016Y269D02*
D03*
G54D105*
X-9650Y-2700D02*
D03*
G54D106*
X-10150Y-3566D02*
D03*
X-10650Y-4432D02*
D03*
X-11150Y-5298D02*
D03*
G54D107*
X-3489Y-89D02*
D03*
G54D108*
X1496Y9673D02*
D03*
X-1114Y7748D02*
D03*
G54D109*
X9600Y7300D02*
D03*
X4600Y6950D02*
D03*
X6800Y2450D02*
D03*
X4050Y-10700D02*
D03*
X-6250Y6200D02*
D03*
X-6900Y4850D02*
D03*
X-800Y-6650D02*
D03*
X-1150Y-9950D02*
D03*
X-2050D02*
D03*
X-5200Y-8450D02*
D03*
X4950Y-11650D02*
D03*
X-6700Y-9500D02*
D03*
X-1500Y-7400D02*
D03*
X-300Y-9950D02*
D03*
X-5550Y3400D02*
D03*
X5850Y9950D02*
D03*
X3550D02*
D03*
X100Y5050D02*
D03*
X-500Y6300D02*
D03*
X-4550Y6600D02*
D03*
X-3450Y5450D02*
D03*
X-8400Y4350D02*
D03*
X-6250Y2700D02*
D03*
X4300Y9950D02*
D03*
X-1250Y4200D02*
D03*
X-12050Y-650D02*
D03*
X-400Y12900D02*
D03*
X-6400Y-1300D02*
D03*
X9900Y8500D02*
D03*
X-7600Y3650D02*
D03*
M02*
