G04*
G04 #@! TF.GenerationSoftware,Altium Limited,Altium Designer,21.6.4 (81)*
G04*
G04 Layer_Physical_Order=2*
G04 Layer_Color=16711680*
%FSLAX24Y24*%
%MOIN*%
G70*
G04*
G04 #@! TF.SameCoordinates,91C8DFC6-6E0A-4D14-B263-8AF1C318984C*
G04*
G04*
G04 #@! TF.FilePolarity,Positive*
G04*
G01*
G75*
%ADD10C,0.0394*%
%ADD11R,0.0531X0.0591*%
%ADD13R,0.0591X0.0531*%
%ADD16R,0.0512X0.0591*%
%ADD17R,0.0591X0.0512*%
%ADD26C,0.0080*%
%ADD27C,0.0100*%
%ADD28C,0.0200*%
%ADD29C,0.0150*%
%ADD31C,0.0700*%
%ADD36C,0.1575*%
%ADD37C,0.1181*%
%ADD38C,0.0591*%
%ADD39C,0.0600*%
%ADD40R,0.0600X0.0600*%
%ADD41C,0.0800*%
%ADD42R,0.0984X0.0984*%
%ADD43C,0.0984*%
%ADD44P,0.0919X4X285.0*%
%ADD45C,0.0650*%
%ADD46P,0.0835X4X270.0*%
%ADD47C,0.0787*%
%ADD48C,0.0500*%
%ADD49R,0.0591X0.0236*%
%ADD50R,0.0236X0.0374*%
%ADD51R,0.0374X0.0354*%
G04:AMPARAMS|DCode=52|XSize=35.4mil|YSize=37.4mil|CornerRadius=0mil|HoleSize=0mil|Usage=FLASHONLY|Rotation=225.000|XOffset=0mil|YOffset=0mil|HoleType=Round|Shape=Rectangle|*
%AMROTATEDRECTD52*
4,1,4,-0.0007,0.0258,0.0258,-0.0007,0.0007,-0.0258,-0.0258,0.0007,-0.0007,0.0258,0.0*
%
%ADD52ROTATEDRECTD52*%

%ADD53R,0.0354X0.0374*%
G04:AMPARAMS|DCode=54|XSize=59.1mil|YSize=82.7mil|CornerRadius=0mil|HoleSize=0mil|Usage=FLASHONLY|Rotation=135.000|XOffset=0mil|YOffset=0mil|HoleType=Round|Shape=Rectangle|*
%AMROTATEDRECTD54*
4,1,4,0.0501,0.0084,-0.0084,-0.0501,-0.0501,-0.0084,0.0084,0.0501,0.0501,0.0084,0.0*
%
%ADD54ROTATEDRECTD54*%

%ADD55R,0.0630X0.0492*%
%ADD56R,0.0610X0.1181*%
%ADD57C,0.1500*%
%ADD58C,0.0800*%
%ADD59R,0.2700X0.4400*%
G36*
X1404Y13356D02*
X1519Y13340D01*
X1522Y13334D01*
X1535Y13237D01*
X1522Y13139D01*
X1484Y13048D01*
X1424Y12970D01*
X1346Y12910D01*
X1255Y12872D01*
X1157Y12860D01*
X1060Y12872D01*
X969Y12910D01*
X891Y12970D01*
X831Y13048D01*
X793Y13139D01*
X780Y13237D01*
X793Y13334D01*
X821Y13401D01*
X1404Y13356D01*
D02*
G37*
G36*
X-2038Y12085D02*
X-2046Y12091D01*
X-2054Y12094D01*
X-2063Y12096D01*
X-2072Y12096D01*
X-2083Y12093D01*
X-2094Y12089D01*
X-2105Y12082D01*
X-2118Y12073D01*
X-2131Y12062D01*
X-2145Y12048D01*
X-2216Y12119D01*
X-2203Y12133D01*
X-2191Y12146D01*
X-2182Y12159D01*
X-2176Y12171D01*
X-2171Y12182D01*
X-2168Y12192D01*
X-2168Y12202D01*
X-2170Y12210D01*
X-2174Y12219D01*
X-2180Y12226D01*
X-2038Y12085D01*
D02*
G37*
G36*
X461Y13417D02*
X486Y13382D01*
X488Y13366D01*
X475Y13237D01*
X488Y13104D01*
X527Y12976D01*
X590Y12858D01*
X675Y12754D01*
X778Y12670D01*
X896Y12607D01*
X1024Y12568D01*
X1157Y12555D01*
X1291Y12568D01*
X1419Y12607D01*
X1537Y12670D01*
X1640Y12754D01*
X1725Y12858D01*
X1788Y12976D01*
X1827Y13104D01*
X1840Y13237D01*
X1838Y13259D01*
X1874Y13294D01*
X2101Y13264D01*
X2792Y13136D01*
X3476Y12972D01*
X4150Y12772D01*
X4813Y12537D01*
X5462Y12268D01*
X5650Y12179D01*
X5639Y12130D01*
X5600D01*
Y11824D01*
X5844D01*
Y11854D01*
X5845Y11846D01*
X5847Y11840D01*
X5851Y11834D01*
X5857Y11828D01*
X5864Y11824D01*
X5945D01*
Y11991D01*
X5988Y12018D01*
X6097Y11965D01*
X6715Y11630D01*
X7314Y11263D01*
X7893Y10864D01*
X8451Y10436D01*
X8986Y9980D01*
X9496Y9496D01*
X9980Y8986D01*
X10098Y8848D01*
X10065Y8809D01*
X10035Y8826D01*
X9950Y8849D01*
Y8550D01*
X10249D01*
X10232Y8614D01*
X10277Y8638D01*
X10436Y8451D01*
X10864Y7893D01*
X11263Y7314D01*
X11630Y6715D01*
X11965Y6097D01*
X12268Y5462D01*
X12537Y4813D01*
X12772Y4150D01*
X12972Y3476D01*
X13136Y2792D01*
X13264Y2101D01*
X13325Y1638D01*
X13292Y1600D01*
X11452D01*
Y1750D01*
X11444Y1789D01*
X11422Y1822D01*
X11389Y1844D01*
X11350Y1852D01*
X11000D01*
X10961Y1844D01*
X10928Y1822D01*
X10906Y1789D01*
X10898Y1750D01*
Y1600D01*
X9400D01*
Y-145D01*
X9399Y-146D01*
X9368Y-193D01*
X9357Y-247D01*
X9357Y-247D01*
Y-753D01*
X9213D01*
Y-1307D01*
X9400D01*
Y-1993D01*
X9213D01*
Y-2547D01*
X9347D01*
Y-3153D01*
X9359Y-3211D01*
X9392Y-3261D01*
X9502Y-3371D01*
X9491Y-3388D01*
X9446Y-3496D01*
X9425Y-3601D01*
X8592D01*
Y-3467D01*
X8156D01*
Y-4041D01*
X8592D01*
Y-3907D01*
X9474D01*
X9491Y-3949D01*
X9556Y-4046D01*
X9638Y-4128D01*
X9735Y-4193D01*
X9843Y-4238D01*
X9957Y-4261D01*
X10074D01*
X10188Y-4238D01*
X10296Y-4193D01*
X10393Y-4128D01*
X10476Y-4046D01*
X10540Y-3949D01*
X10585Y-3841D01*
X10608Y-3727D01*
Y-3610D01*
X10585Y-3496D01*
X10540Y-3388D01*
X10476Y-3291D01*
X10393Y-3209D01*
X10296Y-3144D01*
X10188Y-3099D01*
X10198Y-3050D01*
X10456D01*
X10728Y-3322D01*
X10761Y-3344D01*
X10800Y-3352D01*
X10839Y-3344D01*
X10872Y-3322D01*
X11122Y-3072D01*
X11137Y-3050D01*
X13033D01*
X13064Y-3089D01*
X12972Y-3476D01*
X12772Y-4150D01*
X12537Y-4813D01*
X12268Y-5462D01*
X11965Y-6097D01*
X11630Y-6715D01*
X11263Y-7314D01*
X10864Y-7893D01*
X10436Y-8451D01*
X9980Y-8986D01*
X9496Y-9496D01*
X8986Y-9980D01*
X8451Y-10436D01*
X7893Y-10864D01*
X7314Y-11263D01*
X6715Y-11630D01*
X6097Y-11965D01*
X5462Y-12268D01*
X4813Y-12537D01*
X4150Y-12772D01*
X3476Y-12972D01*
X2792Y-13136D01*
X2101Y-13264D01*
X1404Y-13356D01*
X703Y-13411D01*
X0Y-13429D01*
X-461Y-13417D01*
X-486Y-13382D01*
X-488Y-13366D01*
X-475Y-13237D01*
X-488Y-13104D01*
X-527Y-12976D01*
X-590Y-12858D01*
X-675Y-12754D01*
X-778Y-12670D01*
X-896Y-12607D01*
X-1024Y-12568D01*
X-1157Y-12555D01*
X-1291Y-12568D01*
X-1419Y-12607D01*
X-1537Y-12670D01*
X-1640Y-12754D01*
X-1725Y-12858D01*
X-1788Y-12976D01*
X-1827Y-13104D01*
X-1840Y-13237D01*
X-1838Y-13259D01*
X-1874Y-13294D01*
X-2101Y-13264D01*
X-2792Y-13136D01*
X-3476Y-12972D01*
X-4150Y-12772D01*
X-4813Y-12537D01*
X-5462Y-12268D01*
X-6097Y-11965D01*
X-6715Y-11630D01*
X-7314Y-11263D01*
X-7893Y-10864D01*
X-8451Y-10436D01*
X-8986Y-9980D01*
X-9496Y-9496D01*
X-9980Y-8986D01*
X-10436Y-8451D01*
X-10864Y-7893D01*
X-11263Y-7314D01*
X-11630Y-6715D01*
X-11965Y-6097D01*
X-12268Y-5462D01*
X-12537Y-4813D01*
X-12772Y-4150D01*
X-12972Y-3476D01*
X-13136Y-2792D01*
X-13264Y-2101D01*
X-13356Y-1404D01*
X-13411Y-703D01*
X-13429Y0D01*
X-13417Y461D01*
X-13382Y486D01*
X-13366Y488D01*
X-13237Y475D01*
X-13104Y488D01*
X-12976Y527D01*
X-12858Y590D01*
X-12754Y675D01*
X-12670Y778D01*
X-12607Y896D01*
X-12568Y1024D01*
X-12555Y1157D01*
X-12568Y1291D01*
X-12607Y1419D01*
X-12670Y1537D01*
X-12739Y1621D01*
X-10825Y3500D01*
Y3550D01*
X-4714Y9661D01*
X-4379Y9326D01*
X-3653Y10052D01*
X-3988Y10387D01*
X-2749Y11626D01*
X-2703Y11607D01*
Y10850D01*
X-2691Y10791D01*
X-2658Y10742D01*
X-403Y8487D01*
Y7513D01*
X-1438Y6478D01*
X-2712D01*
X-4092Y7858D01*
X-4141Y7891D01*
X-4200Y7903D01*
X-5750D01*
X-5809Y7891D01*
X-5858Y7858D01*
X-8008Y5708D01*
X-8041Y5659D01*
X-8053Y5600D01*
Y4700D01*
X-8041Y4641D01*
X-8008Y4592D01*
X-7553Y4137D01*
Y4001D01*
X-7554Y4000D01*
X-7646D01*
X-7735Y3976D01*
X-7815Y3930D01*
X-7880Y3865D01*
X-7926Y3785D01*
X-7950Y3696D01*
Y3604D01*
X-7926Y3515D01*
X-7880Y3435D01*
X-7815Y3370D01*
X-7735Y3324D01*
X-7646Y3300D01*
X-7554D01*
X-7465Y3324D01*
X-7385Y3370D01*
X-7320Y3435D01*
X-7274Y3515D01*
X-7250Y3604D01*
Y3696D01*
X-7274Y3785D01*
X-7287Y3808D01*
X-7259Y3850D01*
X-7247Y3909D01*
Y4200D01*
X-7259Y4259D01*
X-7292Y4308D01*
X-7747Y4763D01*
Y5537D01*
X-5687Y7597D01*
X-4263D01*
X-2883Y6217D01*
X-2834Y6184D01*
X-2775Y6172D01*
X-1375D01*
X-1316Y6184D01*
X-1267Y6217D01*
X-142Y7342D01*
X-109Y7391D01*
X-97Y7450D01*
Y8550D01*
X-109Y8609D01*
X-142Y8658D01*
X-2397Y10913D01*
Y11651D01*
X-2073Y11975D01*
X-1902Y11803D01*
X-1176Y12529D01*
X-1511Y12864D01*
X-987Y13388D01*
X-703Y13411D01*
X0Y13429D01*
X461Y13417D01*
D02*
G37*
G36*
X-7365Y3873D02*
X-7374Y3863D01*
X-7382Y3854D01*
X-7388Y3844D01*
X-7393Y3835D01*
X-7396Y3827D01*
X-7398Y3818D01*
X-7399Y3810D01*
X-7398Y3802D01*
X-7395Y3794D01*
X-7391Y3787D01*
X-7539Y3892D01*
X-7530Y3891D01*
X-7521Y3891D01*
X-7512Y3893D01*
X-7502Y3896D01*
X-7492Y3900D01*
X-7482Y3906D01*
X-7471Y3913D01*
X-7459Y3922D01*
X-7448Y3932D01*
X-7435Y3944D01*
X-7365Y3873D01*
D02*
G37*
G36*
X9924Y-215D02*
X9869Y-206D01*
X9818Y-200D01*
X9770Y-198D01*
X9725Y-199D01*
X9684Y-203D01*
X9646Y-211D01*
X9612Y-222D01*
X9581Y-237D01*
X9553Y-254D01*
X9528Y-276D01*
X9472Y-219D01*
X9493Y-194D01*
X9511Y-167D01*
X9525Y-135D01*
X9536Y-101D01*
X9544Y-63D01*
X9548Y-22D01*
X9549Y23D01*
X9547Y71D01*
X9541Y122D01*
X9532Y177D01*
X9924Y-215D01*
D02*
G37*
G36*
X12694Y-341D02*
X12688Y-343D01*
X12677Y-350D01*
X12662Y-363D01*
X12588Y-430D01*
X12425Y-591D01*
X11859Y-25D01*
X12109Y244D01*
X12694Y-341D01*
D02*
G37*
G36*
X9540Y-789D02*
X9542Y-803D01*
X9544Y-815D01*
X9546Y-826D01*
X9550Y-835D01*
X9554Y-842D01*
X9560Y-848D01*
X9566Y-852D01*
X9572Y-854D01*
X9580Y-855D01*
X9420D01*
X9428Y-854D01*
X9434Y-852D01*
X9440Y-848D01*
X9446Y-842D01*
X9450Y-835D01*
X9454Y-826D01*
X9456Y-815D01*
X9458Y-803D01*
X9460Y-789D01*
X9460Y-774D01*
X9540D01*
X9540Y-789D01*
D02*
G37*
G36*
X12057Y-959D02*
X11895Y-1126D01*
X11643Y-1424D01*
X11551Y-1555D01*
X11483Y-1674D01*
X11438Y-1781D01*
X11416Y-1876D01*
X11417Y-1960D01*
X11442Y-2031D01*
X11490Y-2090D01*
X10509Y-1209D01*
X10549Y-1201D01*
X10603Y-1175D01*
X10670Y-1133D01*
X10751Y-1073D01*
X10954Y-904D01*
X11361Y-522D01*
X11524Y-361D01*
X12057Y-959D01*
D02*
G37*
G36*
X9590Y-2446D02*
X9582Y-2449D01*
X9574Y-2454D01*
X9568Y-2461D01*
X9563Y-2470D01*
X9558Y-2481D01*
X9554Y-2494D01*
X9552Y-2510D01*
X9550Y-2527D01*
X9550Y-2546D01*
X9450D01*
X9449Y-2527D01*
X9448Y-2510D01*
X9445Y-2494D01*
X9442Y-2481D01*
X9438Y-2470D01*
X9432Y-2461D01*
X9426Y-2454D01*
X9418Y-2449D01*
X9409Y-2446D01*
X9400Y-2445D01*
X9600D01*
X9590Y-2446D01*
D02*
G37*
G36*
X8491Y-3663D02*
X8494Y-3672D01*
X8499Y-3679D01*
X8506Y-3686D01*
X8515Y-3691D01*
X8526Y-3696D01*
X8539Y-3699D01*
X8554Y-3702D01*
X8572Y-3703D01*
X8591Y-3704D01*
Y-3804D01*
X8572Y-3804D01*
X8554Y-3806D01*
X8539Y-3808D01*
X8526Y-3812D01*
X8515Y-3816D01*
X8506Y-3822D01*
X8499Y-3828D01*
X8494Y-3836D01*
X8491Y-3844D01*
X8490Y-3854D01*
Y-3654D01*
X8491Y-3663D01*
D02*
G37*
G36*
X-1060Y-12872D02*
X-969Y-12910D01*
X-891Y-12970D01*
X-831Y-13048D01*
X-793Y-13139D01*
X-780Y-13237D01*
X-793Y-13334D01*
X-821Y-13401D01*
X-1404Y-13356D01*
X-1519Y-13340D01*
X-1522Y-13334D01*
X-1535Y-13237D01*
X-1522Y-13139D01*
X-1484Y-13048D01*
X-1424Y-12970D01*
X-1346Y-12910D01*
X-1255Y-12872D01*
X-1157Y-12860D01*
X-1060Y-12872D01*
D02*
G37*
%LPC*%
G36*
X-350Y13249D02*
Y12950D01*
X-51D01*
X-74Y13035D01*
X-120Y13115D01*
X-185Y13180D01*
X-265Y13226D01*
X-350Y13249D01*
D02*
G37*
G36*
X-450D02*
X-535Y13226D01*
X-615Y13180D01*
X-680Y13115D01*
X-726Y13035D01*
X-749Y12950D01*
X-450D01*
Y13249D01*
D02*
G37*
G36*
X-51Y12850D02*
X-350D01*
Y12721D01*
X-225D01*
X-251Y12695D01*
X-294Y12646D01*
X-311Y12623D01*
X-326Y12601D01*
X-338Y12579D01*
X-348Y12559D01*
X-350Y12553D01*
Y12551D01*
X-265Y12574D01*
X-185Y12620D01*
X-120Y12685D01*
X-74Y12765D01*
X-51Y12850D01*
D02*
G37*
G36*
X-450D02*
X-749D01*
X-726Y12765D01*
X-680Y12685D01*
X-615Y12620D01*
X-535Y12574D01*
X-450Y12551D01*
Y12553D01*
X-452Y12559D01*
X-462Y12579D01*
X-474Y12601D01*
X-489Y12623D01*
X-506Y12646D01*
X-549Y12695D01*
X-575Y12721D01*
X-450D01*
Y12850D01*
D02*
G37*
G36*
X-1028Y12381D02*
X-1355Y12054D01*
X-1111Y11810D01*
X-855Y12066D01*
X-876Y12087D01*
X-870Y12082D01*
X-864Y12079D01*
X-857Y12078D01*
X-849Y12078D01*
X-841Y12080D01*
X-784Y12137D01*
X-1028Y12381D01*
D02*
G37*
G36*
X3587Y12229D02*
X2757D01*
Y12026D01*
X2595D01*
Y12180D01*
X1805D01*
Y11482D01*
X1805Y11468D01*
Y11432D01*
X1805Y11418D01*
Y11126D01*
X1886D01*
D01*
X1893Y11130D01*
X1899Y11136D01*
X1903Y11142D01*
X1905Y11148D01*
X1906Y11156D01*
Y11126D01*
X2200D01*
X2595D01*
Y11418D01*
X2595Y11432D01*
Y11468D01*
X2595Y11482D01*
Y11740D01*
X2757D01*
Y11537D01*
X3587D01*
Y11616D01*
X3637Y11640D01*
X3657Y11624D01*
Y10325D01*
X3618Y10294D01*
X3596Y10300D01*
X3504D01*
X3415Y10276D01*
X3335Y10230D01*
X3270Y10165D01*
X3224Y10085D01*
X3200Y9996D01*
Y9904D01*
X3224Y9815D01*
X3270Y9735D01*
X3335Y9670D01*
X3415Y9624D01*
X3504Y9600D01*
X3596D01*
X3685Y9624D01*
X3765Y9670D01*
X3830Y9735D01*
X3876Y9815D01*
X3900Y9904D01*
Y9996D01*
X3889Y10039D01*
X3898Y10052D01*
X3964Y10057D01*
X3966Y10055D01*
X3950Y9996D01*
Y9904D01*
X3974Y9815D01*
X4020Y9735D01*
X4085Y9670D01*
X4165Y9624D01*
X4254Y9600D01*
X4346D01*
X4435Y9624D01*
X4515Y9670D01*
X4580Y9735D01*
X4626Y9815D01*
X4650Y9904D01*
Y9996D01*
X4626Y10085D01*
X4580Y10165D01*
X4515Y10230D01*
X4435Y10276D01*
X4346Y10300D01*
X4254D01*
X4243Y10297D01*
X4203Y10327D01*
Y10625D01*
X4213Y10671D01*
X5043D01*
Y10864D01*
X5155D01*
Y10670D01*
X5945D01*
Y11368D01*
X5945Y11382D01*
Y11418D01*
X5945Y11432D01*
Y11724D01*
X5864D01*
D01*
X5857Y11720D01*
X5851Y11714D01*
X5847Y11708D01*
X5845Y11702D01*
X5844Y11694D01*
Y11724D01*
X5550D01*
X5155D01*
Y11432D01*
X5155Y11418D01*
Y11382D01*
X5155Y11368D01*
Y11170D01*
X5043D01*
Y11363D01*
X4213D01*
Y11170D01*
X4167D01*
X4108Y11158D01*
X4059Y11125D01*
X3989Y11055D01*
X3943Y11074D01*
Y11700D01*
X3932Y11755D01*
X3901Y11801D01*
X3901Y11801D01*
X3718Y11984D01*
X3672Y12015D01*
X3617Y12026D01*
X3587Y12061D01*
Y12229D01*
D02*
G37*
G36*
X-713Y12066D02*
X-770Y12009D01*
X-770Y12009D01*
X-772Y12001D01*
X-772Y11993D01*
X-771Y11986D01*
X-768Y11980D01*
X-763Y11974D01*
X-784Y11995D01*
X-1040Y11739D01*
X-796Y11495D01*
X-469Y11822D01*
X-713Y12066D01*
D02*
G37*
G36*
X5043Y12229D02*
X4678D01*
Y11933D01*
X4941D01*
Y11963D01*
X4942Y11955D01*
X4944Y11949D01*
X4948Y11943D01*
X4954Y11937D01*
X4961Y11933D01*
X5043D01*
Y12229D01*
D02*
G37*
G36*
X4578D02*
X4213D01*
Y11933D01*
X4578D01*
Y12229D01*
D02*
G37*
G36*
X5500Y12130D02*
X5155D01*
Y11824D01*
X5249D01*
X5244Y11829D01*
X5237Y11833D01*
X5228Y11837D01*
X5217Y11839D01*
X5205Y11841D01*
X5191Y11843D01*
X5176Y11843D01*
Y11923D01*
X5191Y11923D01*
X5205Y11925D01*
X5217Y11927D01*
X5228Y11929D01*
X5237Y11933D01*
X5244Y11937D01*
X5250Y11943D01*
X5254Y11949D01*
X5256Y11955D01*
X5257Y11963D01*
Y11824D01*
X5500D01*
Y12130D01*
D02*
G37*
G36*
X5043Y11833D02*
X4961D01*
D01*
X4954Y11829D01*
X4948Y11823D01*
X4944Y11817D01*
X4942Y11811D01*
X4941Y11803D01*
Y11833D01*
X4678D01*
Y11537D01*
X5043D01*
Y11833D01*
D02*
G37*
G36*
X4578D02*
X4213D01*
Y11537D01*
X4578D01*
Y11833D01*
D02*
G37*
G36*
X-1426Y11983D02*
X-1754Y11655D01*
X-1510Y11411D01*
X-1182Y11739D01*
X-1426Y11983D01*
D02*
G37*
G36*
X-1111Y11668D02*
X-1439Y11340D01*
X-1195Y11096D01*
X-867Y11424D01*
X-1111Y11668D01*
D02*
G37*
G36*
X3587Y11363D02*
X3222D01*
Y11067D01*
X3587D01*
Y11363D01*
D02*
G37*
G36*
X3122D02*
X2757D01*
Y11067D01*
X2839D01*
D01*
X2846Y11071D01*
X2852Y11077D01*
X2856Y11083D01*
X2858Y11089D01*
X2859Y11097D01*
Y11067D01*
X3122D01*
Y11363D01*
D02*
G37*
G36*
X2150Y11026D02*
X1906D01*
Y10996D01*
X1905Y11004D01*
X1903Y11010D01*
X1899Y11016D01*
X1893Y11022D01*
X1886Y11026D01*
X1805D01*
Y10720D01*
X2150D01*
Y11026D01*
D02*
G37*
G36*
X3122Y10967D02*
X2859D01*
Y10937D01*
X2858Y10945D01*
X2856Y10951D01*
X2852Y10957D01*
X2846Y10963D01*
X2839Y10967D01*
X2757D01*
Y10671D01*
X3122D01*
Y10753D01*
D01*
X3117Y10760D01*
X3112Y10766D01*
X3106Y10770D01*
X3099Y10772D01*
X3092Y10773D01*
X3122D01*
Y10967D01*
D02*
G37*
G36*
X2595Y11026D02*
X2574D01*
Y10977D01*
X2559Y10977D01*
X2545Y10975D01*
X2533Y10973D01*
X2522Y10971D01*
X2513Y10967D01*
X2506Y10963D01*
X2500Y10957D01*
X2496Y10951D01*
X2494Y10945D01*
X2493Y10937D01*
Y11026D01*
X2250D01*
Y10720D01*
X2595D01*
Y11026D01*
D02*
G37*
G36*
X3587Y10967D02*
X3222D01*
Y10773D01*
X3252D01*
X3244Y10772D01*
X3237Y10770D01*
X3231Y10766D01*
X3226Y10760D01*
X3222Y10753D01*
Y10671D01*
X3587D01*
Y10967D01*
D02*
G37*
G36*
X-321Y11674D02*
X-1047Y10948D01*
X-868Y10770D01*
X-1051Y10587D01*
X-1082Y10540D01*
X-1093Y10486D01*
X-1093Y10486D01*
Y10150D01*
X-1093Y10150D01*
X-1082Y10095D01*
X-1051Y10049D01*
X-574Y9572D01*
X-574Y9572D01*
X-528Y9541D01*
X-473Y9530D01*
X1023D01*
X1036Y9483D01*
X1101Y9370D01*
X1193Y9278D01*
X1305Y9213D01*
X1431Y9180D01*
X1561D01*
X1687Y9213D01*
X1799Y9278D01*
X1891Y9370D01*
X1956Y9483D01*
X1990Y9608D01*
Y9738D01*
X1956Y9864D01*
X1891Y9976D01*
X1799Y10068D01*
X1687Y10133D01*
X1561Y10167D01*
X1431D01*
X1305Y10133D01*
X1193Y10068D01*
X1101Y9976D01*
X1036Y9864D01*
X1023Y9816D01*
X-414D01*
X-807Y10209D01*
Y10427D01*
X-666Y10568D01*
X-488Y10389D01*
X238Y11115D01*
X-321Y11674D01*
D02*
G37*
G36*
X-3505Y9904D02*
X-4231Y9178D01*
X-3672Y8619D01*
X-2946Y9345D01*
X-3505Y9904D01*
D02*
G37*
G36*
X9850Y8849D02*
X9765Y8826D01*
X9685Y8780D01*
X9620Y8715D01*
X9574Y8635D01*
X9551Y8550D01*
X9553D01*
X9559Y8552D01*
X9579Y8562D01*
X9601Y8574D01*
X9623Y8589D01*
X9646Y8606D01*
X9695Y8649D01*
X9721Y8675D01*
Y8550D01*
X9850D01*
Y8849D01*
D02*
G37*
G36*
X5896Y10300D02*
X5804D01*
X5715Y10276D01*
X5635Y10230D01*
X5570Y10165D01*
X5524Y10085D01*
X5500Y9996D01*
Y9904D01*
X5524Y9815D01*
X5570Y9735D01*
X5635Y9670D01*
X5697Y9634D01*
Y8637D01*
X5587Y8527D01*
X3695D01*
Y8740D01*
X2905D01*
Y8527D01*
X2545D01*
Y8740D01*
X1755D01*
Y8527D01*
X1395D01*
Y8730D01*
X605D01*
Y8032D01*
X605Y8018D01*
Y7982D01*
X605Y7968D01*
Y7676D01*
X686D01*
D01*
X693Y7680D01*
X699Y7686D01*
X703Y7692D01*
X705Y7698D01*
X706Y7706D01*
Y7676D01*
X1000D01*
X1293D01*
Y7706D01*
X1294Y7698D01*
X1296Y7692D01*
X1300Y7686D01*
X1306Y7680D01*
X1313Y7676D01*
X1395D01*
Y7968D01*
X1395Y7982D01*
Y8018D01*
X1395Y8032D01*
Y8221D01*
X1755D01*
Y8042D01*
X1755Y8008D01*
X1755Y7958D01*
Y7676D01*
X1837D01*
X1844Y7680D01*
X1850Y7686D01*
X1854Y7692D01*
X1856Y7698D01*
X1857Y7706D01*
Y7676D01*
X2545D01*
Y7958D01*
X2545Y7992D01*
X2545Y8042D01*
Y8221D01*
X2905D01*
Y8042D01*
X2905Y8008D01*
X2905Y7958D01*
Y7260D01*
X3147D01*
Y6690D01*
X2905D01*
Y5992D01*
X2905Y5958D01*
X2905Y5908D01*
Y5210D01*
X2858Y5203D01*
X2592D01*
X2545Y5210D01*
Y5908D01*
X2545Y5942D01*
X2545Y5992D01*
Y6690D01*
X2303D01*
Y6774D01*
X2291Y6833D01*
X2258Y6882D01*
X2082Y7058D01*
X2033Y7091D01*
X1974Y7103D01*
X1226D01*
X1167Y7091D01*
X1118Y7058D01*
X942Y6882D01*
X909Y6833D01*
X897Y6774D01*
Y6690D01*
X655D01*
Y5992D01*
X655Y5958D01*
X655Y5908D01*
Y5210D01*
X897D01*
Y4640D01*
X655D01*
Y3942D01*
X655Y3908D01*
X655Y3858D01*
Y3550D01*
X-4100D01*
Y-372D01*
X-4140Y-402D01*
X-4144Y-401D01*
X-4248D01*
X-4349Y-428D01*
X-4439Y-480D01*
X-4513Y-554D01*
X-4565Y-644D01*
X-4592Y-744D01*
Y-848D01*
X-4565Y-949D01*
X-4513Y-1039D01*
X-4439Y-1113D01*
X-4349Y-1165D01*
X-4248Y-1192D01*
X-4144D01*
X-4140Y-1190D01*
X-4100Y-1221D01*
Y-4696D01*
X-4146Y-4715D01*
X-5407Y-3455D01*
Y-2549D01*
X-5368Y-2527D01*
X-5294Y-2453D01*
X-5242Y-2363D01*
X-5215Y-2263D01*
Y-2159D01*
X-5242Y-2058D01*
X-5294Y-1968D01*
X-5368Y-1894D01*
X-5458Y-1842D01*
X-5559Y-1815D01*
X-5663D01*
X-5763Y-1842D01*
X-5853Y-1894D01*
X-5927Y-1968D01*
X-5979Y-2058D01*
X-6006Y-2159D01*
Y-2263D01*
X-5979Y-2363D01*
X-5927Y-2453D01*
X-5853Y-2527D01*
X-5815Y-2549D01*
Y-3539D01*
X-5799Y-3617D01*
X-5755Y-3684D01*
X-4100Y-5338D01*
Y-6700D01*
X-4200Y-6800D01*
X-2636D01*
X-2578Y-6838D01*
X-2500Y-6854D01*
X-2500Y-6854D01*
X-1086D01*
X-1080Y-6865D01*
X-1015Y-6930D01*
X-935Y-6976D01*
X-846Y-7000D01*
X-754D01*
X-665Y-6976D01*
X-663Y-6975D01*
X3206Y-10844D01*
X3272Y-10888D01*
X3350Y-10904D01*
X3764D01*
X3770Y-10915D01*
X3835Y-10980D01*
X3915Y-11026D01*
X4004Y-11050D01*
X4096D01*
X4185Y-11026D01*
X4265Y-10980D01*
X4330Y-10915D01*
X4376Y-10835D01*
X4400Y-10746D01*
Y-10654D01*
X4376Y-10565D01*
X4330Y-10485D01*
X4265Y-10420D01*
X4185Y-10374D01*
X4096Y-10350D01*
X4004D01*
X3915Y-10374D01*
X3835Y-10420D01*
X3770Y-10485D01*
X3764Y-10496D01*
X3434D01*
X-331Y-6731D01*
X2659Y-3741D01*
X3144D01*
Y-3256D01*
X3410Y-2990D01*
X3456Y-3009D01*
Y-3741D01*
X4128D01*
X4147Y-3787D01*
X2902Y-5032D01*
X2802Y-5005D01*
X2698D01*
X2597Y-5032D01*
X2507Y-5084D01*
X2434Y-5157D01*
X2382Y-5247D01*
X2355Y-5348D01*
Y-5452D01*
X2382Y-5553D01*
X2434Y-5643D01*
X2507Y-5716D01*
X2597Y-5768D01*
X2698Y-5795D01*
X2802D01*
X2903Y-5768D01*
X2993Y-5716D01*
X3056Y-5653D01*
X4142D01*
Y-5718D01*
X4932D01*
Y-5282D01*
X4142D01*
Y-5347D01*
X3145D01*
X3118Y-5248D01*
X4508Y-3858D01*
X4541Y-3809D01*
X4553Y-3750D01*
Y-3200D01*
X4541Y-3141D01*
X4508Y-3092D01*
X4358Y-2942D01*
X4309Y-2909D01*
X4266Y-2900D01*
Y-2600D01*
X7782D01*
Y-3037D01*
X8218D01*
Y-2463D01*
X8203D01*
X8193Y-2450D01*
X8193Y-2450D01*
Y-2290D01*
X8945D01*
Y-1558D01*
X8945D01*
Y-1542D01*
X8945D01*
Y-810D01*
X8703D01*
Y650D01*
X8691Y709D01*
X8658Y758D01*
X8100Y1316D01*
Y3550D01*
X8095Y3555D01*
X8116Y3605D01*
X8240D01*
Y3847D01*
X9200D01*
X9259Y3859D01*
X9308Y3892D01*
X10158Y4742D01*
X10191Y4791D01*
X10203Y4850D01*
Y4873D01*
X10243Y4884D01*
X10357Y4950D01*
X10450Y5043D01*
X10516Y5157D01*
X10550Y5284D01*
Y5416D01*
X10516Y5543D01*
X10450Y5657D01*
X10357Y5750D01*
X10243Y5816D01*
X10116Y5850D01*
X9984D01*
X9857Y5816D01*
X9743Y5750D01*
X9650Y5657D01*
X9584Y5543D01*
X9550Y5416D01*
Y5284D01*
X9584Y5157D01*
X9650Y5043D01*
X9743Y4950D01*
X9819Y4906D01*
X9827Y4844D01*
X9137Y4153D01*
X8240D01*
Y4395D01*
X7542D01*
X7508Y4395D01*
X7458Y4395D01*
X6760D01*
Y4143D01*
X6009D01*
X5325Y4827D01*
X5339Y4883D01*
X5343Y4884D01*
X5457Y4950D01*
X5550Y5043D01*
X5616Y5157D01*
X5650Y5284D01*
Y5416D01*
X5616Y5543D01*
X5550Y5657D01*
X5457Y5750D01*
X5343Y5816D01*
X5216Y5850D01*
X5084D01*
X4957Y5816D01*
X4843Y5750D01*
X4750Y5657D01*
X4684Y5543D01*
X4650Y5416D01*
Y5284D01*
X4684Y5157D01*
X4750Y5043D01*
X4843Y4950D01*
X4957Y4884D01*
X5007Y4871D01*
Y4800D01*
X5007Y4800D01*
X5018Y4745D01*
X5049Y4699D01*
X5849Y3899D01*
X5849Y3899D01*
X5895Y3868D01*
X5950Y3857D01*
X5950Y3857D01*
X6760D01*
Y3605D01*
X7458D01*
X7492Y3605D01*
X7542Y3605D01*
X7929D01*
X7956Y3555D01*
X7953Y3550D01*
X3725D01*
X3695Y3622D01*
Y3858D01*
X3695Y3892D01*
X3695Y3942D01*
Y4640D01*
X3453D01*
Y4700D01*
X3441Y4759D01*
X3408Y4808D01*
X3308Y4908D01*
X3300Y4913D01*
X3294Y4978D01*
X3408Y5092D01*
X3441Y5141D01*
X3453Y5200D01*
Y5210D01*
X3695D01*
Y5908D01*
X3695Y5942D01*
X3695Y5992D01*
Y6690D01*
X3453D01*
Y7260D01*
X3695D01*
Y7958D01*
X3695Y7992D01*
X3695Y8042D01*
Y8221D01*
X5650D01*
X5709Y8233D01*
X5758Y8266D01*
X5958Y8466D01*
X5991Y8515D01*
X6003Y8574D01*
Y9634D01*
X6065Y9670D01*
X6130Y9735D01*
X6176Y9815D01*
X6200Y9904D01*
Y9996D01*
X6176Y10085D01*
X6130Y10165D01*
X6065Y10230D01*
X5985Y10276D01*
X5896Y10300D01*
D02*
G37*
G36*
X9850Y8450D02*
X9721D01*
Y8325D01*
X9695Y8351D01*
X9646Y8394D01*
X9623Y8411D01*
X9601Y8426D01*
X9579Y8438D01*
X9559Y8448D01*
X9553Y8450D01*
X9551D01*
X9574Y8365D01*
X9620Y8285D01*
X9685Y8220D01*
X9765Y8174D01*
X9850Y8151D01*
Y8450D01*
D02*
G37*
G36*
X10249D02*
X9950D01*
Y8151D01*
X10035Y8174D01*
X10115Y8220D01*
X10180Y8285D01*
X10226Y8365D01*
X10249Y8450D01*
D02*
G37*
G36*
X2100Y7576D02*
X1857D01*
Y7546D01*
X1856Y7554D01*
X1854Y7560D01*
X1850Y7566D01*
X1844Y7572D01*
X1837Y7576D01*
X1755D01*
Y7260D01*
X2100D01*
Y7576D01*
D02*
G37*
G36*
X1395D02*
X1313D01*
D01*
X1306Y7572D01*
X1300Y7566D01*
X1296Y7560D01*
X1294Y7554D01*
X1293Y7546D01*
Y7576D01*
X1050D01*
Y7270D01*
X1395D01*
Y7576D01*
D02*
G37*
G36*
X950D02*
X706D01*
Y7546D01*
X705Y7554D01*
X703Y7560D01*
X699Y7566D01*
X693Y7572D01*
X686Y7576D01*
X605D01*
Y7270D01*
X950D01*
Y7576D01*
D02*
G37*
G36*
X2545D02*
X2200D01*
Y7260D01*
X2545D01*
Y7576D01*
D02*
G37*
G36*
X-2798Y9197D02*
X-3524Y8471D01*
X-2965Y7912D01*
X-2239Y8638D01*
X-2418Y8816D01*
X-2352Y8882D01*
X-1734D01*
X-1257Y8405D01*
Y8221D01*
X-1305Y8208D01*
X-1417Y8143D01*
X-1509Y8051D01*
X-1574Y7939D01*
X-1608Y7813D01*
Y7683D01*
X-1574Y7557D01*
X-1509Y7445D01*
X-1417Y7353D01*
X-1305Y7288D01*
X-1179Y7254D01*
X-1049D01*
X-924Y7288D01*
X-811Y7353D01*
X-719Y7445D01*
X-654Y7557D01*
X-620Y7683D01*
Y7813D01*
X-654Y7939D01*
X-719Y8051D01*
X-811Y8143D01*
X-924Y8208D01*
X-971Y8221D01*
Y8464D01*
X-971Y8464D01*
X-982Y8519D01*
X-1013Y8565D01*
X-1013Y8565D01*
X-1574Y9126D01*
X-1620Y9157D01*
X-1675Y9168D01*
X-1675Y9168D01*
X-2411D01*
X-2411Y9168D01*
X-2465Y9157D01*
X-2512Y9126D01*
X-2512Y9126D01*
X-2620Y9018D01*
X-2798Y9197D01*
D02*
G37*
G36*
X9646Y7650D02*
X9554D01*
X9465Y7626D01*
X9385Y7580D01*
X9320Y7515D01*
X9274Y7435D01*
X9250Y7346D01*
Y7254D01*
X9261Y7213D01*
X9176Y7128D01*
X4901D01*
X4880Y7165D01*
X4815Y7230D01*
X4735Y7276D01*
X4646Y7300D01*
X4554D01*
X4465Y7276D01*
X4385Y7230D01*
X4320Y7165D01*
X4274Y7085D01*
X4250Y6996D01*
Y6904D01*
X4274Y6815D01*
X4320Y6735D01*
X4385Y6670D01*
X4465Y6624D01*
X4554Y6600D01*
X4646D01*
X4735Y6624D01*
X4815Y6670D01*
X4880Y6735D01*
X4901Y6772D01*
X9250D01*
X9318Y6785D01*
X9376Y6824D01*
X9513Y6961D01*
X9554Y6950D01*
X9646D01*
X9735Y6974D01*
X9815Y7020D01*
X9880Y7085D01*
X9926Y7165D01*
X9950Y7254D01*
Y7346D01*
X9926Y7435D01*
X9880Y7515D01*
X9815Y7580D01*
X9735Y7626D01*
X9646Y7650D01*
D02*
G37*
G36*
X-6200Y6549D02*
Y6250D01*
X-5901D01*
X-5924Y6335D01*
X-5970Y6415D01*
X-6035Y6480D01*
X-6115Y6526D01*
X-6200Y6549D01*
D02*
G37*
G36*
X-6300D02*
X-6385Y6526D01*
X-6465Y6480D01*
X-6530Y6415D01*
X-6576Y6335D01*
X-6599Y6250D01*
X-6300D01*
Y6549D01*
D02*
G37*
G36*
X-5901Y6150D02*
X-6200D01*
Y5851D01*
X-6115Y5874D01*
X-6035Y5920D01*
X-5970Y5985D01*
X-5924Y6065D01*
X-5901Y6150D01*
D02*
G37*
G36*
X-6300D02*
X-6599D01*
X-6576Y6065D01*
X-6530Y5985D01*
X-6465Y5920D01*
X-6385Y5874D01*
X-6300Y5851D01*
Y6150D01*
D02*
G37*
G36*
X150Y5399D02*
Y5397D01*
X152Y5391D01*
X162Y5371D01*
X174Y5349D01*
X189Y5327D01*
X206Y5304D01*
X249Y5255D01*
X275Y5229D01*
X150D01*
Y5100D01*
X449D01*
X426Y5185D01*
X380Y5265D01*
X315Y5330D01*
X235Y5376D01*
X150Y5399D01*
D02*
G37*
G36*
X50D02*
X-35Y5376D01*
X-115Y5330D01*
X-180Y5265D01*
X-226Y5185D01*
X-249Y5100D01*
X50D01*
Y5229D01*
X-75D01*
X-49Y5255D01*
X-6Y5304D01*
X11Y5327D01*
X26Y5349D01*
X38Y5371D01*
X48Y5391D01*
X50Y5397D01*
Y5399D01*
D02*
G37*
G36*
X-4504Y6950D02*
X-4596D01*
X-4685Y6926D01*
X-4765Y6880D01*
X-4830Y6815D01*
X-4876Y6735D01*
X-4900Y6646D01*
Y6554D01*
X-4876Y6465D01*
X-4830Y6385D01*
X-4765Y6320D01*
X-4685Y6274D01*
X-4596Y6250D01*
X-4504D01*
X-4474Y6258D01*
X-3781Y5565D01*
X-3800Y5496D01*
Y5404D01*
X-3776Y5315D01*
X-3730Y5235D01*
X-3665Y5170D01*
X-3585Y5124D01*
X-3496Y5100D01*
X-3404D01*
X-3315Y5124D01*
X-3235Y5170D01*
X-3170Y5235D01*
X-3124Y5315D01*
X-3100Y5404D01*
Y5496D01*
X-3124Y5585D01*
X-3170Y5665D01*
X-3235Y5730D01*
X-3315Y5776D01*
X-3404Y5800D01*
X-3496D01*
X-3565Y5781D01*
X-4233Y6449D01*
X-4224Y6465D01*
X-4200Y6554D01*
Y6646D01*
X-4224Y6735D01*
X-4270Y6815D01*
X-4335Y6880D01*
X-4415Y6926D01*
X-4504Y6950D01*
D02*
G37*
G36*
X-6850Y5199D02*
Y4900D01*
X-6551D01*
X-6574Y4985D01*
X-6620Y5065D01*
X-6685Y5130D01*
X-6765Y5176D01*
X-6850Y5199D01*
D02*
G37*
G36*
X-6950D02*
X-7035Y5176D01*
X-7115Y5130D01*
X-7180Y5065D01*
X-7226Y4985D01*
X-7249Y4900D01*
X-6950D01*
Y5199D01*
D02*
G37*
G36*
X7666Y5850D02*
X7534D01*
X7407Y5816D01*
X7293Y5750D01*
X7200Y5657D01*
X7134Y5543D01*
X7100Y5416D01*
Y5284D01*
X7134Y5157D01*
X7200Y5043D01*
X7293Y4950D01*
X7407Y4884D01*
X7534Y4850D01*
X7666D01*
X7793Y4884D01*
X7907Y4950D01*
X8000Y5043D01*
X8066Y5157D01*
X8100Y5284D01*
Y5416D01*
X8066Y5543D01*
X8000Y5657D01*
X7907Y5750D01*
X7793Y5816D01*
X7666Y5850D01*
D02*
G37*
G36*
X449Y5000D02*
X150D01*
Y4871D01*
X275D01*
X249Y4845D01*
X206Y4796D01*
X189Y4773D01*
X174Y4751D01*
X162Y4729D01*
X152Y4709D01*
X150Y4703D01*
Y4701D01*
X235Y4724D01*
X315Y4770D01*
X380Y4835D01*
X426Y4915D01*
X449Y5000D01*
D02*
G37*
G36*
X50D02*
X-249D01*
X-226Y4915D01*
X-180Y4835D01*
X-115Y4770D01*
X-35Y4724D01*
X50Y4701D01*
Y4703D01*
X48Y4709D01*
X38Y4729D01*
X26Y4751D01*
X11Y4773D01*
X-6Y4796D01*
X-49Y4845D01*
X-75Y4871D01*
X50D01*
Y5000D01*
D02*
G37*
G36*
X-454Y6650D02*
X-546D01*
X-635Y6626D01*
X-715Y6580D01*
X-780Y6515D01*
X-826Y6435D01*
X-850Y6346D01*
Y6254D01*
X-826Y6165D01*
X-813Y6142D01*
X-841Y6100D01*
X-853Y6041D01*
Y4813D01*
X-1135Y4531D01*
X-1204Y4550D01*
X-1296D01*
X-1385Y4526D01*
X-1465Y4480D01*
X-1530Y4415D01*
X-1576Y4335D01*
X-1600Y4246D01*
Y4154D01*
X-1576Y4065D01*
X-1530Y3985D01*
X-1465Y3920D01*
X-1385Y3874D01*
X-1296Y3850D01*
X-1204D01*
X-1115Y3874D01*
X-1035Y3920D01*
X-970Y3985D01*
X-924Y4065D01*
X-900Y4154D01*
Y4246D01*
X-919Y4315D01*
X-592Y4642D01*
X-559Y4691D01*
X-547Y4750D01*
Y5949D01*
X-546Y5950D01*
X-454D01*
X-365Y5974D01*
X-285Y6020D01*
X-220Y6085D01*
X-174Y6165D01*
X-150Y6254D01*
Y6346D01*
X-174Y6435D01*
X-220Y6515D01*
X-285Y6580D01*
X-365Y6626D01*
X-454Y6650D01*
D02*
G37*
G36*
X-6551Y4800D02*
X-6850D01*
Y4501D01*
X-6765Y4524D01*
X-6685Y4570D01*
X-6620Y4635D01*
X-6574Y4715D01*
X-6551Y4800D01*
D02*
G37*
G36*
X-6950D02*
X-7249D01*
X-7226Y4715D01*
X-7180Y4635D01*
X-7115Y4570D01*
X-7035Y4524D01*
X-6950Y4501D01*
Y4800D01*
D02*
G37*
G36*
X-8354Y4700D02*
X-8446D01*
X-8535Y4676D01*
X-8615Y4630D01*
X-8680Y4565D01*
X-8726Y4485D01*
X-8750Y4396D01*
Y4304D01*
X-8731Y4235D01*
X-9708Y3258D01*
X-9741Y3209D01*
X-9753Y3150D01*
Y2350D01*
X-9741Y2291D01*
X-9708Y2242D01*
X-8553Y1087D01*
Y-1387D01*
X-9476Y-2310D01*
X-9806Y-2119D01*
X-10231Y-2856D01*
X-9494Y-3281D01*
X-9069Y-2544D01*
X-9166Y-2489D01*
X-9173Y-2439D01*
X-8292Y-1558D01*
X-8259Y-1509D01*
X-8247Y-1450D01*
Y1150D01*
X-8259Y1209D01*
X-8292Y1258D01*
X-9447Y2413D01*
Y3087D01*
X-8515Y4019D01*
X-8446Y4000D01*
X-8354D01*
X-8265Y4024D01*
X-8185Y4070D01*
X-8120Y4135D01*
X-8074Y4215D01*
X-8050Y4304D01*
Y4396D01*
X-8074Y4485D01*
X-8120Y4565D01*
X-8185Y4630D01*
X-8265Y4676D01*
X-8354Y4700D01*
D02*
G37*
G36*
X-5500Y3749D02*
Y3450D01*
X-5201D01*
X-5224Y3535D01*
X-5270Y3615D01*
X-5335Y3680D01*
X-5415Y3726D01*
X-5500Y3749D01*
D02*
G37*
G36*
X-5600D02*
X-5685Y3726D01*
X-5765Y3680D01*
X-5830Y3615D01*
X-5876Y3535D01*
X-5899Y3450D01*
X-5600D01*
Y3749D01*
D02*
G37*
G36*
X-5348Y3350D02*
X-5500D01*
Y3198D01*
X-5348Y3350D01*
D02*
G37*
G36*
X-5201D02*
X-5299D01*
X-5296Y3296D01*
X-5292Y3267D01*
X-5286Y3241D01*
X-5280Y3217D01*
X-5272Y3196D01*
X-5268Y3188D01*
X-5224Y3265D01*
X-5201Y3350D01*
D02*
G37*
G36*
X-5500Y3149D02*
Y3051D01*
X-5415Y3074D01*
X-5338Y3118D01*
X-5346Y3122D01*
X-5367Y3130D01*
X-5391Y3136D01*
X-5417Y3142D01*
X-5446Y3146D01*
X-5500Y3149D01*
D02*
G37*
G36*
X-5600Y3350D02*
X-5899D01*
X-5876Y3265D01*
X-5830Y3185D01*
X-5765Y3120D01*
X-5685Y3074D01*
X-5600Y3051D01*
Y3350D01*
D02*
G37*
G36*
X-6204Y3050D02*
X-6296D01*
X-6385Y3026D01*
X-6465Y2980D01*
X-6530Y2915D01*
X-6576Y2835D01*
X-6600Y2746D01*
Y2654D01*
X-6581Y2585D01*
X-8008Y1158D01*
X-8041Y1109D01*
X-8053Y1050D01*
Y-2087D01*
X-9379Y-3413D01*
X-9751D01*
X-9754Y-3402D01*
X-9810Y-3305D01*
X-9889Y-3226D01*
X-9986Y-3170D01*
X-10094Y-3141D01*
X-10206Y-3141D01*
X-10314Y-3170D01*
X-10411Y-3226D01*
X-10490Y-3305D01*
X-10546Y-3402D01*
X-10575Y-3510D01*
X-10575Y-3622D01*
X-10546Y-3730D01*
X-10490Y-3827D01*
X-10411Y-3906D01*
X-10314Y-3962D01*
X-10206Y-3991D01*
X-10094Y-3991D01*
X-9986Y-3962D01*
X-9889Y-3906D01*
X-9810Y-3827D01*
X-9754Y-3730D01*
X-9751Y-3719D01*
X-9316D01*
X-9258Y-3707D01*
X-9208Y-3674D01*
X-7792Y-2258D01*
X-7759Y-2209D01*
X-7747Y-2150D01*
Y987D01*
X-6365Y2369D01*
X-6296Y2350D01*
X-6204D01*
X-6115Y2374D01*
X-6035Y2420D01*
X-5970Y2485D01*
X-5924Y2565D01*
X-5900Y2654D01*
Y2746D01*
X-5924Y2835D01*
X-5970Y2915D01*
X-6035Y2980D01*
X-6115Y3026D01*
X-6204Y3050D01*
D02*
G37*
G36*
X-12000Y-301D02*
Y-600D01*
X-11701D01*
X-11724Y-515D01*
X-11770Y-435D01*
X-11835Y-370D01*
X-11915Y-324D01*
X-12000Y-301D01*
D02*
G37*
G36*
X-12100D02*
X-12185Y-324D01*
X-12265Y-370D01*
X-12330Y-435D01*
X-12376Y-515D01*
X-12399Y-600D01*
X-12100D01*
Y-301D01*
D02*
G37*
G36*
X-9597Y150D02*
X-9703D01*
X-9804Y123D01*
X-9896Y70D01*
X-9970Y-4D01*
X-10023Y-96D01*
X-10050Y-197D01*
Y-303D01*
X-10023Y-404D01*
X-9970Y-496D01*
X-9896Y-570D01*
X-9804Y-623D01*
X-9703Y-650D01*
X-9597D01*
X-9496Y-623D01*
X-9404Y-570D01*
X-9330Y-496D01*
X-9277Y-404D01*
X-9250Y-303D01*
Y-197D01*
X-9277Y-96D01*
X-9330Y-4D01*
X-9404Y70D01*
X-9496Y123D01*
X-9597Y150D01*
D02*
G37*
G36*
X-11701Y-700D02*
X-12000D01*
Y-829D01*
X-11875D01*
X-11901Y-855D01*
X-11944Y-904D01*
X-11961Y-927D01*
X-11976Y-949D01*
X-11988Y-971D01*
X-11998Y-991D01*
X-12000Y-997D01*
Y-999D01*
X-11915Y-976D01*
X-11835Y-930D01*
X-11770Y-865D01*
X-11724Y-785D01*
X-11701Y-700D01*
D02*
G37*
G36*
X-12100D02*
X-12399D01*
X-12376Y-785D01*
X-12330Y-865D01*
X-12265Y-930D01*
X-12185Y-976D01*
X-12100Y-999D01*
Y-997D01*
X-12102Y-991D01*
X-12112Y-971D01*
X-12124Y-949D01*
X-12139Y-927D01*
X-12156Y-904D01*
X-12199Y-855D01*
X-12225Y-829D01*
X-12100D01*
Y-700D01*
D02*
G37*
G36*
X-6350Y-951D02*
Y-1049D01*
X-6296Y-1046D01*
X-6267Y-1041D01*
X-6241Y-1036D01*
X-6217Y-1030D01*
X-6196Y-1022D01*
X-6188Y-1018D01*
X-6265Y-974D01*
X-6350Y-951D01*
D02*
G37*
G36*
X-6118Y-1088D02*
X-6122Y-1096D01*
X-6130Y-1117D01*
X-6136Y-1141D01*
X-6141Y-1167D01*
X-6146Y-1196D01*
X-6149Y-1250D01*
X-6051D01*
X-6074Y-1165D01*
X-6118Y-1088D01*
D02*
G37*
G36*
X-6350Y-1098D02*
Y-1250D01*
X-6198D01*
X-6350Y-1098D01*
D02*
G37*
G36*
X-6450Y-951D02*
X-6535Y-974D01*
X-6615Y-1020D01*
X-6680Y-1085D01*
X-6726Y-1165D01*
X-6749Y-1250D01*
X-6450D01*
Y-951D01*
D02*
G37*
G36*
X-10304Y-557D02*
X-10410D01*
X-10511Y-584D01*
X-10603Y-637D01*
X-10677Y-711D01*
X-10730Y-803D01*
X-10757Y-904D01*
Y-1010D01*
X-10730Y-1111D01*
X-10677Y-1203D01*
X-10603Y-1277D01*
X-10511Y-1330D01*
X-10410Y-1357D01*
X-10304D01*
X-10203Y-1330D01*
X-10112Y-1277D01*
X-10037Y-1203D01*
X-9984Y-1111D01*
X-9957Y-1010D01*
Y-904D01*
X-9984Y-803D01*
X-10037Y-711D01*
X-10112Y-637D01*
X-10203Y-584D01*
X-10304Y-557D01*
D02*
G37*
G36*
X-6051Y-1350D02*
X-6350D01*
Y-1649D01*
X-6265Y-1626D01*
X-6185Y-1580D01*
X-6120Y-1515D01*
X-6074Y-1435D01*
X-6051Y-1350D01*
D02*
G37*
G36*
X-6450D02*
X-6749D01*
X-6726Y-1435D01*
X-6680Y-1515D01*
X-6615Y-1580D01*
X-6535Y-1626D01*
X-6450Y-1649D01*
Y-1350D01*
D02*
G37*
G36*
X-4852Y-1108D02*
X-4956D01*
X-5056Y-1135D01*
X-5146Y-1187D01*
X-5220Y-1261D01*
X-5272Y-1351D01*
X-5299Y-1452D01*
Y-1556D01*
X-5272Y-1656D01*
X-5220Y-1746D01*
X-5146Y-1820D01*
X-5056Y-1872D01*
X-4956Y-1899D01*
X-4852D01*
X-4751Y-1872D01*
X-4661Y-1820D01*
X-4587Y-1746D01*
X-4535Y-1656D01*
X-4508Y-1556D01*
Y-1452D01*
X-4535Y-1351D01*
X-4587Y-1261D01*
X-4661Y-1187D01*
X-4751Y-1135D01*
X-4852Y-1108D01*
D02*
G37*
G36*
X8966Y-2463D02*
X8798D01*
Y-2700D01*
X8966D01*
Y-2463D01*
D02*
G37*
G36*
X8698D02*
X8530D01*
Y-2700D01*
X8698D01*
Y-2463D01*
D02*
G37*
G36*
X8966Y-2800D02*
X8798D01*
Y-2935D01*
X8828D01*
X8820Y-2935D01*
X8814Y-2938D01*
X8808Y-2942D01*
X8802Y-2948D01*
X8798Y-2955D01*
Y-3037D01*
X8966D01*
Y-2800D01*
D02*
G37*
G36*
X8698D02*
X8530D01*
Y-3037D01*
X8698D01*
Y-2955D01*
X8698Y-2955D01*
X8694Y-2948D01*
X8688Y-2942D01*
X8682Y-2938D01*
X8676Y-2935D01*
X8668Y-2935D01*
X8698D01*
Y-2800D01*
D02*
G37*
G36*
X6058Y-3076D02*
X6050D01*
Y-3619D01*
X6592D01*
Y-3610D01*
X6569Y-3496D01*
X6525Y-3388D01*
X6460Y-3291D01*
X6377Y-3209D01*
X6280Y-3144D01*
X6173Y-3099D01*
X6058Y-3076D01*
D02*
G37*
G36*
X5950D02*
X5942D01*
X5827Y-3099D01*
X5720Y-3144D01*
X5623Y-3209D01*
X5540Y-3291D01*
X5475Y-3388D01*
X5431Y-3496D01*
X5408Y-3610D01*
Y-3619D01*
X5950D01*
Y-3076D01*
D02*
G37*
G36*
X6592Y-3719D02*
X6492D01*
X6492Y-3755D01*
X6505Y-3962D01*
X6507Y-3976D01*
X6525Y-3949D01*
X6569Y-3841D01*
X6592Y-3727D01*
Y-3719D01*
D02*
G37*
G36*
X6447D02*
X6050D01*
Y-4116D01*
X6447Y-3719D01*
D02*
G37*
G36*
X6050Y-4161D02*
Y-4261D01*
X6058D01*
X6173Y-4238D01*
X6280Y-4193D01*
X6307Y-4175D01*
X6293Y-4173D01*
X6162Y-4163D01*
X6050Y-4161D01*
D02*
G37*
G36*
X5950Y-3719D02*
X5408D01*
Y-3727D01*
X5431Y-3841D01*
X5475Y-3949D01*
X5540Y-4046D01*
X5623Y-4128D01*
X5720Y-4193D01*
X5827Y-4238D01*
X5942Y-4261D01*
X5950D01*
Y-3719D01*
D02*
G37*
G36*
X-10594Y-4007D02*
X-10706Y-4007D01*
X-10814Y-4036D01*
X-10911Y-4092D01*
X-10990Y-4171D01*
X-11046Y-4268D01*
X-11075Y-4376D01*
X-11075Y-4488D01*
X-11046Y-4596D01*
X-10990Y-4693D01*
X-10911Y-4772D01*
X-10814Y-4828D01*
X-10706Y-4857D01*
X-10594Y-4857D01*
X-10486Y-4828D01*
X-10389Y-4772D01*
X-10310Y-4693D01*
X-10254Y-4596D01*
X-10225Y-4488D01*
X-10225Y-4376D01*
X-10254Y-4268D01*
X-10310Y-4171D01*
X-10389Y-4092D01*
X-10486Y-4036D01*
X-10594Y-4007D01*
D02*
G37*
G36*
X10126Y-4655D02*
X9810D01*
Y-5000D01*
X9891D01*
D01*
X9899Y-4996D01*
X9904Y-4990D01*
X9908Y-4984D01*
X9911Y-4978D01*
X9911Y-4970D01*
Y-5000D01*
X10126D01*
Y-4655D01*
D02*
G37*
G36*
Y-5100D02*
X9911D01*
Y-5130D01*
X9911Y-5122D01*
X9908Y-5116D01*
X9904Y-5110D01*
X9899Y-5104D01*
X9891Y-5100D01*
X9810D01*
Y-5445D01*
X10126D01*
Y-5100D01*
D02*
G37*
G36*
X-11094Y-4873D02*
X-11206Y-4873D01*
X-11314Y-4902D01*
X-11397Y-4950D01*
X-11368Y-4957D01*
X-11333Y-4963D01*
X-11294Y-4968D01*
X-11204Y-4973D01*
X-11153Y-4973D01*
X-11321Y-5141D01*
X-11168Y-5230D01*
X-10981Y-4905D01*
X-10986Y-4902D01*
X-11094Y-4873D01*
D02*
G37*
G36*
X-10894Y-4955D02*
X-11082Y-5280D01*
X-10757Y-5467D01*
X-10754Y-5462D01*
X-10725Y-5354D01*
X-10725Y-5242D01*
X-10754Y-5134D01*
X-10810Y-5037D01*
X-10889Y-4958D01*
X-10894Y-4955D01*
D02*
G37*
G36*
X9297Y-5263D02*
X9070D01*
Y-5500D01*
X9195D01*
Y-5405D01*
X9196Y-5412D01*
X9198Y-5418D01*
X9202Y-5423D01*
X9207Y-5427D01*
X9214Y-5431D01*
X9222Y-5434D01*
X9232Y-5437D01*
X9243Y-5438D01*
X9256Y-5439D01*
X9270Y-5440D01*
Y-5500D01*
X9297D01*
Y-5263D01*
D02*
G37*
G36*
X8970D02*
X8743D01*
Y-5500D01*
X8970D01*
Y-5263D01*
D02*
G37*
G36*
X9297Y-5600D02*
X9215D01*
D01*
X9208Y-5604D01*
X9202Y-5610D01*
X9198Y-5616D01*
X9196Y-5622D01*
X9195Y-5630D01*
Y-5600D01*
X9070D01*
Y-5837D01*
X9297D01*
Y-5600D01*
D02*
G37*
G36*
X-11543Y-5129D02*
X-11546Y-5134D01*
X-11575Y-5242D01*
X-11575Y-5354D01*
X-11546Y-5462D01*
X-11490Y-5559D01*
X-11411Y-5638D01*
X-11406Y-5641D01*
X-11218Y-5316D01*
X-11395Y-5215D01*
X-11475Y-5295D01*
X-11475Y-5244D01*
X-11481Y-5165D01*
X-11543Y-5129D01*
D02*
G37*
G36*
X-11132Y-5366D02*
X-11319Y-5691D01*
X-11314Y-5694D01*
X-11206Y-5723D01*
X-11094Y-5723D01*
X-10986Y-5694D01*
X-10889Y-5638D01*
X-10810Y-5559D01*
X-10807Y-5554D01*
X-11132Y-5366D01*
D02*
G37*
G36*
X8970Y-5600D02*
X8743D01*
Y-5837D01*
X8970D01*
Y-5600D01*
D02*
G37*
G36*
X10353Y-5850D02*
X10350D01*
Y-6200D01*
X10700D01*
Y-6197D01*
X10673Y-6096D01*
X10620Y-6004D01*
X10546Y-5930D01*
X10454Y-5877D01*
X10353Y-5850D01*
D02*
G37*
G36*
X10250D02*
X10247D01*
X10146Y-5877D01*
X10054Y-5930D01*
X9980Y-6004D01*
X9927Y-6096D01*
X9900Y-6197D01*
Y-6200D01*
X10250D01*
Y-5850D01*
D02*
G37*
G36*
X10700Y-6300D02*
X10350D01*
Y-6650D01*
X10353D01*
X10454Y-6623D01*
X10546Y-6570D01*
X10620Y-6496D01*
X10673Y-6404D01*
X10700Y-6303D01*
Y-6300D01*
D02*
G37*
G36*
X10250D02*
X9900D01*
Y-6303D01*
X9927Y-6404D01*
X9980Y-6496D01*
X10054Y-6570D01*
X10146Y-6623D01*
X10247Y-6650D01*
X10250D01*
Y-6300D01*
D02*
G37*
G36*
X8350Y-4998D02*
X5650D01*
X5611Y-5006D01*
X5578Y-5028D01*
X5556Y-5061D01*
X5548Y-5100D01*
Y-7605D01*
X4870D01*
Y-7815D01*
X4857Y-7843D01*
X4804Y-7852D01*
X4680Y-7728D01*
Y-7218D01*
X4932D01*
Y-6782D01*
X4142D01*
Y-7218D01*
X4394D01*
Y-7787D01*
X4394Y-7787D01*
X4405Y-7842D01*
X4436Y-7888D01*
X4666Y-8118D01*
X4712Y-8149D01*
X4767Y-8160D01*
X4767Y-8160D01*
X4833D01*
X4833Y-8160D01*
X4870Y-8190D01*
Y-8395D01*
X5548D01*
Y-8655D01*
X4860D01*
Y-8907D01*
X4559D01*
X3993Y-8341D01*
Y-6709D01*
X4059Y-6643D01*
X4142D01*
Y-6718D01*
X4932D01*
Y-6282D01*
X4142D01*
Y-6357D01*
X4000D01*
X4000Y-6357D01*
X3945Y-6368D01*
X3899Y-6399D01*
X3749Y-6549D01*
X3718Y-6595D01*
X3707Y-6650D01*
X3707Y-6650D01*
Y-8400D01*
X3707Y-8400D01*
X3718Y-8455D01*
X3749Y-8501D01*
X4314Y-9066D01*
X4307Y-9100D01*
X4307Y-9100D01*
Y-9900D01*
X4307Y-9900D01*
X4318Y-9955D01*
X4349Y-10001D01*
X4549Y-10201D01*
X4549Y-10201D01*
X4595Y-10232D01*
X4650Y-10243D01*
X4650Y-10243D01*
X4860D01*
Y-10495D01*
X5592D01*
Y-10495D01*
X5608D01*
Y-10495D01*
X6340D01*
Y-10253D01*
X7150D01*
Y-10450D01*
X7950D01*
Y-10203D01*
X8350D01*
X8409Y-10191D01*
X8458Y-10158D01*
X8724Y-9893D01*
X8819Y-9987D01*
X9210Y-9595D01*
X8805Y-9190D01*
X8502Y-9492D01*
X8452Y-9471D01*
Y-5100D01*
X8444Y-5061D01*
X8422Y-5028D01*
X8389Y-5006D01*
X8350Y-4998D01*
D02*
G37*
G36*
X10558Y-4655D02*
X10508Y-4655D01*
X10226D01*
Y-5050D01*
Y-5445D01*
X10508D01*
X10542Y-5445D01*
X10592Y-5445D01*
X11290D01*
X11297Y-5492D01*
Y-5576D01*
Y-6487D01*
X10746Y-7038D01*
X10700Y-7018D01*
Y-6850D01*
X9900D01*
Y-7047D01*
X9366D01*
Y-6509D01*
X8556D01*
Y-7891D01*
X9366D01*
Y-7353D01*
X9900D01*
Y-7650D01*
X10147D01*
Y-8037D01*
X9776Y-8407D01*
X9682Y-8313D01*
X9290Y-8705D01*
X9695Y-9110D01*
X10087Y-8719D01*
X9993Y-8624D01*
X10408Y-8208D01*
X10441Y-8159D01*
X10453Y-8100D01*
Y-7650D01*
X10700D01*
Y-7403D01*
X10750D01*
X10809Y-7391D01*
X10858Y-7358D01*
X11558Y-6658D01*
X11591Y-6609D01*
X11603Y-6550D01*
Y-5576D01*
Y-5200D01*
X11591Y-5141D01*
X11558Y-5092D01*
X11408Y-4942D01*
X11359Y-4909D01*
X11300Y-4897D01*
X11290D01*
Y-4655D01*
X10592D01*
X10558Y-4655D01*
D02*
G37*
G36*
X2802Y-7005D02*
X2800D01*
Y-7350D01*
X3145D01*
Y-7348D01*
X3118Y-7247D01*
X3066Y-7157D01*
X2993Y-7084D01*
X2903Y-7032D01*
X2802Y-7005D01*
D02*
G37*
G36*
X-1450Y-7051D02*
Y-7350D01*
X-1151D01*
X-1174Y-7265D01*
X-1220Y-7185D01*
X-1285Y-7120D01*
X-1365Y-7074D01*
X-1450Y-7051D01*
D02*
G37*
G36*
X-1550D02*
X-1635Y-7074D01*
X-1715Y-7120D01*
X-1780Y-7185D01*
X-1826Y-7265D01*
X-1849Y-7350D01*
X-1550D01*
Y-7051D01*
D02*
G37*
G36*
X2700Y-7005D02*
X2698D01*
X2597Y-7032D01*
X2507Y-7084D01*
X2434Y-7157D01*
X2382Y-7247D01*
X2355Y-7348D01*
Y-7350D01*
X2700D01*
Y-7005D01*
D02*
G37*
G36*
X-1151Y-7450D02*
X-1450D01*
Y-7579D01*
X-1325D01*
X-1351Y-7605D01*
X-1394Y-7654D01*
X-1411Y-7677D01*
X-1426Y-7699D01*
X-1438Y-7721D01*
X-1448Y-7741D01*
X-1450Y-7747D01*
Y-7749D01*
X-1365Y-7726D01*
X-1285Y-7680D01*
X-1220Y-7615D01*
X-1174Y-7535D01*
X-1151Y-7450D01*
D02*
G37*
G36*
X-1550D02*
X-1849D01*
X-1826Y-7535D01*
X-1780Y-7615D01*
X-1715Y-7680D01*
X-1635Y-7726D01*
X-1550Y-7749D01*
Y-7747D01*
X-1552Y-7741D01*
X-1562Y-7721D01*
X-1574Y-7699D01*
X-1589Y-7677D01*
X-1606Y-7654D01*
X-1649Y-7605D01*
X-1675Y-7579D01*
X-1550D01*
Y-7450D01*
D02*
G37*
G36*
X3145D02*
X2800D01*
Y-7795D01*
X2802D01*
X2903Y-7768D01*
X2993Y-7716D01*
X3066Y-7643D01*
X3118Y-7553D01*
X3145Y-7452D01*
Y-7450D01*
D02*
G37*
G36*
X2700D02*
X2355D01*
Y-7452D01*
X2382Y-7553D01*
X2434Y-7643D01*
X2507Y-7716D01*
X2597Y-7768D01*
X2698Y-7795D01*
X2700D01*
Y-7450D01*
D02*
G37*
G36*
X-5150Y-8101D02*
Y-8400D01*
X-4851D01*
X-4874Y-8315D01*
X-4920Y-8235D01*
X-4985Y-8170D01*
X-5065Y-8124D01*
X-5150Y-8101D01*
D02*
G37*
G36*
X-5250D02*
X-5335Y-8124D01*
X-5415Y-8170D01*
X-5480Y-8235D01*
X-5526Y-8315D01*
X-5549Y-8400D01*
X-5250D01*
Y-8101D01*
D02*
G37*
G36*
X-4998Y-8500D02*
X-5150D01*
Y-8652D01*
X-4998Y-8500D01*
D02*
G37*
G36*
X-4851D02*
X-4949D01*
X-4946Y-8554D01*
X-4942Y-8583D01*
X-4936Y-8609D01*
X-4930Y-8633D01*
X-4922Y-8654D01*
X-4918Y-8662D01*
X-4874Y-8585D01*
X-4851Y-8500D01*
D02*
G37*
G36*
X-5150Y-8701D02*
Y-8799D01*
X-5065Y-8776D01*
X-4988Y-8732D01*
X-4996Y-8728D01*
X-5017Y-8720D01*
X-5041Y-8714D01*
X-5067Y-8709D01*
X-5096Y-8704D01*
X-5150Y-8701D01*
D02*
G37*
G36*
X-5250Y-8500D02*
X-5549D01*
X-5526Y-8585D01*
X-5480Y-8665D01*
X-5415Y-8730D01*
X-5335Y-8776D01*
X-5250Y-8799D01*
Y-8500D01*
D02*
G37*
G36*
X-2000Y-9601D02*
Y-9699D01*
X-1946Y-9696D01*
X-1917Y-9692D01*
X-1891Y-9686D01*
X-1867Y-9680D01*
X-1846Y-9672D01*
X-1838Y-9668D01*
X-1915Y-9624D01*
X-2000Y-9601D01*
D02*
G37*
G36*
X-250D02*
Y-9900D01*
X49D01*
X26Y-9815D01*
X-20Y-9735D01*
X-85Y-9670D01*
X-165Y-9624D01*
X-250Y-9601D01*
D02*
G37*
G36*
X-350D02*
X-435Y-9624D01*
X-515Y-9670D01*
X-580Y-9735D01*
X-626Y-9815D01*
X-649Y-9900D01*
X-350D01*
Y-9601D01*
D02*
G37*
G36*
X-1100D02*
Y-9900D01*
X-801D01*
X-824Y-9815D01*
X-870Y-9735D01*
X-935Y-9670D01*
X-1015Y-9624D01*
X-1100Y-9601D01*
D02*
G37*
G36*
X-1200D02*
X-1285Y-9624D01*
X-1365Y-9670D01*
X-1430Y-9735D01*
X-1476Y-9815D01*
X-1499Y-9900D01*
X-1200D01*
Y-9601D01*
D02*
G37*
G36*
X-1768Y-9738D02*
X-1772Y-9746D01*
X-1780Y-9767D01*
X-1786Y-9791D01*
X-1792Y-9817D01*
X-1796Y-9846D01*
X-1799Y-9900D01*
X-1701D01*
X-1724Y-9815D01*
X-1768Y-9738D01*
D02*
G37*
G36*
X-2000Y-9748D02*
Y-9900D01*
X-1848D01*
X-2000Y-9748D01*
D02*
G37*
G36*
X-2100Y-9601D02*
X-2185Y-9624D01*
X-2265Y-9670D01*
X-2330Y-9735D01*
X-2376Y-9815D01*
X-2399Y-9900D01*
X-2397D01*
X-2391Y-9898D01*
X-2371Y-9888D01*
X-2349Y-9876D01*
X-2327Y-9861D01*
X-2304Y-9844D01*
X-2255Y-9801D01*
X-2229Y-9775D01*
Y-9900D01*
X-2100D01*
Y-9601D01*
D02*
G37*
G36*
Y-10000D02*
X-2229D01*
Y-10125D01*
X-2255Y-10099D01*
X-2304Y-10056D01*
X-2327Y-10039D01*
X-2349Y-10024D01*
X-2371Y-10012D01*
X-2391Y-10002D01*
X-2397Y-10000D01*
X-2399D01*
X-2376Y-10085D01*
X-2330Y-10165D01*
X-2265Y-10230D01*
X-2185Y-10276D01*
X-2100Y-10299D01*
Y-10000D01*
D02*
G37*
G36*
X49D02*
X-250D01*
Y-10299D01*
X-165Y-10276D01*
X-85Y-10230D01*
X-20Y-10165D01*
X26Y-10085D01*
X49Y-10000D01*
D02*
G37*
G36*
X-350D02*
X-649D01*
X-626Y-10085D01*
X-580Y-10165D01*
X-515Y-10230D01*
X-435Y-10276D01*
X-350Y-10299D01*
Y-10000D01*
D02*
G37*
G36*
X-801D02*
X-1100D01*
Y-10299D01*
X-1015Y-10276D01*
X-935Y-10230D01*
X-870Y-10165D01*
X-824Y-10085D01*
X-801Y-10000D01*
D02*
G37*
G36*
X-1200D02*
X-1499D01*
X-1476Y-10085D01*
X-1430Y-10165D01*
X-1365Y-10230D01*
X-1285Y-10276D01*
X-1200Y-10299D01*
Y-10000D01*
D02*
G37*
G36*
X-1701D02*
X-2000D01*
Y-10299D01*
X-1915Y-10276D01*
X-1835Y-10230D01*
X-1770Y-10165D01*
X-1724Y-10085D01*
X-1701Y-10000D01*
D02*
G37*
G36*
X-6654Y-9150D02*
X-6746D01*
X-6835Y-9174D01*
X-6915Y-9220D01*
X-6980Y-9285D01*
X-7026Y-9365D01*
X-7050Y-9454D01*
Y-9546D01*
X-7026Y-9635D01*
X-6980Y-9715D01*
X-6915Y-9780D01*
X-6835Y-9826D01*
X-6746Y-9850D01*
X-6654D01*
X-6585Y-9831D01*
X-4408Y-12008D01*
X-4359Y-12041D01*
X-4300Y-12053D01*
X4700D01*
X4759Y-12041D01*
X4808Y-12008D01*
X4835Y-11981D01*
X4904Y-12000D01*
X4996D01*
X5085Y-11976D01*
X5165Y-11930D01*
X5230Y-11865D01*
X5276Y-11785D01*
X5300Y-11696D01*
Y-11604D01*
X5276Y-11515D01*
X5230Y-11435D01*
X5165Y-11370D01*
X5085Y-11324D01*
X4996Y-11300D01*
X4904D01*
X4815Y-11324D01*
X4735Y-11370D01*
X4670Y-11435D01*
X4624Y-11515D01*
X4600Y-11604D01*
Y-11696D01*
X4603Y-11707D01*
X4573Y-11747D01*
X-4237D01*
X-6369Y-9615D01*
X-6350Y-9546D01*
Y-9454D01*
X-6374Y-9365D01*
X-6420Y-9285D01*
X-6485Y-9220D01*
X-6565Y-9174D01*
X-6654Y-9150D01*
D02*
G37*
%LPD*%
G36*
X3485Y11955D02*
X3487Y11949D01*
X3492Y11943D01*
X3497Y11937D01*
X3505Y11933D01*
X3513Y11929D01*
X3524Y11927D01*
X3536Y11925D01*
X3550Y11923D01*
X3565Y11923D01*
Y11843D01*
X3550Y11843D01*
X3536Y11841D01*
X3524Y11839D01*
X3513Y11837D01*
X3505Y11833D01*
X3497Y11829D01*
X3492Y11823D01*
X3487Y11817D01*
X3485Y11811D01*
X3484Y11803D01*
Y11963D01*
X3485Y11955D01*
D02*
G37*
G36*
X2859Y11803D02*
X2858Y11811D01*
X2856Y11817D01*
X2852Y11823D01*
X2846Y11829D01*
X2839Y11833D01*
X2830Y11837D01*
X2819Y11839D01*
X2807Y11841D01*
X2793Y11843D01*
X2778Y11843D01*
Y11923D01*
X2793Y11923D01*
X2807Y11925D01*
X2819Y11927D01*
X2830Y11929D01*
X2839Y11933D01*
X2846Y11937D01*
X2852Y11943D01*
X2856Y11949D01*
X2858Y11955D01*
X2859Y11963D01*
Y11803D01*
D02*
G37*
G36*
X2494Y11955D02*
X2496Y11949D01*
X2500Y11943D01*
X2506Y11937D01*
X2513Y11933D01*
X2522Y11929D01*
X2533Y11927D01*
X2545Y11925D01*
X2559Y11923D01*
X2574Y11923D01*
Y11843D01*
X2559Y11843D01*
X2545Y11841D01*
X2533Y11839D01*
X2522Y11837D01*
X2513Y11833D01*
X2506Y11829D01*
X2500Y11823D01*
X2496Y11817D01*
X2494Y11811D01*
X2493Y11803D01*
Y11963D01*
X2494Y11955D01*
D02*
G37*
G36*
X5257Y10917D02*
X5256Y10926D01*
X5253Y10935D01*
X5248Y10942D01*
X5241Y10949D01*
X5232Y10954D01*
X5221Y10959D01*
X5208Y10962D01*
X5192Y10965D01*
X5175Y10966D01*
X5156Y10967D01*
Y11067D01*
X5175Y11067D01*
X5192Y11069D01*
X5208Y11071D01*
X5221Y11075D01*
X5232Y11079D01*
X5241Y11085D01*
X5248Y11091D01*
X5253Y11099D01*
X5256Y11107D01*
X5257Y11117D01*
Y10917D01*
D02*
G37*
G36*
X4942Y11107D02*
X4945Y11099D01*
X4950Y11091D01*
X4957Y11085D01*
X4966Y11079D01*
X4977Y11075D01*
X4990Y11071D01*
X5006Y11069D01*
X5023Y11067D01*
X5042Y11067D01*
Y10967D01*
X5023Y10966D01*
X5006Y10965D01*
X4990Y10962D01*
X4977Y10959D01*
X4966Y10954D01*
X4957Y10949D01*
X4950Y10942D01*
X4945Y10935D01*
X4942Y10926D01*
X4941Y10917D01*
Y11117D01*
X4942Y11107D01*
D02*
G37*
G36*
X4316Y10917D02*
X4315Y10926D01*
X4312Y10935D01*
X4307Y10942D01*
X4300Y10949D01*
X4290Y10954D01*
X4279Y10959D01*
X4266Y10962D01*
X4251Y10965D01*
X4234Y10966D01*
X4215Y10967D01*
Y11067D01*
X4234Y11067D01*
X4251Y11069D01*
X4266Y11071D01*
X4279Y11075D01*
X4290Y11079D01*
X4300Y11085D01*
X4307Y11091D01*
X4312Y11099D01*
X4315Y11107D01*
X4316Y11117D01*
Y10917D01*
D02*
G37*
G36*
X3828Y10179D02*
X3816Y10165D01*
X3806Y10151D01*
X3798Y10137D01*
X3791Y10122D01*
X3787Y10106D01*
X3784Y10090D01*
X3783Y10073D01*
X3784Y10055D01*
X3786Y10037D01*
X3791Y10018D01*
X3608Y10193D01*
X3628Y10189D01*
X3646Y10187D01*
X3664Y10187D01*
X3681Y10189D01*
X3698Y10192D01*
X3714Y10197D01*
X3729Y10204D01*
X3744Y10213D01*
X3758Y10223D01*
X3772Y10235D01*
X3828Y10179D01*
D02*
G37*
G36*
X-638Y10685D02*
X-644Y10689D01*
X-651Y10692D01*
X-658Y10694D01*
X-665Y10693D01*
X-674Y10691D01*
X-683Y10688D01*
X-692Y10682D01*
X-702Y10675D01*
X-713Y10666D01*
X-724Y10655D01*
X-780Y10712D01*
X-770Y10723D01*
X-761Y10734D01*
X-754Y10744D01*
X-748Y10753D01*
X-744Y10762D01*
X-742Y10770D01*
X-742Y10778D01*
X-743Y10785D01*
X-746Y10792D01*
X-751Y10798D01*
X-638Y10685D01*
D02*
G37*
G36*
X3594Y8465D02*
X3597Y8456D01*
X3602Y8449D01*
X3609Y8442D01*
X3618Y8437D01*
X3629Y8432D01*
X3642Y8429D01*
X3658Y8426D01*
X3675Y8425D01*
X3694Y8424D01*
Y8324D01*
X3675Y8324D01*
X3658Y8322D01*
X3642Y8320D01*
X3629Y8316D01*
X3618Y8312D01*
X3609Y8306D01*
X3602Y8300D01*
X3597Y8292D01*
X3594Y8284D01*
X3593Y8274D01*
Y8474D01*
X3594Y8465D01*
D02*
G37*
G36*
X1857Y8274D02*
X1856Y8284D01*
X1853Y8292D01*
X1848Y8300D01*
X1841Y8306D01*
X1832Y8312D01*
X1821Y8316D01*
X1808Y8320D01*
X1792Y8322D01*
X1775Y8324D01*
X1756Y8324D01*
Y8424D01*
X1775Y8425D01*
X1792Y8426D01*
X1808Y8429D01*
X1821Y8432D01*
X1832Y8437D01*
X1841Y8442D01*
X1848Y8449D01*
X1853Y8456D01*
X1856Y8465D01*
X1857Y8474D01*
Y8274D01*
D02*
G37*
G36*
X1294Y8465D02*
X1297Y8456D01*
X1302Y8449D01*
X1309Y8442D01*
X1318Y8437D01*
X1329Y8432D01*
X1342Y8429D01*
X1358Y8426D01*
X1375Y8425D01*
X1394Y8424D01*
Y8324D01*
X1375Y8324D01*
X1358Y8322D01*
X1342Y8320D01*
X1329Y8316D01*
X1318Y8312D01*
X1309Y8306D01*
X1302Y8300D01*
X1297Y8292D01*
X1294Y8284D01*
X1293Y8274D01*
Y8474D01*
X1294Y8465D01*
D02*
G37*
G36*
X3007Y8274D02*
X3006Y8284D01*
X3003Y8292D01*
X2998Y8300D01*
X2991Y8306D01*
X2982Y8312D01*
X2971Y8316D01*
X2958Y8320D01*
X2942Y8322D01*
X2925Y8324D01*
X2906Y8324D01*
Y8424D01*
X2925Y8425D01*
X2942Y8426D01*
X2958Y8429D01*
X2971Y8432D01*
X2982Y8437D01*
X2991Y8442D01*
X2998Y8449D01*
X3003Y8456D01*
X3006Y8465D01*
X3007Y8474D01*
Y8274D01*
D02*
G37*
G36*
X2444Y8465D02*
X2447Y8456D01*
X2452Y8449D01*
X2459Y8442D01*
X2468Y8437D01*
X2479Y8432D01*
X2492Y8429D01*
X2508Y8426D01*
X2525Y8425D01*
X2544Y8424D01*
Y8324D01*
X2525Y8324D01*
X2508Y8322D01*
X2492Y8320D01*
X2479Y8316D01*
X2468Y8312D01*
X2459Y8306D01*
X2452Y8300D01*
X2447Y8292D01*
X2444Y8284D01*
X2443Y8274D01*
Y8474D01*
X2444Y8465D01*
D02*
G37*
G36*
X3390Y7362D02*
X3382Y7359D01*
X3374Y7354D01*
X3368Y7346D01*
X3363Y7337D01*
X3358Y7326D01*
X3354Y7313D01*
X3352Y7298D01*
X3350Y7281D01*
X3350Y7261D01*
X3250D01*
X3250Y7281D01*
X3248Y7298D01*
X3246Y7313D01*
X3242Y7326D01*
X3237Y7337D01*
X3232Y7346D01*
X3225Y7354D01*
X3218Y7359D01*
X3210Y7362D01*
X3200Y7363D01*
X3400D01*
X3390Y7362D01*
D02*
G37*
G36*
X3350Y6670D02*
X3352Y6653D01*
X3354Y6638D01*
X3358Y6625D01*
X3363Y6614D01*
X3368Y6605D01*
X3374Y6598D01*
X3382Y6593D01*
X3390Y6590D01*
X3400Y6589D01*
X3200D01*
X3210Y6590D01*
X3218Y6593D01*
X3225Y6598D01*
X3232Y6605D01*
X3237Y6614D01*
X3242Y6625D01*
X3246Y6638D01*
X3248Y6653D01*
X3250Y6670D01*
X3250Y6689D01*
X3350D01*
X3350Y6670D01*
D02*
G37*
G36*
X2201D02*
X2202Y6653D01*
X2204Y6638D01*
X2208Y6625D01*
X2212Y6614D01*
X2218Y6605D01*
X2225Y6598D01*
X2232Y6593D01*
X2241Y6590D01*
X2250Y6589D01*
X2050D01*
X2060Y6590D01*
X2068Y6593D01*
X2076Y6598D01*
X2082Y6605D01*
X2087Y6614D01*
X2092Y6625D01*
X2095Y6638D01*
X2098Y6653D01*
X2100Y6670D01*
X2100Y6689D01*
X2200D01*
X2201Y6670D01*
D02*
G37*
G36*
X1101D02*
X1102Y6653D01*
X1104Y6638D01*
X1108Y6625D01*
X1112Y6614D01*
X1118Y6605D01*
X1125Y6598D01*
X1132Y6593D01*
X1141Y6590D01*
X1150Y6589D01*
X950D01*
X959Y6590D01*
X968Y6593D01*
X975Y6598D01*
X982Y6605D01*
X988Y6614D01*
X992Y6625D01*
X996Y6638D01*
X998Y6653D01*
X1000Y6670D01*
X1000Y6689D01*
X1100D01*
X1101Y6670D01*
D02*
G37*
G36*
X2266Y5312D02*
X2258Y5309D01*
X2252Y5304D01*
X2247Y5298D01*
X2242Y5289D01*
X2238Y5279D01*
X2235Y5267D01*
X2233Y5253D01*
X2232Y5237D01*
X2231Y5219D01*
X2131D01*
X2131Y5237D01*
X2129Y5253D01*
X2127Y5267D01*
X2124Y5279D01*
X2121Y5289D01*
X2116Y5298D01*
X2110Y5304D01*
X2104Y5309D01*
X2097Y5312D01*
X2089Y5313D01*
X2274D01*
X2266Y5312D01*
D02*
G37*
G36*
X3390Y5312D02*
X3382Y5309D01*
X3374Y5304D01*
X3368Y5296D01*
X3363Y5287D01*
X3358Y5276D01*
X3354Y5263D01*
X3352Y5248D01*
X3350Y5231D01*
X3350Y5211D01*
X3250D01*
X3250Y5231D01*
X3248Y5248D01*
X3246Y5263D01*
X3242Y5276D01*
X3237Y5287D01*
X3232Y5296D01*
X3225Y5304D01*
X3218Y5309D01*
X3210Y5312D01*
X3200Y5313D01*
X3400D01*
X3390Y5312D01*
D02*
G37*
G36*
X1141D02*
X1132Y5309D01*
X1125Y5304D01*
X1118Y5296D01*
X1112Y5287D01*
X1108Y5276D01*
X1104Y5263D01*
X1102Y5248D01*
X1101Y5231D01*
X1100Y5211D01*
X1000D01*
X1000Y5231D01*
X998Y5248D01*
X996Y5263D01*
X992Y5276D01*
X988Y5287D01*
X982Y5296D01*
X975Y5304D01*
X968Y5309D01*
X959Y5312D01*
X950Y5313D01*
X1150D01*
X1141Y5312D01*
D02*
G37*
G36*
X10154Y4963D02*
X10143Y4956D01*
X10133Y4948D01*
X10124Y4939D01*
X10117Y4928D01*
X10111Y4915D01*
X10106Y4901D01*
X10103Y4886D01*
X10101Y4869D01*
X10100Y4850D01*
X10000D01*
X9999Y4869D01*
X9997Y4886D01*
X9994Y4901D01*
X9989Y4915D01*
X9983Y4928D01*
X9976Y4939D01*
X9967Y4948D01*
X9957Y4956D01*
X9946Y4963D01*
X9933Y4967D01*
X10167D01*
X10154Y4963D01*
D02*
G37*
G36*
X3350Y4619D02*
X3352Y4602D01*
X3354Y4587D01*
X3358Y4574D01*
X3363Y4563D01*
X3368Y4554D01*
X3374Y4546D01*
X3382Y4541D01*
X3390Y4538D01*
X3400Y4537D01*
X3200D01*
X3210Y4538D01*
X3218Y4541D01*
X3225Y4546D01*
X3232Y4554D01*
X3237Y4563D01*
X3242Y4574D01*
X3246Y4587D01*
X3248Y4602D01*
X3250Y4619D01*
X3250Y4639D01*
X3350D01*
X3350Y4619D01*
D02*
G37*
G36*
X2201D02*
X2202Y4602D01*
X2204Y4587D01*
X2208Y4574D01*
X2212Y4563D01*
X2218Y4554D01*
X2225Y4546D01*
X2232Y4541D01*
X2241Y4538D01*
X2250Y4537D01*
X2050D01*
X2060Y4538D01*
X2068Y4541D01*
X2076Y4546D01*
X2082Y4554D01*
X2087Y4563D01*
X2092Y4574D01*
X2095Y4587D01*
X2098Y4602D01*
X2100Y4619D01*
X2100Y4639D01*
X2200D01*
X2201Y4619D01*
D02*
G37*
G36*
X1101D02*
X1102Y4602D01*
X1104Y4587D01*
X1108Y4574D01*
X1112Y4563D01*
X1118Y4554D01*
X1125Y4546D01*
X1132Y4541D01*
X1141Y4538D01*
X1150Y4537D01*
X950D01*
X959Y4538D01*
X968Y4541D01*
X975Y4546D01*
X982Y4554D01*
X988Y4563D01*
X992Y4574D01*
X996Y4587D01*
X998Y4602D01*
X1000Y4619D01*
X1000Y4639D01*
X1100D01*
X1101Y4619D01*
D02*
G37*
G36*
X6861Y3920D02*
X6861Y3928D01*
X6858Y3934D01*
X6854Y3940D01*
X6849Y3946D01*
X6841Y3950D01*
X6833Y3954D01*
X6822Y3956D01*
X6810Y3958D01*
X6797Y3960D01*
X6781Y3960D01*
Y4040D01*
X6797Y4040D01*
X6810Y4042D01*
X6822Y4044D01*
X6833Y4046D01*
X6841Y4050D01*
X6849Y4054D01*
X6854Y4060D01*
X6858Y4066D01*
X6861Y4072D01*
X6861Y4080D01*
Y3920D01*
D02*
G37*
G36*
X8138Y4090D02*
X8141Y4082D01*
X8146Y4074D01*
X8154Y4068D01*
X8163Y4062D01*
X8174Y4058D01*
X8187Y4054D01*
X8202Y4052D01*
X8219Y4051D01*
X8239Y4050D01*
Y3950D01*
X8219Y3950D01*
X8202Y3948D01*
X8187Y3945D01*
X8174Y3942D01*
X8163Y3938D01*
X8154Y3932D01*
X8146Y3925D01*
X8141Y3918D01*
X8138Y3909D01*
X8137Y3900D01*
Y4100D01*
X8138Y4090D01*
D02*
G37*
G36*
X2905Y4640D02*
Y3942D01*
X2905Y3908D01*
X2905Y3858D01*
Y3622D01*
X2875Y3550D01*
X2545D01*
Y3858D01*
X2545Y3892D01*
X2545Y3942D01*
Y4640D01*
X2592Y4647D01*
X2858D01*
X2905Y4640D01*
D02*
G37*
G36*
X1968Y6740D02*
X1947Y6690D01*
X1755D01*
Y5992D01*
X1755Y5958D01*
X1755Y5908D01*
Y5210D01*
X2030D01*
X2040Y5160D01*
X2073Y5111D01*
X2185Y4999D01*
X2168Y4945D01*
X2150Y4941D01*
X2100Y4908D01*
X2042Y4850D01*
X2009Y4800D01*
X1997Y4741D01*
Y4640D01*
X1755D01*
Y3942D01*
X1755Y3908D01*
X1755Y3858D01*
Y3550D01*
X1445D01*
Y3858D01*
X1445Y3892D01*
X1445Y3942D01*
Y4640D01*
X1203D01*
Y5210D01*
X1445D01*
Y5908D01*
X1445Y5942D01*
X1445Y5992D01*
Y6690D01*
X1252D01*
X1232Y6740D01*
X1289Y6797D01*
X1911D01*
X1968Y6740D01*
D02*
G37*
G36*
X2241Y3260D02*
X2232Y3257D01*
X2225Y3252D01*
X2218Y3245D01*
X2212Y3236D01*
X2208Y3225D01*
X2204Y3212D01*
X2202Y3197D01*
X2201Y3180D01*
X2200Y3161D01*
X2100D01*
X2100Y3180D01*
X2098Y3197D01*
X2095Y3212D01*
X2092Y3225D01*
X2087Y3236D01*
X2082Y3245D01*
X2076Y3252D01*
X2068Y3257D01*
X2060Y3260D01*
X2050Y3261D01*
X2250D01*
X2241Y3260D01*
D02*
G37*
G36*
X1141D02*
X1132Y3257D01*
X1125Y3252D01*
X1118Y3245D01*
X1112Y3236D01*
X1108Y3225D01*
X1104Y3212D01*
X1102Y3197D01*
X1101Y3180D01*
X1100Y3161D01*
X1000D01*
X1000Y3180D01*
X998Y3197D01*
X996Y3212D01*
X992Y3225D01*
X988Y3236D01*
X982Y3245D01*
X975Y3252D01*
X968Y3257D01*
X959Y3260D01*
X950Y3261D01*
X1150D01*
X1141Y3260D01*
D02*
G37*
G36*
X7043Y2380D02*
X7041Y2350D01*
X7041Y2322D01*
X7042Y2296D01*
X7046Y2272D01*
X7052Y2249D01*
X7059Y2229D01*
X7068Y2210D01*
X7080Y2193D01*
X7093Y2178D01*
X7021Y2109D01*
X7006Y2122D01*
X6988Y2134D01*
X6969Y2146D01*
X6947Y2157D01*
X6923Y2167D01*
X6896Y2175D01*
X6867Y2183D01*
X6803Y2197D01*
X6767Y2202D01*
X7047Y2412D01*
X7043Y2380D01*
D02*
G37*
G36*
X-1969Y2546D02*
X-1839Y2404D01*
X-1777Y2346D01*
X-1717Y2297D01*
X-1660Y2257D01*
X-1605Y2226D01*
X-1553Y2203D01*
X-1502Y2190D01*
X-1454Y2186D01*
Y2106D01*
X-1502Y2101D01*
X-1553Y2088D01*
X-1605Y2066D01*
X-1660Y2034D01*
X-1717Y1994D01*
X-1777Y1945D01*
X-1839Y1888D01*
X-1903Y1821D01*
X-2037Y1661D01*
Y2631D01*
X-1969Y2546D01*
D02*
G37*
G36*
X-3220Y1594D02*
X-3317Y1692D01*
X-3644Y1978D01*
X-3711Y2024D01*
X-3772Y2060D01*
X-3826Y2085D01*
X-3874Y2101D01*
X-3916Y2106D01*
Y2186D01*
X-3874Y2191D01*
X-3826Y2206D01*
X-3772Y2232D01*
X-3711Y2267D01*
X-3644Y2313D01*
X-3572Y2370D01*
X-3408Y2513D01*
X-3220Y2697D01*
Y1594D01*
D02*
G37*
G36*
X3650Y2286D02*
X3652Y2204D01*
X3665Y2054D01*
X3677Y1985D01*
X3693Y1920D01*
X3712Y1859D01*
X3734Y1802D01*
X3760Y1749D01*
X3789Y1701D01*
X3798Y1688D01*
X3813Y1674D01*
X3859Y1640D01*
X3909Y1610D01*
X3964Y1584D01*
X4023Y1562D01*
X4087Y1544D01*
X4155Y1530D01*
X4228Y1519D01*
X4305Y1513D01*
X4386Y1511D01*
Y811D01*
X4305Y809D01*
X4228Y803D01*
X4155Y793D01*
X4087Y779D01*
X4023Y761D01*
X3964Y739D01*
X3909Y713D01*
X3859Y683D01*
X3813Y648D01*
X3771Y610D01*
Y1662D01*
X2726Y1784D01*
X2769Y1821D01*
X2807Y1863D01*
X2840Y1910D01*
X2870Y1962D01*
X2894Y2019D01*
X2914Y2081D01*
X2930Y2148D01*
X2941Y2219D01*
X2948Y2296D01*
X2950Y2378D01*
X3650Y2286D01*
D02*
G37*
G36*
X-3714Y193D02*
X-3704Y184D01*
X-3694Y177D01*
X-3684Y171D01*
X-3675Y167D01*
X-3667Y165D01*
X-3659Y165D01*
X-3652Y166D01*
X-3646Y170D01*
X-3640Y174D01*
X-3753Y61D01*
X-3748Y67D01*
X-3745Y74D01*
X-3744Y81D01*
X-3744Y88D01*
X-3746Y97D01*
X-3750Y106D01*
X-3755Y115D01*
X-3763Y125D01*
X-3772Y136D01*
X-3782Y147D01*
X-3726Y203D01*
X-3714Y193D01*
D02*
G37*
G36*
X3988Y-310D02*
X3991Y-318D01*
X3996Y-325D01*
X4004Y-332D01*
X4013Y-338D01*
X4024Y-342D01*
X4037Y-345D01*
X4052Y-348D01*
X4069Y-349D01*
X4089Y-350D01*
Y-450D01*
X4069Y-450D01*
X4052Y-452D01*
X4037Y-454D01*
X4024Y-458D01*
X4013Y-463D01*
X4004Y-468D01*
X3996Y-474D01*
X3991Y-482D01*
X3988Y-490D01*
X3987Y-500D01*
Y-300D01*
X3988Y-310D01*
D02*
G37*
G36*
X8601Y-831D02*
X8602Y-848D01*
X8605Y-863D01*
X8608Y-876D01*
X8612Y-887D01*
X8618Y-896D01*
X8625Y-904D01*
X8632Y-909D01*
X8640Y-912D01*
X8650Y-913D01*
X8450D01*
X8460Y-912D01*
X8468Y-909D01*
X8475Y-904D01*
X8482Y-896D01*
X8487Y-887D01*
X8492Y-876D01*
X8496Y-863D01*
X8498Y-848D01*
X8500Y-831D01*
X8500Y-811D01*
X8600D01*
X8601Y-831D01*
D02*
G37*
G36*
X8397Y587D02*
Y-810D01*
X8155D01*
Y-1023D01*
X8100D01*
Y818D01*
X8146Y838D01*
X8397Y587D01*
D02*
G37*
G36*
X8257Y-1276D02*
X8256Y-1266D01*
X8253Y-1258D01*
X8248Y-1250D01*
X8241Y-1244D01*
X8232Y-1238D01*
X8221Y-1234D01*
X8208Y-1230D01*
X8192Y-1228D01*
X8175Y-1226D01*
X8156Y-1226D01*
Y-1126D01*
X8175Y-1125D01*
X8192Y-1124D01*
X8208Y-1121D01*
X8221Y-1118D01*
X8232Y-1113D01*
X8241Y-1108D01*
X8248Y-1101D01*
X8253Y-1094D01*
X8256Y-1085D01*
X8257Y-1076D01*
Y-1276D01*
D02*
G37*
G36*
X7844Y-1085D02*
X7847Y-1094D01*
X7852Y-1101D01*
X7859Y-1108D01*
X7868Y-1113D01*
X7879Y-1118D01*
X7892Y-1121D01*
X7908Y-1124D01*
X7925Y-1125D01*
X7944Y-1126D01*
Y-1226D01*
X7925Y-1226D01*
X7908Y-1228D01*
X7892Y-1230D01*
X7879Y-1234D01*
X7868Y-1238D01*
X7859Y-1244D01*
X7852Y-1250D01*
X7847Y-1258D01*
X7844Y-1266D01*
X7843Y-1276D01*
Y-1076D01*
X7844Y-1085D01*
D02*
G37*
G36*
X231Y-1396D02*
X229Y-1417D01*
X228Y-1438D01*
X230Y-1458D01*
X234Y-1478D01*
X240Y-1496D01*
X248Y-1515D01*
X258Y-1532D01*
X271Y-1549D01*
X285Y-1565D01*
X215Y-1635D01*
X199Y-1621D01*
X182Y-1608D01*
X165Y-1598D01*
X146Y-1590D01*
X128Y-1584D01*
X108Y-1580D01*
X88Y-1578D01*
X67Y-1579D01*
X46Y-1581D01*
X23Y-1586D01*
X236Y-1373D01*
X231Y-1396D01*
D02*
G37*
G36*
X4096Y-1509D02*
X4099Y-1518D01*
X4104Y-1525D01*
X4111Y-1532D01*
X4120Y-1538D01*
X4131Y-1542D01*
X4144Y-1546D01*
X4160Y-1548D01*
X4177Y-1549D01*
X4196Y-1550D01*
Y-1650D01*
X4177Y-1650D01*
X4160Y-1652D01*
X4144Y-1655D01*
X4131Y-1658D01*
X4120Y-1663D01*
X4111Y-1668D01*
X4104Y-1674D01*
X4099Y-1682D01*
X4096Y-1690D01*
X4095Y-1700D01*
Y-1500D01*
X4096Y-1509D01*
D02*
G37*
G36*
X2505Y-1700D02*
X2504Y-1690D01*
X2501Y-1682D01*
X2496Y-1674D01*
X2489Y-1668D01*
X2480Y-1663D01*
X2469Y-1658D01*
X2456Y-1655D01*
X2440Y-1652D01*
X2423Y-1650D01*
X2404Y-1650D01*
Y-1550D01*
X2423Y-1549D01*
X2440Y-1548D01*
X2456Y-1546D01*
X2469Y-1542D01*
X2480Y-1538D01*
X2489Y-1532D01*
X2496Y-1525D01*
X2501Y-1518D01*
X2504Y-1509D01*
X2505Y-1500D01*
Y-1700D01*
D02*
G37*
G36*
X2121Y-1650D02*
X2101Y-1651D01*
X2082Y-1653D01*
X2063Y-1656D01*
X2045Y-1661D01*
X2028Y-1668D01*
X2011Y-1675D01*
X1995Y-1685D01*
X1979Y-1695D01*
X1964Y-1707D01*
X1950Y-1721D01*
X1809D01*
X1821Y-1707D01*
X1830Y-1695D01*
X1836Y-1685D01*
X1838Y-1675D01*
X1837Y-1668D01*
X1832Y-1661D01*
X1824Y-1656D01*
X1812Y-1653D01*
X1798Y-1651D01*
X1779Y-1650D01*
X2000Y-1550D01*
X2121Y-1650D01*
D02*
G37*
G36*
X8257Y-2004D02*
X8256Y-1996D01*
X8254Y-1990D01*
X8250Y-1984D01*
X8244Y-1978D01*
X8237Y-1974D01*
X8228Y-1970D01*
X8217Y-1968D01*
X8205Y-1966D01*
X8191Y-1964D01*
X8176Y-1964D01*
Y-1884D01*
X8191Y-1884D01*
X8205Y-1882D01*
X8217Y-1880D01*
X8228Y-1878D01*
X8237Y-1874D01*
X8244Y-1870D01*
X8250Y-1864D01*
X8254Y-1858D01*
X8256Y-1852D01*
X8257Y-1844D01*
Y-2004D01*
D02*
G37*
G36*
X7844Y-1852D02*
X7846Y-1858D01*
X7850Y-1864D01*
X7856Y-1870D01*
X7863Y-1874D01*
X7872Y-1878D01*
X7883Y-1880D01*
X7895Y-1882D01*
X7909Y-1884D01*
X7924Y-1884D01*
Y-1964D01*
X7909Y-1964D01*
X7895Y-1966D01*
X7883Y-1968D01*
X7872Y-1970D01*
X7863Y-1974D01*
X7856Y-1978D01*
X7850Y-1984D01*
X7846Y-1990D01*
X7844Y-1996D01*
X7843Y-2004D01*
Y-1844D01*
X7844Y-1852D01*
D02*
G37*
G36*
X8170Y-1964D02*
X8155Y-1965D01*
X8141Y-1967D01*
X8129Y-1971D01*
X8119Y-1977D01*
X8110Y-1984D01*
X8103Y-1993D01*
X8097Y-2003D01*
X8093Y-2015D01*
X8091Y-2029D01*
X8090Y-2044D01*
X8010D01*
X8009Y-2029D01*
X8007Y-2015D01*
X8003Y-2003D01*
X7997Y-1993D01*
X7990Y-1984D01*
X7981Y-1977D01*
X7971Y-1971D01*
X7959Y-1967D01*
X7945Y-1965D01*
X7930Y-1964D01*
X8050Y-1884D01*
X8170Y-1964D01*
D02*
G37*
G36*
X8040Y-2512D02*
X8042Y-2533D01*
X8044Y-2541D01*
X8046Y-2548D01*
X8049Y-2554D01*
X8052Y-2558D01*
X8055Y-2562D01*
X8060Y-2564D01*
X8064Y-2564D01*
X7936D01*
X7940Y-2564D01*
X7945Y-2562D01*
X7948Y-2558D01*
X7951Y-2554D01*
X7954Y-2548D01*
X7956Y-2541D01*
X7958Y-2533D01*
X7959Y-2523D01*
X7960Y-2512D01*
X7960Y-2500D01*
X8040D01*
X8040Y-2512D01*
D02*
G37*
G36*
X4165Y-2972D02*
X4167Y-2978D01*
X4172Y-2983D01*
X4178Y-2987D01*
X4185Y-2991D01*
X4195Y-2994D01*
X4206Y-2997D01*
X4219Y-2999D01*
X4234Y-3000D01*
X4250Y-3000D01*
Y-3100D01*
X4234Y-3100D01*
X4206Y-3103D01*
X4195Y-3106D01*
X4185Y-3109D01*
X4178Y-3113D01*
X4172Y-3117D01*
X4167Y-3122D01*
X4165Y-3128D01*
X4164Y-3135D01*
Y-2965D01*
X4165Y-2972D01*
D02*
G37*
G36*
X2436Y-3200D02*
X2435Y-3191D01*
X2432Y-3182D01*
X2427Y-3174D01*
X2420Y-3168D01*
X2411Y-3162D01*
X2400Y-3158D01*
X2387Y-3155D01*
X2371Y-3152D01*
X2354Y-3151D01*
X2335Y-3150D01*
Y-3050D01*
X2354Y-3049D01*
X2371Y-3048D01*
X2387Y-3045D01*
X2400Y-3042D01*
X2411Y-3038D01*
X2420Y-3032D01*
X2427Y-3025D01*
X2432Y-3018D01*
X2435Y-3009D01*
X2436Y-3000D01*
Y-3200D01*
D02*
G37*
G36*
X4243Y-5600D02*
X4242Y-5591D01*
X4239Y-5582D01*
X4234Y-5574D01*
X4227Y-5568D01*
X4218Y-5562D01*
X4207Y-5558D01*
X4194Y-5555D01*
X4179Y-5552D01*
X4162Y-5551D01*
X4143Y-5550D01*
Y-5450D01*
X4162Y-5450D01*
X4179Y-5448D01*
X4194Y-5446D01*
X4207Y-5442D01*
X4218Y-5437D01*
X4227Y-5432D01*
X4234Y-5426D01*
X4239Y-5418D01*
X4242Y-5410D01*
X4243Y-5400D01*
Y-5600D01*
D02*
G37*
G36*
X-2505Y8874D02*
X-2516Y8863D01*
X-2525Y8852D01*
X-2532Y8842D01*
X-2537Y8833D01*
X-2541Y8824D01*
X-2543Y8816D01*
X-2543Y8808D01*
X-2542Y8801D01*
X-2539Y8795D01*
X-2534Y8789D01*
X-2647Y8902D01*
X-2641Y8897D01*
X-2634Y8894D01*
X-2627Y8893D01*
X-2620Y8893D01*
X-2611Y8895D01*
X-2603Y8899D01*
X-2593Y8904D01*
X-2583Y8911D01*
X-2573Y8920D01*
X-2562Y8930D01*
X-2505Y8874D01*
D02*
G37*
G36*
X-561Y6058D02*
X-570Y6059D01*
X-579Y6059D01*
X-588Y6057D01*
X-598Y6054D01*
X-608Y6050D01*
X-618Y6044D01*
X-629Y6037D01*
X-641Y6028D01*
X-652Y6018D01*
X-665Y6006D01*
X-735Y6077D01*
X-726Y6087D01*
X-718Y6096D01*
X-712Y6106D01*
X-707Y6115D01*
X-704Y6123D01*
X-702Y6132D01*
X-701Y6140D01*
X-702Y6148D01*
X-705Y6155D01*
X-709Y6163D01*
X-561Y6058D01*
D02*
G37*
G36*
X-9297Y-2418D02*
X-9311Y-2432D01*
X-9321Y-2445D01*
X-9330Y-2457D01*
X-9336Y-2468D01*
X-9340Y-2478D01*
X-9341Y-2488D01*
X-9340Y-2496D01*
X-9337Y-2504D01*
X-9332Y-2510D01*
X-9324Y-2516D01*
X-9503Y-2412D01*
X-9494Y-2416D01*
X-9484Y-2419D01*
X-9474Y-2419D01*
X-9463Y-2417D01*
X-9452Y-2414D01*
X-9440Y-2408D01*
X-9428Y-2401D01*
X-9415Y-2391D01*
X-9401Y-2380D01*
X-9387Y-2366D01*
X-9297Y-2418D01*
D02*
G37*
G36*
X6459Y-3328D02*
X6449Y-3339D01*
X6440Y-3350D01*
X6433Y-3360D01*
X6428Y-3370D01*
X6424Y-3380D01*
X6421Y-3390D01*
X6421Y-3399D01*
X6422Y-3408D01*
X6424Y-3417D01*
X6428Y-3425D01*
X6316Y-3291D01*
X6323Y-3296D01*
X6331Y-3300D01*
X6339Y-3302D01*
X6347Y-3303D01*
X6356Y-3302D01*
X6365Y-3299D01*
X6374Y-3294D01*
X6383Y-3289D01*
X6393Y-3281D01*
X6403Y-3272D01*
X6459Y-3328D01*
D02*
G37*
G36*
X4243Y-6580D02*
X4242Y-6572D01*
X4240Y-6566D01*
X4236Y-6560D01*
X4230Y-6554D01*
X4223Y-6550D01*
X4214Y-6546D01*
X4204Y-6544D01*
X4192Y-6542D01*
X4178Y-6540D01*
X4163Y-6540D01*
Y-6460D01*
X4178Y-6460D01*
X4192Y-6458D01*
X4204Y-6456D01*
X4214Y-6454D01*
X4223Y-6450D01*
X4230Y-6446D01*
X4236Y-6440D01*
X4240Y-6434D01*
X4242Y-6428D01*
X4243Y-6420D01*
Y-6580D01*
D02*
G37*
G36*
X4609Y-7117D02*
X4603Y-7119D01*
X4597Y-7123D01*
X4591Y-7129D01*
X4587Y-7136D01*
X4583Y-7145D01*
X4581Y-7156D01*
X4579Y-7168D01*
X4577Y-7181D01*
X4577Y-7197D01*
X4497D01*
X4497Y-7181D01*
X4495Y-7168D01*
X4493Y-7156D01*
X4491Y-7145D01*
X4487Y-7136D01*
X4483Y-7129D01*
X4477Y-7123D01*
X4471Y-7119D01*
X4465Y-7117D01*
X4457Y-7116D01*
X4617D01*
X4609Y-7117D01*
D02*
G37*
G36*
X4972Y-8080D02*
X4972Y-8072D01*
X4969Y-8066D01*
X4965Y-8060D01*
X4959Y-8054D01*
X4952Y-8050D01*
X4943Y-8046D01*
X4933Y-8044D01*
X4921Y-8042D01*
X4907Y-8040D01*
X4891Y-8040D01*
Y-7960D01*
X4907Y-7960D01*
X4921Y-7958D01*
X4933Y-7956D01*
X4943Y-7954D01*
X4952Y-7950D01*
X4959Y-7946D01*
X4965Y-7940D01*
X4969Y-7934D01*
X4972Y-7928D01*
X4972Y-7920D01*
Y-8080D01*
D02*
G37*
G36*
X4963Y-9130D02*
X4962Y-9122D01*
X4959Y-9116D01*
X4955Y-9110D01*
X4950Y-9104D01*
X4942Y-9100D01*
X4933Y-9096D01*
X4923Y-9094D01*
X4911Y-9092D01*
X4897Y-9090D01*
X4881Y-9090D01*
Y-9010D01*
X4897Y-9010D01*
X4911Y-9008D01*
X4923Y-9006D01*
X4933Y-9004D01*
X4942Y-9000D01*
X4950Y-8996D01*
X4955Y-8990D01*
X4959Y-8984D01*
X4962Y-8978D01*
X4963Y-8970D01*
Y-9130D01*
D02*
G37*
G36*
X8759Y-9783D02*
X8751Y-9777D01*
X8743Y-9773D01*
X8734Y-9771D01*
X8725Y-9772D01*
X8714Y-9774D01*
X8703Y-9779D01*
X8691Y-9786D01*
X8679Y-9795D01*
X8666Y-9806D01*
X8652Y-9819D01*
X8581Y-9748D01*
X8594Y-9734D01*
X8605Y-9721D01*
X8614Y-9709D01*
X8621Y-9697D01*
X8626Y-9686D01*
X8628Y-9675D01*
X8629Y-9666D01*
X8627Y-9657D01*
X8623Y-9649D01*
X8617Y-9641D01*
X8759Y-9783D01*
D02*
G37*
G36*
X4860Y-9445D02*
X5548D01*
Y-9500D01*
X5556Y-9539D01*
X5578Y-9572D01*
X5611Y-9594D01*
X5650Y-9602D01*
X7145D01*
X7150Y-9650D01*
X7150D01*
Y-9947D01*
X6340D01*
Y-9705D01*
X5608D01*
Y-9705D01*
X5592D01*
Y-9705D01*
X4860D01*
Y-9957D01*
X4709D01*
X4593Y-9841D01*
Y-9193D01*
X4860D01*
Y-9445D01*
D02*
G37*
G36*
X7849Y-9959D02*
X7852Y-9968D01*
X7857Y-9976D01*
X7864Y-9982D01*
X7873Y-9987D01*
X7884Y-9992D01*
X7897Y-9995D01*
X7912Y-9998D01*
X7930Y-9999D01*
X7949Y-10000D01*
Y-10100D01*
X7930Y-10101D01*
X7912Y-10102D01*
X7897Y-10105D01*
X7884Y-10108D01*
X7873Y-10113D01*
X7864Y-10118D01*
X7857Y-10124D01*
X7852Y-10132D01*
X7849Y-10141D01*
X7848Y-10150D01*
Y-9950D01*
X7849Y-9959D01*
D02*
G37*
G36*
X4963Y-10180D02*
X4962Y-10172D01*
X4959Y-10166D01*
X4955Y-10160D01*
X4950Y-10154D01*
X4942Y-10150D01*
X4933Y-10146D01*
X4923Y-10144D01*
X4911Y-10142D01*
X4897Y-10140D01*
X4881Y-10140D01*
Y-10060D01*
X4897Y-10060D01*
X4911Y-10058D01*
X4923Y-10056D01*
X4933Y-10054D01*
X4942Y-10050D01*
X4950Y-10046D01*
X4955Y-10040D01*
X4959Y-10034D01*
X4962Y-10028D01*
X4963Y-10020D01*
Y-10180D01*
D02*
G37*
G36*
X7252Y-10200D02*
X7251Y-10191D01*
X7248Y-10182D01*
X7243Y-10174D01*
X7236Y-10168D01*
X7227Y-10163D01*
X7216Y-10158D01*
X7203Y-10155D01*
X7188Y-10152D01*
X7170Y-10151D01*
X7151Y-10150D01*
Y-10050D01*
X7170Y-10050D01*
X7188Y-10048D01*
X7203Y-10045D01*
X7216Y-10042D01*
X7227Y-10037D01*
X7236Y-10032D01*
X7243Y-10026D01*
X7248Y-10018D01*
X7251Y-10009D01*
X7252Y-10000D01*
Y-10200D01*
D02*
G37*
G36*
X6240Y-10009D02*
X6243Y-10018D01*
X6248Y-10026D01*
X6255Y-10032D01*
X6264Y-10037D01*
X6275Y-10042D01*
X6288Y-10045D01*
X6303Y-10048D01*
X6320Y-10050D01*
X6339Y-10050D01*
Y-10150D01*
X6320Y-10151D01*
X6303Y-10152D01*
X6288Y-10155D01*
X6275Y-10158D01*
X6264Y-10163D01*
X6255Y-10168D01*
X6248Y-10174D01*
X6243Y-10182D01*
X6240Y-10191D01*
X6239Y-10200D01*
Y-10000D01*
X6240Y-10009D01*
D02*
G37*
G36*
X11188Y-4960D02*
X11191Y-4968D01*
X11196Y-4976D01*
X11204Y-4982D01*
X11213Y-4988D01*
X11224Y-4992D01*
X11237Y-4996D01*
X11252Y-4998D01*
X11269Y-4999D01*
X11289Y-5000D01*
Y-5100D01*
X11269Y-5100D01*
X11252Y-5102D01*
X11237Y-5105D01*
X11224Y-5108D01*
X11213Y-5113D01*
X11204Y-5118D01*
X11196Y-5124D01*
X11191Y-5132D01*
X11188Y-5141D01*
X11187Y-5150D01*
Y-4950D01*
X11188Y-4960D01*
D02*
G37*
G36*
X10002Y-7300D02*
X10001Y-7290D01*
X9998Y-7282D01*
X9993Y-7275D01*
X9986Y-7268D01*
X9977Y-7262D01*
X9966Y-7258D01*
X9953Y-7254D01*
X9938Y-7252D01*
X9920Y-7250D01*
X9901Y-7250D01*
Y-7150D01*
X9920Y-7150D01*
X9938Y-7148D01*
X9953Y-7146D01*
X9966Y-7142D01*
X9977Y-7138D01*
X9986Y-7132D01*
X9993Y-7125D01*
X9998Y-7118D01*
X10001Y-7110D01*
X10002Y-7100D01*
Y-7300D01*
D02*
G37*
G36*
X9265Y-7110D02*
X9268Y-7118D01*
X9273Y-7125D01*
X9280Y-7132D01*
X9289Y-7138D01*
X9300Y-7142D01*
X9313Y-7146D01*
X9329Y-7148D01*
X9346Y-7150D01*
X9365Y-7150D01*
Y-7250D01*
X9346Y-7250D01*
X9329Y-7252D01*
X9313Y-7254D01*
X9300Y-7258D01*
X9289Y-7262D01*
X9280Y-7268D01*
X9273Y-7275D01*
X9268Y-7282D01*
X9265Y-7290D01*
X9264Y-7300D01*
Y-7100D01*
X9265Y-7110D01*
D02*
G37*
G36*
X10599Y-7160D02*
X10602Y-7168D01*
X10607Y-7175D01*
X10614Y-7182D01*
X10623Y-7188D01*
X10634Y-7192D01*
X10647Y-7196D01*
X10662Y-7198D01*
X10680Y-7200D01*
X10699Y-7200D01*
Y-7300D01*
X10680Y-7301D01*
X10662Y-7302D01*
X10647Y-7304D01*
X10634Y-7308D01*
X10623Y-7312D01*
X10614Y-7318D01*
X10607Y-7325D01*
X10602Y-7332D01*
X10599Y-7340D01*
X10598Y-7350D01*
Y-7150D01*
X10599Y-7160D01*
D02*
G37*
G36*
X10390Y-7550D02*
X10382Y-7553D01*
X10374Y-7558D01*
X10368Y-7565D01*
X10362Y-7574D01*
X10358Y-7585D01*
X10354Y-7598D01*
X10352Y-7613D01*
X10351Y-7630D01*
X10350Y-7649D01*
X10250D01*
X10250Y-7630D01*
X10248Y-7613D01*
X10245Y-7598D01*
X10242Y-7585D01*
X10237Y-7574D01*
X10232Y-7565D01*
X10225Y-7558D01*
X10218Y-7553D01*
X10209Y-7550D01*
X10200Y-7549D01*
X10400D01*
X10390Y-7550D01*
D02*
G37*
G36*
X9919Y-8552D02*
X9906Y-8566D01*
X9895Y-8579D01*
X9886Y-8591D01*
X9879Y-8603D01*
X9874Y-8614D01*
X9872Y-8625D01*
X9871Y-8634D01*
X9873Y-8643D01*
X9877Y-8651D01*
X9883Y-8659D01*
X9741Y-8517D01*
X9749Y-8523D01*
X9757Y-8527D01*
X9766Y-8529D01*
X9775Y-8528D01*
X9786Y-8526D01*
X9797Y-8521D01*
X9809Y-8514D01*
X9821Y-8505D01*
X9834Y-8494D01*
X9848Y-8481D01*
X9919Y-8552D01*
D02*
G37*
G54D10*
X-4250Y12100D02*
D03*
G54D11*
X7874Y4000D02*
D03*
X7126D02*
D03*
X10176Y-5050D02*
D03*
X10924D02*
D03*
X2976Y-400D02*
D03*
X3724D02*
D03*
X5974Y-9050D02*
D03*
X5226D02*
D03*
X5974Y-10100D02*
D03*
X5226D02*
D03*
G54D13*
X7550Y-1176D02*
D03*
Y-1924D02*
D03*
X8550Y-1176D02*
D03*
Y-1924D02*
D03*
X2150Y8374D02*
D03*
Y7626D02*
D03*
X3300Y7626D02*
D03*
Y8374D02*
D03*
Y6324D02*
D03*
Y5576D02*
D03*
X2150Y6324D02*
D03*
Y5576D02*
D03*
X1050Y6324D02*
D03*
Y5576D02*
D03*
Y3526D02*
D03*
Y4274D02*
D03*
X2150Y3526D02*
D03*
Y4274D02*
D03*
X3300Y3526D02*
D03*
Y4274D02*
D03*
G54D16*
X5226Y-8000D02*
D03*
X5974D02*
D03*
G54D17*
X5550Y11026D02*
D03*
Y11774D02*
D03*
X2200Y11824D02*
D03*
Y11076D02*
D03*
X1000Y7626D02*
D03*
Y8374D02*
D03*
G54D26*
X5150Y4800D02*
Y5350D01*
Y4800D02*
X5950Y4000D01*
X7126D01*
X9500Y-1030D02*
Y-247D01*
X10016Y269D01*
X9350Y-4700D02*
X9700Y-5050D01*
X6000Y-3669D02*
X7031Y-4700D01*
X9350D01*
X6000Y-3669D02*
X6062D01*
X6431Y-3300D01*
X4450Y-9100D02*
X4500Y-9050D01*
X4450Y-9900D02*
Y-9100D01*
Y-9900D02*
X4650Y-10100D01*
X5226D01*
X4500Y-9050D02*
X5226D01*
X3850Y-8400D02*
X4500Y-9050D01*
X3850Y-8400D02*
Y-6650D01*
X4000Y-6500D02*
X4537D01*
X3850Y-6650D02*
X4000Y-6500D01*
X4767Y-8017D02*
X4833D01*
X4537Y-7787D02*
X4767Y-8017D01*
X4850Y-8000D02*
X5226D01*
X4833Y-8017D02*
X4850Y-8000D01*
X4537Y-7787D02*
Y-7000D01*
X9700Y-5050D02*
X10176D01*
X9270Y-5480D02*
X9700Y-5050D01*
X9020Y-5550D02*
X9090Y-5480D01*
X9270D01*
X9020Y-5550D02*
X9800D01*
X10201Y-5950D01*
Y-6151D02*
X10300Y-6250D01*
X10201Y-6151D02*
Y-5950D01*
X6431Y-3300D02*
X8650D01*
X-2050Y-9950D02*
X-1500Y-9400D01*
Y-7400D01*
X-3700Y-9950D02*
X-2050D01*
X-5200Y-8450D02*
X-3700Y-9950D01*
X-5550Y3400D02*
X-4296Y2146D01*
X-2657D01*
X8650Y-3300D02*
X8748Y-3202D01*
Y-2750D01*
X8050Y-2450D02*
Y-1924D01*
X8550D01*
X7990Y-2740D02*
X8000Y-2730D01*
Y-2500D02*
X8050Y-2450D01*
X7550Y-1924D02*
X8050D01*
X8000Y-2730D02*
Y-2500D01*
X7990Y-2740D02*
X8000Y-2750D01*
X5441Y11883D02*
X5550Y11774D01*
X4628Y11883D02*
X5441D01*
X6126Y11774D02*
X9400Y8500D01*
X5550Y11774D02*
X6126D01*
X-12050Y-4398D02*
Y-650D01*
Y-4398D02*
X-11150Y-5298D01*
X-11302D02*
X-11150D01*
X3550Y9950D02*
Y9957D01*
X3800Y10207D01*
X100Y5050D02*
Y7050D01*
Y3700D02*
Y5050D01*
X300Y7250D02*
Y7662D01*
X-1454Y2146D02*
X100Y3700D01*
X300Y7662D02*
X336Y7626D01*
X300Y7662D02*
Y8600D01*
X100Y7050D02*
X300Y7250D01*
X-2411Y9025D02*
X-1675D01*
X-1114Y7748D02*
Y8464D01*
X-1675Y9025D02*
X-1114Y8464D01*
X-2882Y8554D02*
X-2411Y9025D01*
X-473Y9673D02*
X1496D01*
X700Y9000D02*
X2150D01*
X3172Y10022D02*
Y11017D01*
X2150Y9000D02*
X3172Y10022D01*
X3800Y10207D02*
Y11700D01*
X-2657Y2146D02*
X-1454D01*
X336Y7626D02*
X1000D01*
X300Y8600D02*
X700Y9000D01*
X-600Y12250D02*
X-400Y12450D01*
X-1111Y11739D02*
X-600Y12250D01*
X-400Y12450D02*
Y12900D01*
X-3879Y300D02*
X-3489Y-89D01*
X-4800Y300D02*
X-3879D01*
X-6400Y-1300D02*
X-4800Y300D01*
X9400Y8500D02*
X9900D01*
X-950Y10150D02*
X-473Y9673D01*
X-950Y10486D02*
X-404Y11032D01*
X-950Y10150D02*
Y10486D01*
X-600Y12250D02*
X150D01*
X1324Y11076D01*
X2200D01*
X3617Y11883D02*
X3800Y11700D01*
X3172Y11883D02*
X3617D01*
X2259D02*
X3172D01*
X2200Y11824D02*
X2259Y11883D01*
X2259Y11017D02*
X3172D01*
X2200Y11076D02*
X2259Y11017D01*
X1000Y7626D02*
X2150D01*
G54D27*
X10050Y4850D02*
Y5350D01*
X9200Y4000D02*
X10050Y4850D01*
X7874Y4000D02*
X9200D01*
X11450Y-6550D02*
Y-5576D01*
Y-5200D01*
X11300Y-5050D02*
X11450Y-5200D01*
X10924Y-5050D02*
X11300D01*
X6800Y2450D02*
X6859Y2391D01*
Y2250D02*
X6950D01*
X6859D02*
Y2391D01*
X6950Y2250D02*
X8550Y650D01*
X3861Y-3050D02*
X4250D01*
X4400Y-3200D01*
Y-3750D02*
Y-3200D01*
X2750Y-5400D02*
X4400Y-3750D01*
X2883Y-5400D02*
X2983Y-5500D01*
X4537D01*
X2750Y-5400D02*
X2883D01*
X8350Y-10050D02*
X8812Y-9588D01*
X7550Y-10050D02*
X8350D01*
X7500Y-10100D02*
X7550Y-10050D01*
X5974Y-10100D02*
X7500D01*
X10300Y-7250D02*
X10750D01*
X11450Y-6550D01*
X10924Y-5080D02*
Y-5050D01*
X8961Y-7200D02*
X10250D01*
X10300Y-7250D01*
Y-8100D02*
Y-7250D01*
X9688Y-8712D02*
X10300Y-8100D01*
X9930Y-3754D02*
X10016Y-3668D01*
X8374Y-3754D02*
X9930D01*
X9500Y-3153D02*
X10016Y-3668D01*
X9500Y-3153D02*
Y-2270D01*
X-6700Y-9500D02*
X-4300Y-11900D01*
X4700D02*
X4950Y-11650D01*
X-4300Y-11900D02*
X4700D01*
X-1375Y6325D02*
X-250Y7450D01*
X-7600Y3650D02*
Y3709D01*
X-7400Y3909D01*
Y4200D01*
X-7900Y4700D02*
Y5600D01*
Y4700D02*
X-7400Y4200D01*
X-5750Y7750D02*
X-4200D01*
X-7900Y5600D02*
X-5750Y7750D01*
X-4200D02*
X-2775Y6325D01*
X-1375D01*
X3920Y-1600D02*
X4250D01*
X4400Y-1450D01*
Y-550D01*
X4250Y-400D02*
X4400Y-550D01*
X3724Y-400D02*
X4250D01*
X7550Y-1176D02*
X8550D01*
Y650D01*
X5491Y11017D02*
X5550Y11076D01*
X5491Y11017D02*
X5541D01*
X4628D02*
X5491D01*
X5541D02*
X5550Y11026D01*
X3300Y8374D02*
X5650D01*
X5850Y8574D01*
Y9950D01*
X1974Y6950D02*
X2150Y6774D01*
Y6324D02*
Y6774D01*
X1226Y6950D02*
X1974D01*
X1050Y6774D02*
X1226Y6950D01*
X1050Y6324D02*
Y6774D01*
X-250Y7450D02*
Y8550D01*
X-700Y6041D02*
X-500Y6241D01*
Y6300D01*
X-700Y4750D02*
Y6041D01*
X-1250Y4200D02*
X-700Y4750D01*
X-4550Y6550D02*
Y6600D01*
Y6550D02*
X-3450Y5450D01*
X-9600Y3150D02*
X-8400Y4350D01*
X-9600Y2350D02*
Y3150D01*
Y2350D02*
X-8400Y1150D01*
Y-1450D02*
Y1150D01*
X-9650Y-2700D02*
X-8400Y-1450D01*
X-7900Y1050D02*
X-6250Y2700D01*
X-7900Y-2150D02*
Y1050D01*
X-9316Y-3566D02*
X-7900Y-2150D01*
X-10150Y-3566D02*
X-9316D01*
X1050Y4274D02*
Y5576D01*
X2350Y5050D02*
X3150D01*
X2181Y5219D02*
X2350Y5050D01*
X2181Y5219D02*
Y5545D01*
X2150Y5576D02*
X2181Y5545D01*
X1050Y4274D02*
X1113Y4337D01*
X1050Y5576D02*
X1113Y5513D01*
X-2550Y10850D02*
X-250Y8550D01*
X-2550Y11714D02*
X-1818Y12446D01*
X-2550Y10850D02*
Y11714D01*
X4050Y10200D02*
X4300Y9950D01*
X4050Y10200D02*
Y10900D01*
X4167Y11017D01*
X2150Y8374D02*
X3155D01*
X2150Y8374D02*
X2150Y8374D01*
X1000Y8374D02*
X2150D01*
X3300Y6324D02*
Y7626D01*
Y5200D02*
Y5576D01*
X3150Y5050D02*
X3300Y5200D01*
X1050Y3026D02*
Y3526D01*
Y3026D02*
X1226Y2850D01*
X1974D01*
X2150Y3026D02*
Y3526D01*
X1974Y2850D02*
X2150Y3026D01*
X3200Y4800D02*
X3300Y4700D01*
X2150Y4741D02*
X2209Y4800D01*
X3200D01*
X2150Y4274D02*
Y4741D01*
X3300Y4274D02*
Y4700D01*
X2000Y-1600D02*
X2680D01*
X1700Y-1900D02*
X2000Y-1600D01*
X1700Y-2850D02*
Y-1900D01*
X1950Y-3100D02*
X2439D01*
X1700Y-2850D02*
X1950Y-3100D01*
X250Y-1600D02*
X2000D01*
X-50Y-1300D02*
X250Y-1600D01*
X4167Y11017D02*
X4628D01*
G54D28*
X3350Y-10700D02*
X4050D01*
X-700Y-6650D02*
X3350Y-10700D01*
X-5611Y-3539D02*
X-2500Y-6650D01*
X-5611Y-3539D02*
Y-2211D01*
X-2500Y-6650D02*
X-800D01*
X-700D01*
G54D29*
X9250Y6950D02*
X9600Y7300D01*
X4600Y6950D02*
X9250D01*
G54D31*
X3300Y1161D02*
Y3400D01*
Y1161D02*
X5107D01*
X3209D02*
X3300D01*
X5107D02*
X6000Y269D01*
X2360Y-400D02*
X2850D01*
X1950Y10D02*
X2360Y-400D01*
Y1036D02*
X3083D01*
X1950Y626D02*
X2360Y1036D01*
X1950Y10D02*
Y626D01*
X3083Y1036D02*
X3209Y1161D01*
G54D36*
X12663Y-15920D02*
D03*
X-12663D02*
D03*
X0Y-3425D02*
D03*
X-2657Y2146D02*
D03*
X3209Y1161D02*
D03*
G54D37*
X-1450Y-4850D02*
D03*
X12700Y250D02*
D03*
G54D38*
X-50Y700D02*
D03*
Y-1300D02*
D03*
X2750Y-5400D02*
D03*
Y-7400D02*
D03*
X-5611Y-2211D02*
D03*
X-4904Y-1504D02*
D03*
X-4196Y-796D02*
D03*
G54D39*
X7550Y-9050D02*
D03*
X10300Y-6250D02*
D03*
X-10357Y-957D02*
D03*
X-9650Y-250D02*
D03*
G54D40*
X7550Y-10050D02*
D03*
X10300Y-7250D02*
D03*
G54D41*
X7600Y5350D02*
D03*
X10050D02*
D03*
X5150D02*
D03*
G54D42*
X11000Y-1700D02*
D03*
G54D43*
X6000Y-3669D02*
D03*
X10016Y-3668D02*
D03*
X6000Y269D02*
D03*
X10016Y269D02*
D03*
G54D44*
X-9650Y-2700D02*
D03*
G54D45*
X-10150Y-3566D02*
D03*
X-10650Y-4432D02*
D03*
X-11150Y-5298D02*
D03*
G54D46*
X-3489Y-89D02*
D03*
G54D47*
X1496Y9673D02*
D03*
X-1114Y7748D02*
D03*
G54D48*
X9600Y7300D02*
D03*
X4600Y6950D02*
D03*
X6800Y2450D02*
D03*
X4050Y-10700D02*
D03*
X-6250Y6200D02*
D03*
X-6900Y4850D02*
D03*
X-800Y-6650D02*
D03*
X-1150Y-9950D02*
D03*
X-2050D02*
D03*
X-5200Y-8450D02*
D03*
X4950Y-11650D02*
D03*
X-6700Y-9500D02*
D03*
X-1500Y-7400D02*
D03*
X-300Y-9950D02*
D03*
X-5550Y3400D02*
D03*
X5850Y9950D02*
D03*
X3550D02*
D03*
X100Y5050D02*
D03*
X-500Y6300D02*
D03*
X-4550Y6600D02*
D03*
X-3450Y5450D02*
D03*
X-8400Y4350D02*
D03*
X-6250Y2700D02*
D03*
X4300Y9950D02*
D03*
X-1250Y4200D02*
D03*
X-12050Y-650D02*
D03*
X-400Y12900D02*
D03*
X-6400Y-1300D02*
D03*
X9900Y8500D02*
D03*
X-7600Y3650D02*
D03*
G54D49*
X4537Y-7000D02*
D03*
Y-6500D02*
D03*
Y-5500D02*
D03*
X6663Y-7000D02*
D03*
Y-6500D02*
D03*
Y-6000D02*
D03*
Y-5500D02*
D03*
G54D50*
X8374Y-3754D02*
D03*
X8748Y-2750D02*
D03*
X8000D02*
D03*
G54D51*
X9500Y-2270D02*
D03*
Y-1030D02*
D03*
G54D52*
X8812Y-9588D02*
D03*
X9688Y-8712D02*
D03*
G54D53*
X2680Y-1600D02*
D03*
X3920D02*
D03*
X7780Y-5550D02*
D03*
X9020D02*
D03*
G54D54*
X-1818Y12446D02*
D03*
X-1111Y11739D02*
D03*
X-404Y11032D02*
D03*
X-4296Y9968D02*
D03*
X-3589Y9261D02*
D03*
X-2882Y8554D02*
D03*
G54D55*
X3172Y11883D02*
D03*
X4628Y11017D02*
D03*
X4628Y11883D02*
D03*
X3172Y11017D02*
D03*
G54D56*
X7839Y-7200D02*
D03*
X8961D02*
D03*
X2739Y-3050D02*
D03*
X3861D02*
D03*
G54D57*
X-1450Y-4850D02*
X-1425D01*
X0Y-3425D01*
G54D58*
X11092Y-1358D02*
X12700Y250D01*
X11092Y-1608D02*
Y-1358D01*
X11000Y-1700D02*
X11092Y-1608D01*
G54D59*
X7000Y-7300D02*
D03*
M02*
