G04*
G04 #@! TF.GenerationSoftware,Altium Limited,Altium Designer,21.6.4 (81)*
G04*
G04 Layer_Color=12040119*
%FSLAX24Y24*%
%MOIN*%
G70*
G04*
G04 #@! TF.SameCoordinates,91C8DFC6-6E0A-4D14-B263-8AF1C318984C*
G04*
G04*
G04 #@! TF.FilePolarity,Positive*
G04*
G01*
G75*
%ADD27C,0.0100*%
G54D27*
X13780Y0D02*
X13779Y100D01*
X13778Y200D01*
X13776Y300D01*
X13774Y400D01*
X13770Y500D01*
X13766Y600D01*
X13762Y700D01*
X13756Y799D01*
X13750Y899D01*
X13743Y999D01*
X13736Y1099D01*
X13727Y1198D01*
X13718Y1298D01*
X13709Y1397D01*
X13698Y1497D01*
X13687Y1596D01*
X13675Y1695D01*
X13662Y1794D01*
X13649Y1894D01*
X13635Y1993D01*
X13620Y2091D01*
X13604Y2190D01*
X13588Y2289D01*
X13571Y2387D01*
X13553Y2486D01*
X13535Y2584D01*
X13516Y2682D01*
X13496Y2780D01*
X13476Y2878D01*
X13454Y2976D01*
X13432Y3073D01*
X13410Y3171D01*
X13386Y3268D01*
X13362Y3365D01*
X13338Y3462D01*
X13312Y3558D01*
X13286Y3655D01*
X13259Y3751D01*
X13232Y3847D01*
X13203Y3943D01*
X13174Y4039D01*
X13145Y4134D01*
X13114Y4230D01*
X13083Y4325D01*
X13052Y4419D01*
X13019Y4514D01*
X12986Y4608D01*
X12952Y4702D01*
X12918Y4796D01*
X12883Y4890D01*
X12847Y4983D01*
X12810Y5076D01*
X12773Y5169D01*
X12735Y5262D01*
X12697Y5354D01*
X12658Y5446D01*
X12618Y5538D01*
X12577Y5629D01*
X12536Y5720D01*
X12494Y5811D01*
X12452Y5901D01*
X12409Y5992D01*
X12365Y6081D01*
X12320Y6171D01*
X12275Y6260D01*
X12230Y6349D01*
X12183Y6438D01*
X12136Y6526D01*
X12089Y6614D01*
X12040Y6701D01*
X11991Y6789D01*
X11942Y6875D01*
X11892Y6962D01*
X11841Y7048D01*
X11789Y7134D01*
X11737Y7219D01*
X11685Y7304D01*
X11631Y7389D01*
X11577Y7473D01*
X11523Y7556D01*
X11468Y7640D01*
X11412Y7723D01*
X11356Y7806D01*
X11299Y7888D01*
X11241Y7969D01*
X11183Y8051D01*
X11124Y8132D01*
X11065Y8212D01*
X11005Y8292D01*
X10945Y8372D01*
X10884Y8451D01*
X10822Y8530D01*
X10760Y8608D01*
X10697Y8686D01*
X10634Y8763D01*
X10570Y8840D01*
X10506Y8917D01*
X10441Y8993D01*
X10375Y9068D01*
X10309Y9143D01*
X10242Y9218D01*
X10175Y9292D01*
X10108Y9365D01*
X10039Y9439D01*
X9971Y9511D01*
X9901Y9583D01*
X9832Y9655D01*
X9761Y9726D01*
X9690Y9796D01*
X9619Y9867D01*
X9547Y9936D01*
X9475Y10005D01*
X9402Y10074D01*
X9329Y10141D01*
X9255Y10209D01*
X9181Y10276D01*
X9106Y10342D01*
X9031Y10408D01*
X8955Y10473D01*
X8879Y10538D01*
X8802Y10602D01*
X8725Y10666D01*
X8647Y10729D01*
X8569Y10791D01*
X8491Y10853D01*
X8412Y10914D01*
X8332Y10975D01*
X8252Y11035D01*
X8172Y11095D01*
X8091Y11154D01*
X8010Y11212D01*
X7929Y11270D01*
X7847Y11327D01*
X7764Y11384D01*
X7681Y11440D01*
X7598Y11495D01*
X7515Y11550D01*
X7431Y11604D01*
X7346Y11658D01*
X7261Y11711D01*
X7176Y11763D01*
X7091Y11815D01*
X7005Y11866D01*
X6919Y11917D01*
X6832Y11967D01*
X6745Y12016D01*
X6658Y12064D01*
X6570Y12112D01*
X6482Y12160D01*
X6393Y12207D01*
X6305Y12253D01*
X6216Y12298D01*
X6126Y12343D01*
X6037Y12387D01*
X5947Y12430D01*
X5856Y12473D01*
X5766Y12515D01*
X5675Y12557D01*
X5583Y12598D01*
X5492Y12638D01*
X5400Y12677D01*
X5308Y12716D01*
X5215Y12754D01*
X5123Y12792D01*
X5030Y12829D01*
X4937Y12865D01*
X4843Y12900D01*
X4749Y12935D01*
X4655Y12969D01*
X4561Y13003D01*
X4467Y13035D01*
X4372Y13068D01*
X4277Y13099D01*
X4182Y13130D01*
X4087Y13160D01*
X3991Y13189D01*
X3895Y13218D01*
X3799Y13245D01*
X3703Y13273D01*
X3607Y13299D01*
X3510Y13325D01*
X3413Y13350D01*
X3316Y13375D01*
X3219Y13398D01*
X3122Y13421D01*
X3024Y13444D01*
X2927Y13465D01*
X2829Y13486D01*
X2731Y13506D01*
X2633Y13526D01*
X2535Y13544D01*
X2437Y13562D01*
X2338Y13580D01*
X2240Y13596D01*
X2141Y13612D01*
X2042Y13627D01*
X1943Y13642D01*
X1844Y13656D01*
X1745Y13669D01*
X1646Y13681D01*
X1546Y13692D01*
X1447Y13703D01*
X1348Y13713D01*
X1248Y13723D01*
X1148Y13732D01*
X1049Y13740D01*
X949Y13747D01*
X849Y13753D01*
X750Y13759D01*
X650Y13764D01*
X550Y13769D01*
X450Y13772D01*
X350Y13775D01*
X250Y13777D01*
X150Y13779D01*
X50Y13779D01*
X-50Y13779D01*
X-150Y13779D01*
X-250Y13777D01*
X-350Y13775D01*
X-450Y13772D01*
X-550Y13769D01*
X-650Y13764D01*
X-749Y13759D01*
X-849Y13753D01*
X-949Y13747D01*
X-1049Y13740D01*
X-1148Y13732D01*
X-1248Y13723D01*
X-1347Y13713D01*
X-1447Y13703D01*
X-1546Y13692D01*
X-1646Y13681D01*
X-1745Y13669D01*
X-1844Y13656D01*
X-1943Y13642D01*
X-2042Y13627D01*
X-2141Y13612D01*
X-2239Y13596D01*
X-2338Y13580D01*
X-2436Y13562D01*
X-2535Y13544D01*
X-2633Y13526D01*
X-2731Y13506D01*
X-2829Y13486D01*
X-2927Y13465D01*
X-3024Y13444D01*
X-3122Y13421D01*
X-3219Y13398D01*
X-3316Y13375D01*
X-3413Y13350D01*
X-3510Y13325D01*
X-3607Y13299D01*
X-3703Y13273D01*
X-3799Y13245D01*
X-3895Y13218D01*
X-3991Y13189D01*
X-4087Y13160D01*
X-4182Y13130D01*
X-4277Y13099D01*
X-4372Y13068D01*
X-4467Y13036D01*
X-4561Y13003D01*
X-4655Y12969D01*
X-4749Y12935D01*
X-4843Y12900D01*
X-4937Y12865D01*
X-5030Y12829D01*
X-5123Y12792D01*
X-5215Y12754D01*
X-5308Y12716D01*
X-5400Y12677D01*
X-5492Y12638D01*
X-5583Y12598D01*
X-5675Y12557D01*
X-5765Y12515D01*
X-5856Y12473D01*
X-5946Y12430D01*
X-6036Y12387D01*
X-6126Y12343D01*
X-6216Y12298D01*
X-6305Y12253D01*
X-6393Y12207D01*
X-6482Y12160D01*
X-6570Y12112D01*
X-6658Y12065D01*
X-6745Y12016D01*
X-6832Y11967D01*
X-6919Y11917D01*
X-7005Y11866D01*
X-7091Y11815D01*
X-7176Y11763D01*
X-7261Y11711D01*
X-7346Y11658D01*
X-7431Y11604D01*
X-7515Y11550D01*
X-7598Y11495D01*
X-7681Y11440D01*
X-7764Y11384D01*
X-7847Y11327D01*
X-7929Y11270D01*
X-8010Y11212D01*
X-8091Y11154D01*
X-8172Y11095D01*
X-8252Y11035D01*
X-8332Y10975D01*
X-8411Y10914D01*
X-8490Y10853D01*
X-8569Y10791D01*
X-8647Y10729D01*
X-8725Y10666D01*
X-8802Y10602D01*
X-8879Y10538D01*
X-8955Y10473D01*
X-9030Y10408D01*
X-9106Y10342D01*
X-9181Y10276D01*
X-9255Y10209D01*
X-9329Y10142D01*
X-9402Y10074D01*
X-9475Y10005D01*
X-9547Y9936D01*
X-9619Y9867D01*
X-9690Y9797D01*
X-9761Y9726D01*
X-9832Y9655D01*
X-9901Y9583D01*
X-9971Y9511D01*
X-10039Y9439D01*
X-10108Y9366D01*
X-10175Y9292D01*
X-10242Y9218D01*
X-10309Y9143D01*
X-10375Y9068D01*
X-10441Y8993D01*
X-10506Y8917D01*
X-10570Y8840D01*
X-10634Y8763D01*
X-10697Y8686D01*
X-10760Y8608D01*
X-10822Y8530D01*
X-10884Y8451D01*
X-10945Y8372D01*
X-11005Y8292D01*
X-11065Y8212D01*
X-11124Y8132D01*
X-11183Y8051D01*
X-11241Y7969D01*
X-11299Y7888D01*
X-11356Y7806D01*
X-11412Y7723D01*
X-11468Y7640D01*
X-11523Y7557D01*
X-11577Y7473D01*
X-11631Y7389D01*
X-11685Y7304D01*
X-11737Y7219D01*
X-11789Y7134D01*
X-11841Y7048D01*
X-11892Y6962D01*
X-11942Y6875D01*
X-11991Y6789D01*
X-12040Y6701D01*
X-12089Y6614D01*
X-12136Y6526D01*
X-12183Y6438D01*
X-12230Y6349D01*
X-12275Y6260D01*
X-12320Y6171D01*
X-12365Y6081D01*
X-12409Y5992D01*
X-12452Y5901D01*
X-12494Y5811D01*
X-12536Y5720D01*
X-12577Y5629D01*
X-12618Y5538D01*
X-12658Y5446D01*
X-12697Y5354D01*
X-12735Y5262D01*
X-12773Y5169D01*
X-12810Y5076D01*
X-12847Y4983D01*
X-12883Y4890D01*
X-12918Y4796D01*
X-12952Y4702D01*
X-12986Y4608D01*
X-13019Y4514D01*
X-13052Y4419D01*
X-13083Y4325D01*
X-13114Y4230D01*
X-13145Y4134D01*
X-13174Y4039D01*
X-13203Y3943D01*
X-13232Y3847D01*
X-13259Y3751D01*
X-13286Y3655D01*
X-13312Y3558D01*
X-13338Y3462D01*
X-13362Y3365D01*
X-13386Y3268D01*
X-13410Y3171D01*
X-13432Y3073D01*
X-13454Y2976D01*
X-13476Y2878D01*
X-13496Y2780D01*
X-13516Y2682D01*
X-13535Y2584D01*
X-13553Y2486D01*
X-13571Y2387D01*
X-13588Y2289D01*
X-13604Y2190D01*
X-13620Y2091D01*
X-13635Y1992D01*
X-13649Y1893D01*
X-13662Y1794D01*
X-13675Y1695D01*
X-13687Y1596D01*
X-13698Y1497D01*
X-13709Y1397D01*
X-13718Y1298D01*
X-13727Y1198D01*
X-13736Y1098D01*
X-13743Y999D01*
X-13750Y899D01*
X-13756Y799D01*
X-13762Y699D01*
X-13766Y600D01*
X-13770Y500D01*
X-13774Y400D01*
X-13776Y300D01*
X-13778Y200D01*
X-13779Y100D01*
X-13780Y-0D01*
X-13779Y-100D01*
X-13778Y-200D01*
X-13776Y-300D01*
X-13774Y-400D01*
X-13770Y-500D01*
X-13766Y-600D01*
X-13762Y-700D01*
X-13756Y-799D01*
X-13750Y-899D01*
X-13743Y-999D01*
X-13736Y-1099D01*
X-13727Y-1198D01*
X-13718Y-1298D01*
X-13708Y-1397D01*
X-13698Y-1497D01*
X-13687Y-1596D01*
X-13675Y-1695D01*
X-13662Y-1795D01*
X-13649Y-1894D01*
X-13635Y-1993D01*
X-13620Y-2092D01*
X-13604Y-2190D01*
X-13588Y-2289D01*
X-13571Y-2387D01*
X-13553Y-2486D01*
X-13535Y-2584D01*
X-13516Y-2682D01*
X-13496Y-2780D01*
X-13476Y-2878D01*
X-13454Y-2976D01*
X-13432Y-3073D01*
X-13410Y-3171D01*
X-13386Y-3268D01*
X-13362Y-3365D01*
X-13338Y-3462D01*
X-13312Y-3559D01*
X-13286Y-3655D01*
X-13259Y-3751D01*
X-13232Y-3847D01*
X-13203Y-3943D01*
X-13174Y-4039D01*
X-13145Y-4134D01*
X-13114Y-4230D01*
X-13083Y-4325D01*
X-13052Y-4420D01*
X-13019Y-4514D01*
X-12986Y-4609D01*
X-12952Y-4703D01*
X-12918Y-4796D01*
X-12883Y-4890D01*
X-12847Y-4983D01*
X-12810Y-5076D01*
X-12773Y-5169D01*
X-12735Y-5262D01*
X-12697Y-5354D01*
X-12658Y-5446D01*
X-12618Y-5538D01*
X-12577Y-5629D01*
X-12536Y-5720D01*
X-12494Y-5811D01*
X-12452Y-5902D01*
X-12409Y-5992D01*
X-12365Y-6082D01*
X-12320Y-6171D01*
X-12275Y-6260D01*
X-12230Y-6349D01*
X-12183Y-6438D01*
X-12136Y-6526D01*
X-12088Y-6614D01*
X-12040Y-6701D01*
X-11991Y-6789D01*
X-11942Y-6876D01*
X-11891Y-6962D01*
X-11841Y-7048D01*
X-11789Y-7134D01*
X-11737Y-7219D01*
X-11684Y-7304D01*
X-11631Y-7389D01*
X-11577Y-7473D01*
X-11523Y-7557D01*
X-11468Y-7640D01*
X-11412Y-7723D01*
X-11355Y-7806D01*
X-11299Y-7888D01*
X-11241Y-7970D01*
X-11183Y-8051D01*
X-11124Y-8132D01*
X-11065Y-8212D01*
X-11005Y-8292D01*
X-10945Y-8372D01*
X-10884Y-8451D01*
X-10822Y-8530D01*
X-10760Y-8608D01*
X-10697Y-8686D01*
X-10634Y-8764D01*
X-10570Y-8840D01*
X-10505Y-8917D01*
X-10440Y-8993D01*
X-10375Y-9068D01*
X-10309Y-9143D01*
X-10242Y-9218D01*
X-10175Y-9292D01*
X-10107Y-9366D01*
X-10039Y-9439D01*
X-9970Y-9511D01*
X-9901Y-9583D01*
X-9831Y-9655D01*
X-9761Y-9726D01*
X-9690Y-9797D01*
X-9619Y-9867D01*
X-9547Y-9936D01*
X-9475Y-10005D01*
X-9402Y-10074D01*
X-9329Y-10142D01*
X-9255Y-10209D01*
X-9180Y-10276D01*
X-9106Y-10342D01*
X-9030Y-10408D01*
X-8955Y-10473D01*
X-8878Y-10538D01*
X-8802Y-10602D01*
X-8725Y-10666D01*
X-8647Y-10729D01*
X-8569Y-10791D01*
X-8490Y-10853D01*
X-8411Y-10914D01*
X-8332Y-10975D01*
X-8252Y-11035D01*
X-8172Y-11095D01*
X-8091Y-11154D01*
X-8010Y-11212D01*
X-7928Y-11270D01*
X-7846Y-11327D01*
X-7764Y-11384D01*
X-7681Y-11440D01*
X-7598Y-11495D01*
X-7514Y-11550D01*
X-7430Y-11605D01*
X-7346Y-11658D01*
X-7261Y-11711D01*
X-7176Y-11763D01*
X-7091Y-11815D01*
X-7005Y-11866D01*
X-6918Y-11917D01*
X-6832Y-11967D01*
X-6745Y-12016D01*
X-6657Y-12065D01*
X-6570Y-12113D01*
X-6482Y-12160D01*
X-6393Y-12207D01*
X-6304Y-12253D01*
X-6215Y-12298D01*
X-6126Y-12343D01*
X-6036Y-12387D01*
X-5946Y-12431D01*
X-5856Y-12473D01*
X-5765Y-12515D01*
X-5674Y-12557D01*
X-5583Y-12598D01*
X-5491Y-12638D01*
X-5400Y-12678D01*
X-5308Y-12716D01*
X-5215Y-12755D01*
X-5122Y-12792D01*
X-5029Y-12829D01*
X-4936Y-12865D01*
X-4843Y-12901D01*
X-4749Y-12935D01*
X-4655Y-12969D01*
X-4561Y-13003D01*
X-4466Y-13036D01*
X-4372Y-13068D01*
X-4277Y-13099D01*
X-4182Y-13130D01*
X-4086Y-13160D01*
X-3991Y-13189D01*
X-3895Y-13218D01*
X-3799Y-13246D01*
X-3703Y-13273D01*
X-3606Y-13299D01*
X-3510Y-13325D01*
X-3413Y-13350D01*
X-3316Y-13375D01*
X-3219Y-13398D01*
X-3122Y-13421D01*
X-3024Y-13444D01*
X-2926Y-13465D01*
X-2829Y-13486D01*
X-2731Y-13506D01*
X-2633Y-13526D01*
X-2535Y-13544D01*
X-2436Y-13562D01*
X-2338Y-13580D01*
X-2239Y-13596D01*
X-2140Y-13612D01*
X-2042Y-13627D01*
X-1943Y-13642D01*
X-1844Y-13656D01*
X-1744Y-13669D01*
X-1645Y-13681D01*
X-1546Y-13693D01*
X-1447Y-13703D01*
X-1347Y-13714D01*
X-1248Y-13723D01*
X-1148Y-13732D01*
X-1048Y-13740D01*
X-949Y-13747D01*
X-849Y-13753D01*
X-749Y-13759D01*
X-649Y-13764D01*
X-549Y-13769D01*
X-449Y-13772D01*
X-349Y-13775D01*
X-250Y-13777D01*
X-150Y-13779D01*
X-50Y-13779D01*
X50Y-13779D01*
X150Y-13779D01*
X250Y-13777D01*
X350Y-13775D01*
X450Y-13772D01*
X550Y-13769D01*
X650Y-13764D01*
X750Y-13759D01*
X850Y-13753D01*
X949Y-13747D01*
X1049Y-13740D01*
X1149Y-13732D01*
X1248Y-13723D01*
X1348Y-13713D01*
X1447Y-13703D01*
X1547Y-13692D01*
X1646Y-13681D01*
X1745Y-13669D01*
X1844Y-13656D01*
X1943Y-13642D01*
X2042Y-13627D01*
X2141Y-13612D01*
X2240Y-13596D01*
X2339Y-13580D01*
X2437Y-13562D01*
X2535Y-13544D01*
X2634Y-13526D01*
X2732Y-13506D01*
X2830Y-13486D01*
X2927Y-13465D01*
X3025Y-13443D01*
X3122Y-13421D01*
X3220Y-13398D01*
X3317Y-13374D01*
X3414Y-13350D01*
X3510Y-13325D01*
X3607Y-13299D01*
X3703Y-13273D01*
X3800Y-13245D01*
X3896Y-13217D01*
X3991Y-13189D01*
X4087Y-13159D01*
X4182Y-13129D01*
X4278Y-13099D01*
X4372Y-13067D01*
X4467Y-13035D01*
X4562Y-13003D01*
X4656Y-12969D01*
X4750Y-12935D01*
X4844Y-12900D01*
X4937Y-12865D01*
X5030Y-12829D01*
X5123Y-12792D01*
X5216Y-12754D01*
X5308Y-12716D01*
X5400Y-12677D01*
X5492Y-12638D01*
X5584Y-12598D01*
X5675Y-12557D01*
X5766Y-12515D01*
X5857Y-12473D01*
X5947Y-12430D01*
X6037Y-12387D01*
X6127Y-12343D01*
X6216Y-12298D01*
X6305Y-12252D01*
X6394Y-12206D01*
X6482Y-12160D01*
X6570Y-12112D01*
X6658Y-12064D01*
X6745Y-12016D01*
X6832Y-11966D01*
X6919Y-11916D01*
X7005Y-11866D01*
X7091Y-11815D01*
X7177Y-11763D01*
X7262Y-11711D01*
X7347Y-11658D01*
X7431Y-11604D01*
X7515Y-11550D01*
X7599Y-11495D01*
X7682Y-11440D01*
X7765Y-11384D01*
X7847Y-11327D01*
X7929Y-11270D01*
X8011Y-11212D01*
X8092Y-11153D01*
X8172Y-11094D01*
X8253Y-11035D01*
X8333Y-10975D01*
X8412Y-10914D01*
X8491Y-10853D01*
X8569Y-10791D01*
X8648Y-10728D01*
X8725Y-10665D01*
X8802Y-10602D01*
X8879Y-10538D01*
X8955Y-10473D01*
X9031Y-10408D01*
X9106Y-10342D01*
X9181Y-10275D01*
X9255Y-10209D01*
X9329Y-10141D01*
X9402Y-10073D01*
X9475Y-10005D01*
X9548Y-9936D01*
X9620Y-9866D01*
X9691Y-9796D01*
X9762Y-9726D01*
X9832Y-9654D01*
X9902Y-9583D01*
X9971Y-9511D01*
X10040Y-9438D01*
X10108Y-9365D01*
X10176Y-9291D01*
X10243Y-9217D01*
X10309Y-9143D01*
X10375Y-9068D01*
X10441Y-8992D01*
X10506Y-8916D01*
X10570Y-8840D01*
X10634Y-8763D01*
X10698Y-8686D01*
X10760Y-8608D01*
X10822Y-8529D01*
X10884Y-8451D01*
X10945Y-8371D01*
X11006Y-8292D01*
X11065Y-8212D01*
X11125Y-8131D01*
X11183Y-8050D01*
X11241Y-7969D01*
X11299Y-7887D01*
X11356Y-7805D01*
X11412Y-7722D01*
X11468Y-7639D01*
X11523Y-7556D01*
X11578Y-7472D01*
X11632Y-7388D01*
X11685Y-7303D01*
X11738Y-7218D01*
X11790Y-7133D01*
X11841Y-7047D01*
X11892Y-6961D01*
X11942Y-6875D01*
X11992Y-6788D01*
X12041Y-6701D01*
X12089Y-6613D01*
X12137Y-6525D01*
X12184Y-6437D01*
X12230Y-6349D01*
X12276Y-6260D01*
X12321Y-6170D01*
X12365Y-6081D01*
X12409Y-5991D01*
X12452Y-5901D01*
X12495Y-5810D01*
X12536Y-5720D01*
X12578Y-5628D01*
X12618Y-5537D01*
X12658Y-5445D01*
X12697Y-5353D01*
X12736Y-5261D01*
X12773Y-5169D01*
X12811Y-5076D01*
X12847Y-4983D01*
X12883Y-4889D01*
X12918Y-4796D01*
X12953Y-4702D01*
X12986Y-4608D01*
X13019Y-4513D01*
X13052Y-4419D01*
X13084Y-4324D01*
X13115Y-4229D01*
X13145Y-4134D01*
X13175Y-4038D01*
X13203Y-3943D01*
X13232Y-3847D01*
X13259Y-3751D01*
X13286Y-3654D01*
X13312Y-3558D01*
X13338Y-3461D01*
X13363Y-3364D01*
X13387Y-3267D01*
X13410Y-3170D01*
X13433Y-3073D01*
X13455Y-2975D01*
X13476Y-2877D01*
X13496Y-2779D01*
X13516Y-2681D01*
X13535Y-2583D01*
X13554Y-2485D01*
X13571Y-2387D01*
X13588Y-2288D01*
X13604Y-2189D01*
X13620Y-2091D01*
X13635Y-1992D01*
X13649Y-1893D01*
X13662Y-1794D01*
X13675Y-1695D01*
X13687Y-1595D01*
X13698Y-1496D01*
X13709Y-1397D01*
X13718Y-1297D01*
X13727Y-1197D01*
X13736Y-1098D01*
X13743Y-998D01*
X13750Y-898D01*
X13756Y-799D01*
X13762Y-699D01*
X13767Y-599D01*
X13770Y-499D01*
X13774Y-399D01*
X13776Y-299D01*
X13778Y-199D01*
X13779Y-99D01*
X13780Y0D01*
M02*
