G04*
G04 #@! TF.GenerationSoftware,Altium Limited,Altium Designer,21.6.4 (81)*
G04*
G04 Layer_Color=32768*
%FSLAX24Y24*%
%MOIN*%
G70*
G04*
G04 #@! TF.SameCoordinates,91C8DFC6-6E0A-4D14-B263-8AF1C318984C*
G04*
G04*
G04 #@! TF.FilePolarity,Positive*
G04*
G01*
G75*
%ADD127C,0.0709*%
G54D127*
X-14179Y-768D02*
X-14173Y-868D01*
X-14167Y-967D01*
X-14160Y-1067D01*
X-14152Y-1167D01*
X-14143Y-1266D01*
X-14134Y-1366D01*
X-14124Y-1465D01*
X-14114Y-1564D01*
X-14102Y-1664D01*
X-14090Y-1763D01*
X-14077Y-1862D01*
X-14064Y-1961D01*
X-14050Y-2060D01*
X-14035Y-2159D01*
X-14019Y-2257D01*
X-14003Y-2356D01*
X-13986Y-2454D01*
X-13969Y-2553D01*
X-13950Y-2651D01*
X-13931Y-2749D01*
X-13912Y-2847D01*
X-13891Y-2945D01*
X-13870Y-3042D01*
X-13849Y-3140D01*
X-13826Y-3237D01*
X-13803Y-3334D01*
X-13779Y-3431D01*
X-13755Y-3528D01*
X-13730Y-3625D01*
X-13704Y-3721D01*
X-13677Y-3818D01*
X-13650Y-3914D01*
X-13622Y-4010D01*
X-13594Y-4106D01*
X-13564Y-4201D01*
X-13534Y-4296D01*
X-13504Y-4392D01*
X-13473Y-4487D01*
X-13441Y-4581D01*
X-13408Y-4676D01*
X-13375Y-4770D01*
X-13341Y-4864D01*
X-13306Y-4958D01*
X-13271Y-5051D01*
X-13235Y-5144D01*
X-13199Y-5237D01*
X-13162Y-5330D01*
X-13124Y-5423D01*
X-13085Y-5515D01*
X-13046Y-5607D01*
X-13007Y-5698D01*
X-12966Y-5790D01*
X-12925Y-5881D01*
X-12883Y-5972D01*
X-12841Y-6062D01*
X-12798Y-6152D01*
X-12754Y-6242D01*
X-12710Y-6332D01*
X-12665Y-6421D01*
X-12620Y-6510D01*
X-12574Y-6599D01*
X-12527Y-6687D01*
X-12480Y-6775D01*
X-12432Y-6862D01*
X-12383Y-6950D01*
X-12334Y-7037D01*
X-12284Y-7123D01*
X-12234Y-7210D01*
X-12183Y-7295D01*
X-12131Y-7381D01*
X-12079Y-7466D01*
X-12026Y-7551D01*
X-11972Y-7635D01*
X-11918Y-7719D01*
X-11864Y-7803D01*
X-11809Y-7886D01*
X-11753Y-7969D01*
X-11697Y-8052D01*
X-11640Y-8134D01*
X-11582Y-8216D01*
X-11524Y-8297D01*
X-11465Y-8378D01*
X-11406Y-8458D01*
X-11346Y-8538D01*
X-11286Y-8618D01*
X-11225Y-8697D01*
X-11164Y-8776D01*
X-11102Y-8854D01*
X-11039Y-8932D01*
X-10976Y-9009D01*
X-10912Y-9086D01*
X-10848Y-9163D01*
X-10783Y-9239D01*
X-10718Y-9315D01*
X-10652Y-9390D01*
X-10586Y-9465D01*
X-10519Y-9539D01*
X-10452Y-9613D01*
X-10384Y-9686D01*
X-10315Y-9759D01*
X-10246Y-9831D01*
X-10177Y-9903D01*
X-10107Y-9974D01*
X-10037Y-10045D01*
X-9966Y-10116D01*
X-9894Y-10185D01*
X-9822Y-10255D01*
X-9750Y-10324D01*
X-9677Y-10392D01*
X-9604Y-10460D01*
X-9530Y-10527D01*
X-9456Y-10594D01*
X-9381Y-10660D01*
X-9306Y-10726D01*
X-9230Y-10791D01*
X-9154Y-10856D01*
X-9077Y-10920D01*
X-9000Y-10984D01*
X-8923Y-11047D01*
X-8845Y-11109D01*
X-8766Y-11171D01*
X-8688Y-11232D01*
X-8608Y-11293D01*
X-8529Y-11354D01*
X-8449Y-11413D01*
X-8368Y-11472D01*
X-8287Y-11531D01*
X-8206Y-11589D01*
X-8124Y-11646D01*
X-8042Y-11703D01*
X-7959Y-11760D01*
X-7876Y-11815D01*
X-7793Y-11870D01*
X-7709Y-11925D01*
X-7625Y-11979D01*
X-7541Y-12032D01*
X-7456Y-12085D01*
X-7371Y-12137D01*
X-7285Y-12189D01*
X-7199Y-12240D01*
X-7113Y-12290D01*
X-7026Y-12340D01*
X-6939Y-12389D01*
X-6852Y-12437D01*
X-6764Y-12485D01*
X-6676Y-12533D01*
X-6588Y-12579D01*
X-6499Y-12625D01*
X-6410Y-12671D01*
X-6321Y-12716D01*
X-6231Y-12760D01*
X-6141Y-12803D01*
X-6051Y-12846D01*
X-5961Y-12888D01*
X-5870Y-12930D01*
X-5779Y-12971D01*
X-5687Y-13011D01*
X-5596Y-13051D01*
X-5504Y-13090D01*
X-5411Y-13128D01*
X-5319Y-13166D01*
X-5226Y-13203D01*
X-5133Y-13240D01*
X-5040Y-13276D01*
X-4946Y-13311D01*
X-4853Y-13345D01*
X-4759Y-13379D01*
X-4664Y-13412D01*
X-4570Y-13445D01*
X-4475Y-13476D01*
X-4380Y-13508D01*
X-4285Y-13538D01*
X-4190Y-13568D01*
X-4094Y-13597D01*
X-3998Y-13625D01*
X-3902Y-13653D01*
X-3806Y-13680D01*
X-3710Y-13707D01*
X-3613Y-13733D01*
X-3517Y-13758D01*
X-3420Y-13782D01*
X-3323Y-13806D01*
X-3225Y-13829D01*
X-3128Y-13851D01*
X-3031Y-13873D01*
X-2933Y-13894D01*
X-2835Y-13914D01*
X-2737Y-13934D01*
X-2639Y-13953D01*
X-2541Y-13971D01*
X-2442Y-13988D01*
X-2344Y-14005D01*
X-2245Y-14021D01*
X-2147Y-14037D01*
X-2048Y-14052D01*
X-1949Y-14066D01*
X-1850Y-14079D01*
X-1751Y-14092D01*
X-1652Y-14104D01*
X-1552Y-14115D01*
X-1453Y-14125D01*
X-1453Y-14126D01*
X-768Y14179D02*
X-868Y14173D01*
X-967Y14167D01*
X-1067Y14160D01*
X-1167Y14152D01*
X-1266Y14143D01*
X-1366Y14134D01*
X-1465Y14124D01*
X-1564Y14114D01*
X-1664Y14102D01*
X-1763Y14090D01*
X-1862Y14077D01*
X-1961Y14064D01*
X-2060Y14050D01*
X-2159Y14035D01*
X-2258Y14019D01*
X-2356Y14003D01*
X-2455Y13986D01*
X-2553Y13969D01*
X-2651Y13950D01*
X-2749Y13931D01*
X-2847Y13912D01*
X-2945Y13891D01*
X-3043Y13870D01*
X-3140Y13848D01*
X-3238Y13826D01*
X-3335Y13803D01*
X-3432Y13779D01*
X-3529Y13755D01*
X-3626Y13729D01*
X-3722Y13704D01*
X-3818Y13677D01*
X-3915Y13650D01*
X-4011Y13622D01*
X-4106Y13593D01*
X-4202Y13564D01*
X-4297Y13534D01*
X-4392Y13504D01*
X-4487Y13472D01*
X-4582Y13440D01*
X-4676Y13408D01*
X-4771Y13375D01*
X-4865Y13341D01*
X-4958Y13306D01*
X-5052Y13271D01*
X-5145Y13235D01*
X-5238Y13199D01*
X-5331Y13161D01*
X-5423Y13123D01*
X-5516Y13085D01*
X-5608Y13046D01*
X-5699Y13006D01*
X-5791Y12966D01*
X-5882Y12925D01*
X-5973Y12883D01*
X-6063Y12841D01*
X-6153Y12798D01*
X-6243Y12754D01*
X-6333Y12710D01*
X-6422Y12665D01*
X-6511Y12619D01*
X-6600Y12573D01*
X-6688Y12526D01*
X-6776Y12479D01*
X-6864Y12431D01*
X-6951Y12382D01*
X-7038Y12333D01*
X-7125Y12283D01*
X-7211Y12233D01*
X-7297Y12182D01*
X-7382Y12130D01*
X-7467Y12078D01*
X-7552Y12025D01*
X-7637Y11972D01*
X-7721Y11918D01*
X-7804Y11863D01*
X-7888Y11808D01*
X-7971Y11752D01*
X-8053Y11696D01*
X-8135Y11639D01*
X-8217Y11581D01*
X-8298Y11523D01*
X-8379Y11464D01*
X-8460Y11405D01*
X-8540Y11345D01*
X-8619Y11285D01*
X-8698Y11224D01*
X-8777Y11162D01*
X-8856Y11100D01*
X-8933Y11038D01*
X-9011Y10975D01*
X-9088Y10911D01*
X-9164Y10847D01*
X-9241Y10782D01*
X-9316Y10717D01*
X-9391Y10651D01*
X-9466Y10585D01*
X-9540Y10518D01*
X-9614Y10450D01*
X-9687Y10382D01*
X-9760Y10314D01*
X-9833Y10245D01*
X-9904Y10176D01*
X-9976Y10106D01*
X-10047Y10035D01*
X-10117Y9964D01*
X-10187Y9893D01*
X-10256Y9821D01*
X-10325Y9748D01*
X-10394Y9675D01*
X-10461Y9602D01*
X-10529Y9528D01*
X-10595Y9454D01*
X-10662Y9379D01*
X-10727Y9304D01*
X-10793Y9228D01*
X-10857Y9152D01*
X-10922Y9075D01*
X-10985Y8998D01*
X-11048Y8921D01*
X-11111Y8843D01*
X-11173Y8764D01*
X-11234Y8685D01*
X-11295Y8606D01*
X-11355Y8526D01*
X-11415Y8446D01*
X-11474Y8366D01*
X-11533Y8285D01*
X-11591Y8203D01*
X-11648Y8122D01*
X-11705Y8040D01*
X-11761Y7957D01*
X-11817Y7874D01*
X-11872Y7791D01*
X-11927Y7707D01*
X-11981Y7623D01*
X-12034Y7538D01*
X-12087Y7453D01*
X-12139Y7368D01*
X-12190Y7283D01*
X-12241Y7197D01*
X-12292Y7110D01*
X-12341Y7024D01*
X-12390Y6937D01*
X-12439Y6849D01*
X-12487Y6762D01*
X-12534Y6673D01*
X-12581Y6585D01*
X-12627Y6496D01*
X-12672Y6407D01*
X-12717Y6318D01*
X-12761Y6228D01*
X-12805Y6138D01*
X-12848Y6048D01*
X-12890Y5958D01*
X-12931Y5867D01*
X-12972Y5776D01*
X-13013Y5684D01*
X-13052Y5592D01*
X-13091Y5500D01*
X-13130Y5408D01*
X-13168Y5316D01*
X-13205Y5223D01*
X-13241Y5130D01*
X-13277Y5037D01*
X-13312Y4943D01*
X-13346Y4849D01*
X-13380Y4755D01*
X-13413Y4661D01*
X-13446Y4566D01*
X-13478Y4472D01*
X-13509Y4377D01*
X-13539Y4281D01*
X-13569Y4186D01*
X-13598Y4090D01*
X-13627Y3995D01*
X-13654Y3899D01*
X-13681Y3802D01*
X-13708Y3706D01*
X-13734Y3610D01*
X-13759Y3513D01*
X-13783Y3416D01*
X-13807Y3319D01*
X-13830Y3222D01*
X-13852Y3124D01*
X-13874Y3027D01*
X-13895Y2929D01*
X-13915Y2831D01*
X-13935Y2733D01*
X-13953Y2635D01*
X-13972Y2537D01*
X-13989Y2438D01*
X-14006Y2340D01*
X-14022Y2241D01*
X-14037Y2142D01*
X-14052Y2044D01*
X-14066Y1945D01*
X-14080Y1846D01*
X-14092Y1746D01*
X-14104Y1647D01*
X-14115Y1548D01*
X-14126Y1449D01*
X-14136Y1349D01*
X-14145Y1250D01*
X-14153Y1150D01*
X14179Y768D02*
X14173Y868D01*
X14167Y967D01*
X14160Y1067D01*
X14152Y1167D01*
X14143Y1266D01*
X14134Y1366D01*
X14124Y1465D01*
X14114Y1565D01*
X14102Y1664D01*
X14090Y1763D01*
X14077Y1862D01*
X14064Y1961D01*
X14050Y2060D01*
X14035Y2159D01*
X14019Y2258D01*
X14003Y2356D01*
X13986Y2455D01*
X13969Y2553D01*
X13950Y2651D01*
X13931Y2750D01*
X13912Y2848D01*
X13891Y2945D01*
X13870Y3043D01*
X13848Y3141D01*
X13826Y3238D01*
X13803Y3335D01*
X13779Y3432D01*
X13754Y3529D01*
X13729Y3626D01*
X13703Y3723D01*
X13677Y3819D01*
X13650Y3915D01*
X13622Y4011D01*
X13593Y4107D01*
X13564Y4202D01*
X13534Y4298D01*
X13503Y4393D01*
X13472Y4488D01*
X13440Y4583D01*
X13408Y4677D01*
X13374Y4771D01*
X13341Y4865D01*
X13306Y4959D01*
X13271Y5053D01*
X13235Y5146D01*
X13198Y5239D01*
X13161Y5332D01*
X13123Y5424D01*
X13085Y5516D01*
X13046Y5608D01*
X13006Y5700D01*
X12965Y5791D01*
X12924Y5882D01*
X12883Y5973D01*
X12840Y6064D01*
X12797Y6154D01*
X12754Y6244D01*
X12709Y6334D01*
X12664Y6423D01*
X12619Y6512D01*
X12573Y6601D01*
X12526Y6689D01*
X12479Y6777D01*
X12431Y6865D01*
X12382Y6952D01*
X12333Y7039D01*
X12283Y7125D01*
X12232Y7212D01*
X12181Y7298D01*
X12130Y7383D01*
X12077Y7468D01*
X12025Y7553D01*
X11971Y7638D01*
X11917Y7722D01*
X11862Y7805D01*
X11807Y7889D01*
X11751Y7972D01*
X11695Y8054D01*
X11638Y8136D01*
X11580Y8218D01*
X11522Y8299D01*
X11464Y8380D01*
X11404Y8461D01*
X11344Y8541D01*
X11284Y8620D01*
X11223Y8699D01*
X11162Y8778D01*
X11100Y8857D01*
X11037Y8935D01*
X10974Y9012D01*
X10910Y9089D01*
X10846Y9166D01*
X10781Y9242D01*
X10716Y9317D01*
X10650Y9392D01*
X10584Y9467D01*
X10517Y9541D01*
X10449Y9615D01*
X10381Y9689D01*
X10313Y9761D01*
X10244Y9834D01*
X10174Y9906D01*
X10104Y9977D01*
X10034Y10048D01*
X9963Y10118D01*
X9892Y10188D01*
X9820Y10257D01*
X9747Y10326D01*
X9674Y10395D01*
X9601Y10462D01*
X9527Y10530D01*
X9453Y10597D01*
X9378Y10663D01*
X9303Y10729D01*
X9227Y10794D01*
X9151Y10858D01*
X9074Y10923D01*
X8997Y10986D01*
X8919Y11049D01*
X8841Y11112D01*
X8763Y11174D01*
X8684Y11235D01*
X8605Y11296D01*
X8525Y11356D01*
X8445Y11416D01*
X8364Y11475D01*
X8283Y11534D01*
X8202Y11592D01*
X8120Y11649D01*
X8038Y11706D01*
X7955Y11762D01*
X7872Y11818D01*
X7789Y11873D01*
X7705Y11928D01*
X7621Y11982D01*
X7537Y12035D01*
X7452Y12088D01*
X7366Y12140D01*
X7281Y12191D01*
X7195Y12242D01*
X7109Y12293D01*
X7022Y12342D01*
X6935Y12391D01*
X6847Y12440D01*
X6760Y12488D01*
X6672Y12535D01*
X6583Y12582D01*
X6495Y12628D01*
X6405Y12673D01*
X6316Y12718D01*
X6226Y12762D01*
X6136Y12806D01*
X6046Y12848D01*
X5956Y12891D01*
X5865Y12932D01*
X5774Y12973D01*
X5682Y13014D01*
X5590Y13053D01*
X5498Y13092D01*
X5406Y13131D01*
X5314Y13168D01*
X5221Y13205D01*
X5128Y13242D01*
X5034Y13278D01*
X4941Y13313D01*
X4847Y13347D01*
X4753Y13381D01*
X4659Y13414D01*
X4564Y13447D01*
X4469Y13478D01*
X4374Y13509D01*
X4279Y13540D01*
X4184Y13570D01*
X4088Y13599D01*
X3992Y13627D01*
X3896Y13655D01*
X3800Y13682D01*
X3704Y13708D01*
X3607Y13734D01*
X3510Y13759D01*
X3413Y13784D01*
X3316Y13807D01*
X3219Y13830D01*
X3122Y13853D01*
X3024Y13874D01*
X2926Y13895D01*
X2828Y13915D01*
X2730Y13935D01*
X2632Y13954D01*
X2534Y13972D01*
X2436Y13990D01*
X2337Y14006D01*
X2238Y14022D01*
X2140Y14038D01*
X2041Y14053D01*
X1942Y14067D01*
X1843Y14080D01*
X1744Y14093D01*
X1644Y14104D01*
X1545Y14116D01*
X1446Y14126D01*
X1346Y14136D01*
X1247Y14145D01*
X1147Y14154D01*
X1048Y14161D01*
X948Y14168D01*
X1453Y-14126D02*
X1552Y-14115D01*
X1651Y-14104D01*
X1751Y-14092D01*
X1850Y-14079D01*
X1949Y-14066D01*
X2048Y-14052D01*
X2147Y-14037D01*
X2246Y-14021D01*
X2344Y-14005D01*
X2443Y-13988D01*
X2542Y-13971D01*
X2640Y-13952D01*
X2738Y-13934D01*
X2836Y-13914D01*
X2934Y-13894D01*
X3032Y-13873D01*
X3129Y-13851D01*
X3227Y-13828D01*
X3324Y-13805D01*
X3421Y-13782D01*
X3518Y-13757D01*
X3615Y-13732D01*
X3712Y-13706D01*
X3808Y-13680D01*
X3904Y-13653D01*
X4001Y-13625D01*
X4096Y-13596D01*
X4192Y-13567D01*
X4288Y-13537D01*
X4383Y-13507D01*
X4478Y-13476D01*
X4573Y-13444D01*
X4667Y-13411D01*
X4761Y-13378D01*
X4856Y-13344D01*
X4949Y-13310D01*
X5043Y-13274D01*
X5136Y-13238D01*
X5230Y-13202D01*
X5322Y-13165D01*
X5415Y-13127D01*
X5507Y-13089D01*
X5599Y-13049D01*
X5691Y-13010D01*
X5783Y-12969D01*
X5874Y-12928D01*
X5965Y-12887D01*
X6055Y-12844D01*
X6146Y-12801D01*
X6236Y-12758D01*
X6325Y-12713D01*
X6415Y-12669D01*
X6504Y-12623D01*
X6592Y-12577D01*
X6681Y-12530D01*
X6769Y-12483D01*
X6857Y-12435D01*
X6944Y-12386D01*
X7031Y-12337D01*
X7118Y-12287D01*
X7204Y-12237D01*
X7290Y-12186D01*
X7376Y-12134D01*
X7461Y-12082D01*
X7546Y-12029D01*
X7631Y-11976D01*
X7715Y-11921D01*
X7799Y-11867D01*
X7882Y-11812D01*
X7965Y-11756D01*
X8048Y-11699D01*
X8130Y-11642D01*
X8212Y-11585D01*
X8293Y-11527D01*
X8374Y-11468D01*
X8454Y-11409D01*
X8535Y-11349D01*
X8614Y-11289D01*
X8694Y-11228D01*
X8772Y-11166D01*
X8851Y-11104D01*
X8929Y-11042D01*
X9006Y-10978D01*
X9084Y-10915D01*
X9160Y-10850D01*
X9236Y-10786D01*
X9312Y-10720D01*
X9387Y-10654D01*
X9462Y-10588D01*
X9537Y-10521D01*
X9610Y-10454D01*
X9684Y-10386D01*
X9757Y-10317D01*
X9829Y-10248D01*
X9901Y-10179D01*
X9972Y-10109D01*
X10043Y-10038D01*
X10114Y-9967D01*
X10184Y-9896D01*
X10253Y-9824D01*
X10322Y-9752D01*
X10391Y-9679D01*
X10459Y-9605D01*
X10526Y-9531D01*
X10593Y-9457D01*
X10659Y-9382D01*
X10725Y-9307D01*
X10790Y-9231D01*
X10855Y-9155D01*
X10919Y-9078D01*
X10983Y-9001D01*
X11046Y-8923D01*
X11109Y-8845D01*
X11171Y-8767D01*
X11232Y-8688D01*
X11293Y-8609D01*
X11353Y-8529D01*
X11413Y-8449D01*
X11472Y-8368D01*
X11531Y-8287D01*
X11589Y-8206D01*
X11647Y-8124D01*
X11703Y-8042D01*
X11760Y-7959D01*
X11816Y-7876D01*
X11871Y-7793D01*
X11925Y-7709D01*
X11979Y-7625D01*
X12033Y-7540D01*
X12086Y-7455D01*
X12138Y-7370D01*
X12189Y-7284D01*
X12240Y-7198D01*
X12291Y-7112D01*
X12341Y-7025D01*
X12390Y-6938D01*
X12438Y-6851D01*
X12486Y-6763D01*
X12534Y-6675D01*
X12580Y-6586D01*
X12626Y-6497D01*
X12672Y-6408D01*
X12717Y-6319D01*
X12761Y-6229D01*
X12804Y-6139D01*
X12847Y-6049D01*
X12889Y-5958D01*
X12931Y-5867D01*
X12972Y-5776D01*
X13013Y-5685D01*
X13052Y-5593D01*
X13091Y-5501D01*
X13130Y-5408D01*
X13167Y-5316D01*
X13205Y-5223D01*
X13241Y-5130D01*
X13277Y-5036D01*
X13312Y-4943D01*
X13346Y-4849D01*
X13380Y-4755D01*
X13413Y-4660D01*
X13446Y-4566D01*
X13478Y-4471D01*
X13509Y-4376D01*
X13539Y-4281D01*
X13569Y-4185D01*
X13598Y-4090D01*
X13627Y-3994D01*
X13655Y-3898D01*
X13682Y-3801D01*
X13708Y-3705D01*
X13734Y-3608D01*
X13759Y-3512D01*
X13783Y-3415D01*
X13807Y-3317D01*
X13830Y-3220D01*
X13852Y-3123D01*
X13874Y-3025D01*
X13895Y-2927D01*
X13915Y-2829D01*
X13935Y-2731D01*
X13954Y-2633D01*
X13972Y-2535D01*
X13989Y-2436D01*
X14006Y-2338D01*
X14022Y-2239D01*
X14038Y-2140D01*
X14053Y-2041D01*
X14067Y-1942D01*
X14080Y-1843D01*
X14093Y-1744D01*
X14104Y-1644D01*
X14116Y-1545D01*
X14126Y-1446D01*
X14136Y-1346D01*
X14145Y-1246D01*
X14154Y-1147D01*
X14161Y-1047D01*
X14168Y-948D01*
M02*
